<svg data-name="Слой 1" viewBox="0 0 42.75 46.21" xmlns="http://www.w3.org/2000/svg"><path d="M22 41.05a2.64 2.64 0 01-2.08.84 2.87 2.87 0 01-2-.74 3.18 3.18 0 01-.79-2.43c0-2.12.93-3.19 2.81-3.19a2.73 2.73 0 012.1.82 3.45 3.45 0 01.73 2.37 3.35 3.35 0 01-.77 2.33zm8.36-23.18A8.49 8.49 0 0129 20.33a31.4 31.4 0 01-3.84 3.74A14.61 14.61 0 0022 27.42a7.2 7.2 0 00-.74 3.58v.77h-3V30.5a10.56 10.56 0 01.82-4.5 12 12 0 013.14-3.73 21.5 21.5 0 004-4.06 6.22 6.22 0 00.83-3.28 4.57 4.57 0 00-1.53-3.69 6.66 6.66 0 00-4.42-1.3 14.93 14.93 0 00-3.61.43 19.84 19.84 0 00-4 1.58l-1.4-3.18a19.68 19.68 0 019.26-2.32q4.48 0 7 2.2a7.86 7.86 0 012.49 6.21 9.15 9.15 0 01-.5 3.01z" fill="#fff"/></svg>