<svg viewBox="0 0 90 90" xmlns="http://www.w3.org/2000/svg"><path d="M50.9 45.6c-.4-.4-.4-.9 0-1.3l14.2-14.2c.4-.4.6-.9.6-1.3s-.2-.9-.6-1.3l-2.6-2.6c-.4-.4-.9-.6-1.3-.6-.6 0-.9.2-1.3.6L45.6 39c-.4.4-.9.4-1.3 0L30.1 24.8c-.4-.4-.9-.6-1.3-.6s-.9.2-1.3.6l-2.6 2.6c-.4.4-.6.9-.6 1.3s.2.9.6 1.3L39 44.3c.4.4.4.9 0 1.3L24.8 59.8c-.4.4-.6.9-.6 1.3s.2.9.6 1.3l2.6 2.6c.4.4.9.6 1.3.6s.9-.2 1.3-.6l14.2-14.2c.4-.4.9-.4 1.3 0L59.7 65c.4.4.9.6 1.3.6s.9-.2 1.3-.6l2.6-2.6c.4-.4.6-.9.6-1.3s-.2-.9-.6-1.3l-14-14.2z"/></svg>