<svg data-name="Слой 1" viewBox="0 0 86.82 102.29" xmlns="http://www.w3.org/2000/svg"><path d="M32 12.31a15.7 15.7 0 018.84 14c0 1 1.56 1.57 2 .55 1.39-3 1.11-6.2 1.55-9.4a13 13 0 014.14-7.56c5-4.73 12.11-5.72 18.63-6.56L66.11 2c-1.57 6-2.84 12.63-7.57 17A18.19 18.19 0 0144 23.71c-1.38-.18-2 1.93-.58 2.12A20.57 20.57 0 0059.56 21C65 16.32 66.49 9.16 68.22 2.54c.16-.61-.33-1.48-1.06-1.39C60.24 2 53 3.09 47.52 7.86a15.45 15.45 0 00-4.84 7.49c-.91 3.4-.15 7.18-1.65 10.42l2 .56a17.88 17.88 0 00-9.92-15.91c-1.27-.61-2.38 1.28-1.11 1.89zM20.59 42.08a16.94 16.94 0 00-9.23 13.09c-.17 1.4 2 1.38 2.19 0A14.74 14.74 0 0121.69 44c1.27-.62.16-2.51-1.1-1.89z"/><path d="M21.28 97.16A61.54 61.54 0 018 77.8c-3.2-7.38-5.18-15.67-4.69-23.74.42-7.69 3.69-15.31 10.43-19.49A16.46 16.46 0 0124 32.05c4.46.43 8.76 2.09 13.19 2.78a40.24 40.24 0 0013.14.09c4.31-.76 8.53-2.38 13-2.25 7.81.23 14.54 5.7 17.77 12.58 3.74 8 2.78 16.65.64 24.89a53.73 53.73 0 01-4.51 12.59 48 48 0 01-7.38 9.76c-2.67 2.81-5.74 6-9.84 6.36-3.71.31-7.3-1.3-10.77-2.36-3.69-1.13-7.31-1.61-11-.34-3.91 1.34-7.62 3.19-11.88 2.79a10.5 10.5 0 01-5.46-2.17c-1.1-.85-2.67.69-1.55 1.55a14.06 14.06 0 0011.37 2.57c4.41-.75 8.4-3.63 13-3.35 4.06.25 7.8 2.22 11.73 3.08a13.27 13.27 0 0011-2 45.3 45.3 0 009-9.21A40.61 40.61 0 0081.69 78a80.44 80.44 0 003.61-13.93A36.61 36.61 0 0085.22 51c-1.6-8.1-6.61-15.43-14.22-18.76a21.15 21.15 0 00-12-1.42c-4.84.76-9.4 2.4-14.35 2.43a56.73 56.73 0 01-14.4-2.18c-4.15-1.06-8.31-1.82-12.53-.64-7.52 2.12-13 8.63-15.27 15.93C-.15 54.7 1 63.9 3.53 72.09A63.64 63.64 0 0015.4 94a62 62 0 004.33 4.69c1 1 2.56-.56 1.55-1.55z"/><path d="M12.31 63.64a1.1 1.1 0 000-2.19 1.1 1.1 0 000 2.19z"/></svg>