<svg data-name="Слой 1" viewBox="0 0 99.07 82.1" xmlns="http://www.w3.org/2000/svg"><path d="M2.7 81h23.94a1 1 0 001-.74c.82-3 2.57-6 5.83-6.6a9.74 9.74 0 017.37 1.76A5.88 5.88 0 0143.12 80a1 1 0 001 1H96a1 1 0 001-1c.29-6.38.58-12.67.69-19 .2-11.65.24-23.63-3.64-34.77-3.4-9.74-9.79-18.55-19.4-22.74a26.55 26.55 0 00-14.36-2.15 28 28 0 00-13.45 6.15 46.47 46.47 0 00-11.18 13.89C33 26.2 31 31.32 28.52 36.24a1 1 0 00.15 1.23 20.23 20.23 0 014.13 3.63c1.73 2.45 1.47 5.78.15 8.34a16.88 16.88 0 01-6.54 6.63c-2.43 1.37-6.09 1.75-7.71-1A1 1 0 0017 55c-4.8 7.44-9.47 14.9-14.13 22.37l-1.38 2.21c-.7 1.11 1.05 2 1.74.92C7 74.41 10.84 68.44 14.68 62.38q2-3.18 4-6.33H17c1.75 3 5.61 3.73 8.71 2.58a18 18 0 008.48-7.23 10.83 10.83 0 001.15-9.91c-1-2.41-3.22-3.87-5.2-5.45l.16 1.22C34.65 28.42 38 19 45.1 11.79a29.15 29.15 0 0112.12-7.7 23.32 23.32 0 0114.17.3C81.16 7.6 88 16 91.57 25.32c4 10.51 4.27 21.89 4.12 33-.1 7.26-.4 14.41-.73 21.66.34-.34.68-.58 1-.91H44.13c.34.33.67.57 1 .91a8 8 0 00-2.59-5.76 11.75 11.75 0 00-8.73-2.65 8.09 8.09 0 00-6.26 4 16 16 0 00-1.9 4.26l1-.74H2.7a1 1 0 100 1.91z"/><path d="M37.89 59.89a6.22 6.22 0 005 6.32 8.39 8.39 0 008.22-3.76c1.86-2.75 1.59-6.29-1.27-8.2a8.56 8.56 0 00-7.06-.78c-2.67.8-4.77 2.78-5 5.65-.08 1.3 2 1.3 2 0 .27-4.39 8-5.55 10.07-2 1.65 2.83-1.64 6.16-4.18 6.91-2.81.84-6.12-1-5.87-4.18.1-1.3-1.92-1.3-2 0zM48 25.79a7.29 7.29 0 004.77 8.51 9.35 9.35 0 0010.2-3 9.12 9.12 0 00.56-9.71 8.39 8.39 0 00-8.76-4c-4 .79-6.57 4.61-7 8.45-.14 1.29 1.88 1.28 2 0 .37-3.27 3-6.55 6.46-6.59a6.4 6.4 0 016.38 6.07 6.66 6.66 0 01-6.13 7.14c-3.65.4-7.53-2.36-6.55-6.37.31-1.26-1.64-1.8-2-.54zm11.59 48.7c.86-1.5 1.7-3 2.56-4.5l1.29-2.24c.38-.65.88-2 1.58-2.3a3.38 3.38 0 011.55 0 12.18 12.18 0 002.26 0 12.51 12.51 0 004.23-1.24c4.57-2.3 7.23-7.41 8.1-12.28.45-2.54.39-5.25-1.11-7.46a9.21 9.21 0 00-7.22-3.8c-5.35-.25-9.7 4.13-11.65 8.74-2.08 4.9-2.72 12.3 2.54 15.41a1 1 0 001-1.74c-4.16-2.47-3.36-8.45-2-12.31 1.51-4.12 5.31-8.31 10-8.08a6.82 6.82 0 016.13 4c.83 2.17.38 4.61-.25 6.78-1.14 4.3-4 8.53-8.6 9.65a15.57 15.57 0 01-4.25.21A3.23 3.23 0 0063 64.61 39.87 39.87 0 0060.4 69c-.85 1.5-1.69 3-2.56 4.5a1 1 0 001.75 1zm-3.29 5.58c.47-.82.94-1.53 1.41-2.34a1 1 0 00-1.74-1l-1.41 2.44c-.66 1.12 1.09 2 1.74.92z"/><path d="M79.62 43.16a59.74 59.74 0 006.16-9.8 23.8 23.8 0 002.11-10.52 21.3 21.3 0 00-3-10.32c-2.09-3.43-5.3-5.8-8.52-8.09-1.06-.75-2.08 1-1 1.75 3 2.11 6 4.31 7.88 7.51a19.4 19.4 0 012.6 9.87 21.63 21.63 0 01-2.2 9.54 66.5 66.5 0 01-5.81 9c-.75 1.06 1 2.07 1.75 1z"/></svg>