<svg data-name="Слой 1" viewBox="0 0 128 71.87" xmlns="http://www.w3.org/2000/svg"><path d="M49.46 39.16c-.05 1-.05 1.91 0 2.86a1.25 1.25 0 102.47-.37v-2.21a1.25 1.25 0 00-2.48-.28z"/><path d="M62.21 65.5c7.16 6.31 17.28 7.87 26.25 5 9.54-3.09 16.48-11.22 19.07-20.79a34.94 34.94 0 00.47-16.49l-.73 1.33c2.06-.92 4.12-1.84 6.17-2.78l-1.65-.63v.08l2.2-1a.86.86 0 01.13.53l-2.38.37c.7 1.82 1.48 3.61 2.27 5.39a1.28 1.28 0 001.65.63c2.68-1 5-2.75 7.82-3.36a1.26 1.26 0 001-1.74c-.55-1.07-2.19-2.06-2.82-.39a1.62 1.62 0 001.87 2.13 1.26 1.26 0 001-1.74c-.79-1.83-1.6-3.64-2.4-5.46l-.64 1.65 5.82-2.59a1.27 1.27 0 00.59-1.64c-1.23-2.79-2.25-5.66-3.72-8.35a1.27 1.27 0 00-1.64-.63l-5.82 2.59 1.64.63c-1-1.75-1.23-3.73-2.68-5.23a1.28 1.28 0 00-1.47-.35 444.1 444.1 0 01-7.76 3.39 1.28 1.28 0 00-.63 1.65 5.71 5.71 0 00.47.88c.69 1 2.43.19 2.2-1a2.44 2.44 0 00-.8-1.43c-.8-.61-2.24.14-2 1.2.51 1.94 1.65 3.57 2.26 5.47l.63-1.64c-1.69 1-3.62 1.38-5.32 2.36l1.47.35C103 22 101.24 20 99.28 18.19A28 28 0 0093.13 14a31.11 31.11 0 00-12.71-3.35 29.71 29.71 0 00-12.37 2.11 29.49 29.49 0 00-10.5 7.54 30.41 30.41 0 00-7.44 14.39c-.33 1.57 2.15 1.83 2.48.27a28.44 28.44 0 0115.23-19.35 27.81 27.81 0 0122.77 0 26.16 26.16 0 016.52 4 76.51 76.51 0 015.74 5.93 1.27 1.27 0 001.47.35c1.69-1 3.62-1.39 5.31-2.36a1.29 1.29 0 00.63-1.65c-.53-1.68-1.62-3.13-2.07-4.83l-2 1.19c-.3-.42-.38-.5-.23-.22s.08.2 0 0l2.2-1c.13.14.09 0-.12-.32l-.63 1.65c2.6-1.1 5.18-2.25 7.76-3.39l-1.47-.35c1.26 1.31 1.45 3.12 2.33 4.66a1.27 1.27 0 001.64.64l5.82-2.59-1.64-.63c1.46 2.68 2.49 5.55 3.71 8.35l.63-1.65-5.76 2.61a1.26 1.26 0 00-.63 1.64q1.22 2.73 2.41 5.46l1-1.74.55 1.64-1.24.2-.26-.1 1-1.74c-3 .67-5.56 2.51-8.46 3.56l1.64.63c-.79-1.79-1.57-3.57-2.27-5.4-.49-1.27-2.13-.72-2.38.37a1.64 1.64 0 00.42 1.33 1.26 1.26 0 002.2-1 3.67 3.67 0 00-.24-.73 1.27 1.27 0 00-1.65-.63c-2 1-4.1 1.87-6.16 2.78a1.27 1.27 0 00-.73 1.33 31.63 31.63 0 01-5.65 25.95 26 26 0 01-23.18 9.72 23.56 23.56 0 01-13.13-5.8c-1.2-1.06-2.65 1-1.46 2z"/><path d="M72.27 62.59a21.1 21.1 0 0021.24-4 22.46 22.46 0 006.72-20.34C97.64 23.54 79.72 14.62 67 23.2c-6.5 4.4-10.48 12.49-9.21 20.33a1.24 1.24 0 002.46-.37 18.4 18.4 0 016.28-16.44A17.71 17.71 0 0184 23.21 20.75 20.75 0 0197 35.8a20.26 20.26 0 01-3.28 18.87 18.53 18.53 0 01-20.62 5.59 1.25 1.25 0 00-.89 2.33zm-2.89-3.16a1.25 1.25 0 00-2.28 1 1.25 1.25 0 002.28-1z"/><path d="M73.56 31.53a36.1 36.1 0 01-4 8.68 19.17 19.17 0 01-23.15 6.52 19.57 19.57 0 01-9.56-9.33 18.58 18.58 0 01-1.65-8.77 19.57 19.57 0 017.5-13.92A18.89 18.89 0 0160.2 12c5.48-4.4 11.5-5.89 11.31-6A29.67 29.67 0 0049.67.27a30.25 30.25 0 00-19.48 11.54 28 28 0 00-5.1 10.4l-7.85-1.43 3.21-3.25a1.26 1.26 0 00.18-1.75 33.78 33.78 0 00-5.23-4.4c-2.05-1.33-3.32-.16-4.75 1.41Q5.44 18.54.23 24.26a1.28 1.28 0 00.05 1.52l9.6 14.66a1.23 1.23 0 001.15.45c2.56-.52 5-2 7.28-3.29a1.27 1.27 0 00.63-1.6l-1.75-3.42-.71-1.39c2.54.34 5.08.71 7.61 1.08a28.82 28.82 0 007.27 17.26 31.11 31.11 0 0014 9.19c11.13 3.43 24-1.59 31.4-10.24a29 29 0 007-18.12c-.01-1.64-9.66-.36-10.2 1.17zm-58-2.15c-.19-.3 0-.32 0 0z"/></svg>