<svg data-name="Слой 1" viewBox="0 0 109.61 102.29" xmlns="http://www.w3.org/2000/svg"><path d="M84.25 49.73c.45-7.37 0-15.06-2.64-22A41.56 41.56 0 0072 13 40.72 40.72 0 0038.91 1.39 42.13 42.13 0 008.06 20.26 43.6 43.6 0 003 56c3.35 10.91 11 20.64 21.85 24.71A31.5 31.5 0 0029.11 82c1.27.29 1.82-1.67.54-1.95C18.73 77.57 10.36 69.24 6.24 59A41.44 41.44 0 017.6 25.19 39.83 39.83 0 0134.91 4.08a38.74 38.74 0 0132.74 7.75A40.33 40.33 0 0178.1 24.77c3 5.94 4.13 12.51 4.26 19.13 0 1.94 0 3.89-.14 5.83-.08 1.3 2 1.29 2 0z"/><path d="M37.28 18.45a6.93 6.93 0 0112.1.25c.62 1.15 2.37.13 1.75-1a8.88 8.88 0 00-15.6-.26 1 1 0 001.75 1z"/><path d="M34.88 11.51c1.82 3.28 5.71 3.67 9.07 3.18s7.3-2.16 6.61-6.2c-.22-1.29-2.18-.74-2 .53.5 2.88-3.74 3.57-5.71 3.78-2.33.24-5-.07-6.26-2.31-.63-1.14-2.38-.12-1.75 1zM23.57 60q17.77.49 35.54-.13l-1-1A6.93 6.93 0 1072 58.54l-1 1q18.24.18 36.43 1.53l-1-1a42.12 42.12 0 01-9.82 24.3 42.05 42.05 0 01-43.67 13.07A40.53 40.53 0 0133.5 84.11a41.41 41.41 0 01-9.39-25 1 1 0 00-2 0 44.13 44.13 0 0027.51 39.33c15.77 6.14 35 1.54 46.62-10.7a44.28 44.28 0 0012.14-27.68 1 1 0 00-1-1q-18.18-1.34-36.43-1.52a1 1 0 00-1 1 4.9 4.9 0 11-9.8.28 1 1 0 00-1-1q-17.76.63-35.54.14a1 1 0 000 2z"/><path d="M32.23 60.33a35.13 35.13 0 0022.15 29.16c13 4.87 28.4 1.23 37-9.79a31.07 31.07 0 006.76-20.38c-.06-1.3-2.08-1.31-2 0a29.38 29.38 0 01-19.42 28.52 32 32 0 01-34.45-9.21 33 33 0 01-8-18.3c-.12-1.29-2.15-1.3-2 0z"/><path d="M60.64 63.74q-4.17 4.68-8.47 9.26-2.09 2.2-4.2 4.36a54.67 54.67 0 00-3.79 4c-.8 1 .62 2.46 1.44 1.44a52.64 52.64 0 013.79-4c1.41-1.44 2.8-2.89 4.19-4.35q4.31-4.56 8.47-9.23c.87-1-.56-2.41-1.43-1.44zm3.8 1.32c0 8.47.07 17 .28 25.43a1 1 0 002 0c-.21-8.47-.23-17-.28-25.43a1 1 0 00-2 0zm3.56.45c6.16 5.89 12.29 11.84 18.54 17.66 1 .89 2.39-.54 1.43-1.43C81.68 75.92 75.55 70 69.38 64.07c-.94-.9-2.38.53-1.43 1.44zM15.61 31.46a1 1 0 000-2 1 1 0 000 2zm-1.8 11.27a1 1 0 000-2 1 1 0 000 2zm8.11-15.32a1 1 0 000-2 1 1 0 000 2zm-1.8 11.26a1 1 0 000-2 1 1 0 000 2zm24.33 26.14a1 1 0 000-2 1 1 0 000 2zm11.71 18.47a1 1 0 000-2 1 1 0 000 2zm19.38-19.83a1 1 0 000-2 1 1 0 000 2z"/></svg>