<svg data-name="Слой 1" viewBox="0 0 30 63" xmlns="http://www.w3.org/2000/svg"><path d="M27 14a3.06 3.06 0 00-1.05.2 3.06 3.06 0 00-1.05-.2h-20a3 3 0 00-1 .17A3 3 0 003 14a3 3 0 00-3 3v19a3 3 0 006 0V20h2v40a3 3 0 006 0V43.82a6.29 6.29 0 002 0V60a3 3 0 006 0V20h2v16a3 3 0 006 0V17a3 3 0 00-3-3zm-13 4v-2h2v2zm2 11.2a1 1 0 11-2 0v-9.5a1 1 0 012 0zM15 12c2.76 0 5-4.24 5-7a5 5 0 00-10 0c0 2.76 2.24 7 5 7z"/><path d="M27 46a2 2 0 00-2 2v9a2 2 0 004 0v-9a2 2 0 00-2-2zm-1.85-2.23a2.21 2.21 0 00.18.34 1.87 1.87 0 00.26.3A2 2 0 0027 45a1.72 1.72 0 00.39 0 1.66 1.66 0 00.38-.11 1.93 1.93 0 00.34-.19 2.16 2.16 0 00.55-.55 1.63 1.63 0 00.19-.34 1.66 1.66 0 00.11-.38 1.92 1.92 0 000-.78 1.66 1.66 0 00-.11-.38 1.63 1.63 0 00-.19-.34 1.81 1.81 0 00-.25-.3 1.42 1.42 0 00-.3-.25 2 2 0 00-.35-.19 2.26 2.26 0 00-.37-.11 2 2 0 00-.78 0 2.26 2.26 0 00-.37.11 2.37 2.37 0 00-.35.19 2.16 2.16 0 00-.55.55 1.63 1.63 0 00-.19.34 1.66 1.66 0 00-.11.38 1.92 1.92 0 000 .78 1.66 1.66 0 00.11.34z"/></svg>