<svg data-name="Слой 1" viewBox="0 0 113.17 119.9" xmlns="http://www.w3.org/2000/svg"><path d="M36.79 47.08a6 6 0 001.14-1.86c.45-1.37-.72-2.88-1.25-4.1-1.47-3.37-2.76-6.81-4-10.29a192.55 192.55 0 01-4.69-16.16c-.23-.94-.45-1.88-.66-2.83a5.24 5.24 0 00.85-2.4 6.9 6.9 0 00-.69-2l1.29-1.07a.83.83 0 00.28-1 1.69 1.69 0 00-.06-.29l-.25-.59L27.27.76a1.07 1.07 0 00-1-.76H11.73a1.07 1.07 0 00-1 .76L8.89 5.32a1 1 0 00.74 1.27l1 .85a6.9 6.9 0 00-.69 2 5.13 5.13 0 00.85 2.4A160.32 160.32 0 012 39.59c-.42 1-.85 2-1.29 2.95A4.46 4.46 0 000 44.72a4.75 4.75 0 001.24 2.36v20.7c-.3.39-.61.77-.92 1.15a1.11 1.11 0 00-.16 1.26 36.13 36.13 0 013.25 8.37 39.52 39.52 0 011.39 8.63 39.82 39.82 0 01-.91 8.91 89.82 89.82 0 01-2.26 8.9c-.74 2.47-1.25 4.74-.56 7.3a10.34 10.34 0 009.85 7.6c5.25.08 10.52 0 15.78 0a10.38 10.38 0 009-4.55 10.51 10.51 0 001.69-6.77c-.27-2.75-1.47-5.47-2.15-8.15a58.25 58.25 0 01-1.81-10.07 34.19 34.19 0 01.8-9.67 38 38 0 013.62-10.46 1.11 1.11 0 00-.16-1.26l-.93-1.15V47.08zM3.08 42.35c.4-.91.79-1.83 1.17-2.75a168.85 168.85 0 006.84-20.31c.55-2.05 1.07-4.31 1.54-6.37h7.83a.94.94 0 100-1.87h-7.68a9.92 9.92 0 00-.7-1.52c.27-.71.54-1.42.8-2.12a.79.79 0 00-.08-.68h12.58c-.12.24-.17.35-.08.58.26.71.53 1.52.8 2.23a4.55 4.55 0 00-.7 2.93q.55 2.49 1.2 5a176.52 176.52 0 006.13 19.43c.71 1.83 1.45 3.65 2.24 5.45l.55 1.23a10.08 10.08 0 01.47.9c0 .43-.57 1-.82 1.32a3.2 3.2 0 00-.42 1.25H3.33v-.34c-.1-.82-1.22-1.36-1.25-2.16-.02-.55.75-1.64 1-2.2zm30 34.53a39 39 0 00-1.36 16.31 70.91 70.91 0 001.76 8.53c.69 2.59 2 5.33 1.93 8a8.46 8.46 0 01-8.18 8.28c-5.18.08-10.37 0-15.55 0a8.56 8.56 0 01-8.16-5c-1.08-2.4-.75-4.68 0-7.11.85-2.78 1.61-5.6 2.21-8.45a45.28 45.28 0 001.15-9.57 39.53 39.53 0 00-1.29-9.17 40.71 40.71 0 00-3.28-8.88 3.72 3.72 0 001-1.54v-.44h31.41a4.48 4.48 0 001 2 39.19 39.19 0 00-2.65 7.04zM57.35 38.2c-4.92 4-6.39 12.1-3.13 19.55s10.16 11.83 16.47 11a10.31 10.31 0 00-2.75 6 13.43 13.43 0 00.54 5.63 5.4 5.4 0 001.64 2.93c1.49 1 3.1-.16 4.24-1.15 1.69-1.48 3.15-3.21 4.86-4.67s4.14-3 6.63-2.09c.94.35 1.5-.78 1.17-1.52-1.87-4.12-6.09-7.75-10.66-7.59 4.89-4.06 6.34-12.09 3.09-19.52s-10.21-11.85-16.52-11a10.28 10.28 0 002.78-6 13.27 13.27 0 00-.54-5.63 5.34 5.34 0 00-1.64-2.92c-1.49-1-3.1.15-4.23 1.14-1.7 1.48-3.15 3.21-4.87 4.68s-4.14 3-6.62 2.08c-.94-.35-1.51.78-1.17 1.52 1.87 4.1 6.11 7.75 10.71 7.56zm26.8 34.74c-3.32 0-6.27 2.76-8.55 5-1.14 1.15-2.35 2.78-3.86 3.48a2.19 2.19 0 01-.38.11s-.08 0-.18-.14A9 9 0 0170 77.48c-.39-3.46.86-7.12 4.14-8.69 3.99-1.55 7.79.86 10.01 4.15zM49.5 31.48c3.32 0 6.27-2.75 8.55-5 1.15-1.14 2.35-2.77 3.86-3.47a1.6 1.6 0 01.39-.12.37.37 0 01.17.14 9 9 0 011.2 3.94c.39 3.47-.86 7.12-4.14 8.69-4.01 1.52-7.81-.89-10.03-4.18zm62.94 72.11c-1-2-2.45-3.87-3.52-5.89-1.15-2.18-2.12-4.8-.64-7 .53-.81-.34-1.69-1.17-1.52-4.48.9-8.75 4.1-9.74 8.49-2.83-7.05-9.51-4.93-17.72-3.39s-15.17 2-15.28 9.52a10.53 10.53 0 00-4.8-3.68 13.16 13.16 0 00-5.12-.85 7 7 0 00-3.68.78c-1.54 1.06-.92 3-.22 4.33 1 2 2.45 3.87 3.52 5.89 1.15 2.18 2.11 4.79.63 7-.53.81.35 1.69 1.17 1.52 4.47-.9 8.72-4.07 9.73-8.44 2.84 7 9.51 4.89 17.71 3.34s15.19-2 15.28-9.57a10.38 10.38 0 004.83 3.73 13.3 13.3 0 005.11.85 7.05 7.05 0 003.68-.78c1.54-1.06.92-2.92.23-4.33zm-55 12.59c.72-3.3-1.32-6.83-3.07-9.61-.85-1.35-2.1-2.85-2.43-4.45v-.32c0 .06 0-.09.18-.16a9.26 9.26 0 014.5-.24c3.33.5 6.45 2.55 7.17 6 .62 4.21-2.73 7.37-6.4 8.78zm53.55-9.9a9.47 9.47 0 01-4.49.24c-3.33-.5-6.45-2.55-7.17-6-.71-4.22 2.65-7.38 6.31-8.8-.71 3.31 1.33 6.84 3.07 9.62.85 1.35 2.11 2.85 2.44 4.45v.32c0-.05-.02.1-.21.17z"/></svg>