<svg data-name="Слой 1" viewBox="0 0 83.01 91.43" xmlns="http://www.w3.org/2000/svg"><path d="M11.86 55.14a.82.82 0 00.7-1.49.82.82 0 00-.7 1.49z"/><path d="M2.63 50.28a23.62 23.62 0 012.69-8.82c1.55-2.84 3.83-5 5.81-7.54 3.81-4.84 4.55-10.89 6.29-16.61A23.24 23.24 0 0121.72 9a21.64 21.64 0 016.61-5.62c5-2.52 10.88-.14 14 4.19 3.27 4.48 4.17 10.47 3.42 15.86a25.62 25.62 0 01-2.53 8.11A36.61 36.61 0 0138 38.85a25.4 25.4 0 00-4.87 7.51 68.47 68.47 0 00-2.19 9c-1.33 5.85-4.43 11.73-9.64 15-4.62 2.88-11.07 2.91-14.77-1.48a16.85 16.85 0 01-3.16-6.67A32.84 32.84 0 012.26 54a33.36 33.36 0 01.38-4.78c.14-1-1.47-1.33-1.62-.28-.81 5.78-.38 12.17 2.1 17.5a13.31 13.31 0 005 5.85 12.37 12.37 0 008.2 1.57c6-.84 10.64-5.4 13.45-10.54A34.21 34.21 0 0033 53.47c.67-3.33 1.33-6.67 3.16-9.58s4.36-5.21 6.35-8A26.82 26.82 0 0046.45 28a26 26 0 00-.59-17.51c-2.17-5.16-6.7-9.45-12.5-9.77a12.21 12.21 0 00-7.79 2.44A26.58 26.58 0 0019 10c-3.74 5.53-4 12.34-6.51 18.38-1.38 3.28-3.72 5.67-5.94 8.37A24.75 24.75 0 001 50c-.1 1 1.52 1.34 1.62.28z"/><path d="M21.25 34.15A26.27 26.27 0 0126 12.28a20.77 20.77 0 012.55-2.83c.78-.7 2-1.6 3.14-1.39s1.51 2 2 2.92a11.14 11.14 0 002.43 3.12c1 .88 2.3 1.42 3.22 2.37s.88 2.64.77 4a33.26 33.26 0 01-2.11 8.7 18.64 18.64 0 01-4.53 7.58c-2 1.81-4.79 3.06-7.5 2.44A5.74 5.74 0 0121.36 34c0-1-1.67-.91-1.63.15a7.12 7.12 0 003.92 5.88 8.68 8.68 0 007.76 0 14.42 14.42 0 006.4-6.45 37.48 37.48 0 003.42-9.81c.59-2.78 1.33-6.67-1.09-8.78-1.22-1.06-2.68-1.71-3.76-2.94S34.89 9.39 34.08 8c-1.55-2.66-4.74-1.46-6.57.16a24.89 24.89 0 00-5.34 7A28 28 0 0019.7 34.7c.25 1 1.79.46 1.55-.55z"/><path d="M19.73 33A22.62 22.62 0 007.55 44.94C5.34 50.15 5 56.68 7.37 61.9c1.1 2.41 2.9 4.69 5.5 5.51A7.86 7.86 0 0019.78 66a19.62 19.62 0 005.32-6.27 28.53 28.53 0 003.4-9.1c.55-2.87.77-6.11-.73-8.75a9.38 9.38 0 00-3.4-3.13c-1.25-.81-3-2-2.77-3.67.11-1-1.51-1.34-1.62-.28-.27 2.5 1.65 4.12 3.56 5.35a7.84 7.84 0 012.89 2.68 8 8 0 01.83 3.4 21.6 21.6 0 01-1.51 8.26 26.29 26.29 0 01-4.27 7.63 10.32 10.32 0 01-5.35 3.82c-2.61.61-4.88-.88-6.3-3-2.95-4.36-3-10.59-1.48-15.46a20.91 20.91 0 0111.94-12.92c1-.4.42-2-.56-1.55z"/><path d="M13.14 56.77A21.1 21.1 0 0115 45.61a.82.82 0 00-1.49-.7 22.83 22.83 0 00-2 12 .82.82 0 001.64-.14zm12.32-27.29a13.68 13.68 0 012-10.47c.58-.87-.66-2-1.25-1.07A15.48 15.48 0 0023.92 30c.23 1 1.77.47 1.54-.55zm48.07-10.92c-5-3.06-11.33-.1-15.26 3.37a23 23 0 00-5.52 7.25 48.82 48.82 0 00-3 9.32 34.21 34.21 0 01-3.34 9.19c-1.72 2.9-4.16 5.31-6 8.17a30 30 0 00-4.6 16.21c0 5.56 1.74 11.58 5.88 15.49a11.24 11.24 0 007.51 3.15 13.67 13.67 0 007.8-2.46 24.91 24.91 0 006.46-6.8 30.65 30.65 0 004.36-9.25c.44-1.65.71-3.35 1.14-5a19.24 19.24 0 011.94-4.64 92.08 92.08 0 015.68-8A27.85 27.85 0 0081 46.21a37.29 37.29 0 001.4-9.58c.17-5.81-1.1-12-5.47-16.1a13.61 13.61 0 00-3.59-2.43.82.82 0 00-.7 1.49c5.32 2.47 7.67 8.28 8.06 13.82.41 5.84-.44 12.21-3.43 17.3s-7.67 9.24-9.52 15c-1 3-1.27 6.18-2.49 9.13a31.86 31.86 0 01-5 8.16c-3.39 4.09-9 7.69-14.4 5.32-5.1-2.23-7.49-8.22-8.12-13.4a28 28 0 012.64-15.46 39.45 39.45 0 014.83-7.23 27.61 27.61 0 004.6-7.88c2-5.61 2.47-11.81 5.8-16.88 2.88-4.4 8.14-8.82 13.72-8.54a7.43 7.43 0 013.52 1.1c.9.55 1.59-.94.7-1.49z"/><path d="M63.79 23.75a7.76 7.76 0 00-3.33 5 .82.82 0 001.62.28 6.05 6.05 0 012.64-3.88.82.82 0 00-.93-1.36zM58.24 33a18.51 18.51 0 00-.75 6c0 1 1.68.91 1.64-.15a17 17 0 01.73-5.63c.31-1-1.32-1.28-1.62-.28zm-1.91 9.7a13.47 13.47 0 01-1 2.21 11.74 11.74 0 01-.71 1.09l-.39.52c-.33.25-.27.35.17.32l.39 1.09v-.08a.82.82 0 00-1.49-.7v.08a.82.82 0 00.39 1.09c1 .52 1.75-.67 2.26-1.38a15.47 15.47 0 001.86-3.5c.37-1-1.11-1.69-1.49-.7zm-5.66 7.37a12.17 12.17 0 00-3.24 4.78c-.36 1 1.12 1.69 1.49.7a11.05 11.05 0 013-4.41c.78-.71-.47-1.77-1.25-1.07zM44 68.74a7.17 7.17 0 01-3.43 4c-.93.5 0 1.85.93 1.35a8.51 8.51 0 004-4.64c.35-1-1.13-1.7-1.49-.7zm27.37-42.21a13.61 13.61 0 00-3.6 4.61.82.82 0 001.48.7 11.79 11.79 0 013-3.95c.81-.68-.11-2-.93-1.36zm-5.98 9.57a26.44 26.44 0 00-.78 6.9c0 1 1.66.91 1.64-.15a24.52 24.52 0 01.75-6.47c.25-1-1.37-1.3-1.62-.28zm-2.83 10.18a9.93 9.93 0 01-2.53 5c-.73.77.52 1.84 1.24 1.07a11.47 11.47 0 002.91-5.77.82.82 0 00-1.62-.28zm-10.4 19.11l-.8 5.48a.82.82 0 001.62.28l.8-5.48a.82.82 0 00-1.62-.28zm-3.32 10.53a6.65 6.65 0 01-3.18 4.55c-.91.54 0 1.89.93 1.35a8.25 8.25 0 003.87-5.62.82.82 0 00-1.62-.28zM76.63 32.8a8.93 8.93 0 00-3.71 4.79c-.33 1 1.16 1.71 1.48.7a7.68 7.68 0 013.16-4.14c.88-.58 0-1.93-.93-1.35zM69.4 51.67a17.12 17.12 0 01-2.77 4.53.82.82 0 001.24 1.07 18.46 18.46 0 003-4.9c.4-1-1.08-1.68-1.49-.7zm-6.66 7.93a13.74 13.74 0 00-2.2 5.1c-.22 1 1.4 1.31 1.62.28A11.69 11.69 0 0164 60.67c.6-.86-.64-1.94-1.25-1.07zm-3.48 9.54a29 29 0 01-.9 5.23c-.27 1 1.35 1.3 1.62.28a29 29 0 00.9-5.23c.09-1-1.53-1.34-1.62-.28zm-2.75 9.15A20.43 20.43 0 0153 83c-.75.75.5 1.81 1.25 1.07A22 22 0 0058 79c.5-.93-1-1.63-1.49-.7zM15.73 43.42a.82.82 0 00.7-1.49.82.82 0 00-.7 1.49zM29 15.35a.82.82 0 00.7-1.49.82.82 0 00-.7 1.49zm16.74 51.29a.82.82 0 00.7-1.48.82.82 0 00-.7 1.48zm.89-7.45a.82.82 0 00.7-1.49.82.82 0 00-.7 1.49zm11.58-4.03a.82.82 0 00.7-1.48.82.82 0 00-.7 1.48zm13.91-12.81a.82.82 0 00.7-1.49.82.82 0 00-.7 1.49zm.24 3.34a.82.82 0 00.7-1.49.82.82 0 00-.7 1.49z"/></svg>