<svg data-name="Слой 1" viewBox="0 0 19.7 36.44" xmlns="http://www.w3.org/2000/svg"><path d="M10.89 34.61a2.67 2.67 0 01-2.09.83 2.85 2.85 0 01-2-.74 3.19 3.19 0 01-.8-2.43c0-2.12.94-3.18 2.81-3.18a2.66 2.66 0 012.1.82 3.41 3.41 0 01.74 2.36 3.39 3.39 0 01-.76 2.34zm8.36-23.18a9.29 9.29 0 01-1.35 2.46 33.35 33.35 0 01-3.85 3.74A14.32 14.32 0 0010.93 21a7.12 7.12 0 00-.77 3.56v.77h-3v-1.28A10.52 10.52 0 018 19.54a12.09 12.09 0 013.15-3.74 21 21 0 004-4.06A6.11 6.11 0 0016 8.46a4.59 4.59 0 00-1.54-3.69A6.62 6.62 0 0010 3.47a15 15 0 00-3.61.43 20.07 20.07 0 00-4 1.58L1 2.32A19.65 19.65 0 0110.26 0a10.14 10.14 0 017 2.2 7.85 7.85 0 012.44 6.21 9.27 9.27 0 01-.45 3.02z"/></svg>