<svg data-name="Слой 1" viewBox="0 0 110.45 92.29" xmlns="http://www.w3.org/2000/svg"><path d="M84.6 28.56c-14.69 10.88-35.66 13.84-52 5.06a110.76 110.76 0 01-13.84-9.22c-3.68-2.75-8.13-5.85-12.93-4.07a6.49 6.49 0 00-4.15 4.2c-.7 2.42-.06 5.32.5 7.72A37.55 37.55 0 008.56 45.9c7 9.5 17.5 15.47 28.52 19.1 1.31.43 1.87-1.63.57-2.06-9.6-3.17-18.86-8.15-25.5-15.93a37 37 0 01-7.21-12.76 26.63 26.63 0 01-1.39-7.33 4.53 4.53 0 013.76-4.81c4.89-1.15 9.45 3.49 13 6.12a83.66 83.66 0 0013.33 8.35 46.45 46.45 0 0022.69 4.22 54.16 54.16 0 0029.35-10.39c1.1-.81 0-2.67-1.08-1.85z"/><path d="M59.73 47.29a53 53 0 01-40.51-11.74c-1-.88-2.56.62-1.51 1.51a55 55 0 0042 12.37c1.34-.18 1.36-2.32 0-2.14z"/><path d="M88.23 18.48l-3.42-8.61c-.4-1-1.79-3.22-.66-4a18.86 18.86 0 014-2c.39-.15 1.13-.62 1.54-.55s.4.31.59.78c.12.29.22.59.33.89l1.67 4.44c.92 2.47 1.63 5.35 3.42 7.36a23.85 23.85 0 002.93 2.46 21.41 21.41 0 012.76 2.75 22.76 22.76 0 013.69 6.15 28.74 28.74 0 011.37 16C104.51 54.58 98.27 64 90.52 71.16A66.66 66.66 0 0165 85.8a70.88 70.88 0 01-29.1 2.77 65.6 65.6 0 01-14.18-3.27A35.19 35.19 0 019 78.06a19.18 19.18 0 01-4.11-5.48c-1-2-1.68-4.9-.23-6.92s4.55-2.25 6.87-2.32a62.68 62.68 0 018.87.44c5.93.63 11.83 1.61 17.82 1.41a56.39 56.39 0 0016.57-3.08 46.72 46.72 0 007.77-3.41 53.62 53.62 0 005.7-4 43.12 43.12 0 005-4.22c1.49-1.55 2.82-3.31 4.16-5 5.29-6.64 9.47-13.8 10.83-22.29a54.41 54.41 0 00.66-7.44 1.07 1.07 0 00-2.14 0 44.17 44.17 0 01-2.7 14.84 47.35 47.35 0 01-6.58 11.31 52.66 52.66 0 01-9.3 10.1 65.57 65.57 0 01-5.83 4.28 40.85 40.85 0 01-8.18 3.74 54.64 54.64 0 01-18.19 3c-6.39 0-12.68-1.3-19-1.75-4.52-.32-12-1.06-14.53 3.84C.18 69.52 3.11 74.75 6 78c3.32 3.81 7.83 6.39 12.45 8.29a63.35 63.35 0 0015 4.05 72.6 72.6 0 0030.4-2A69.43 69.43 0 0091 73.6c8.23-7.32 15-17 17.3-27.92 2.26-10.55-.3-21.95-9.16-28.68a9.37 9.37 0 01-2.85-3.09 42.7 42.7 0 01-1.79-4.6l-1.66-4.45C92.42 3.74 92.12 2 91 1.4s-2.35 0-3.38.41a33.1 33.1 0 00-3.91 1.83 3.62 3.62 0 00-2.14 2.44c-.24 1.39.64 2.89 1.13 4.14l3.5 8.83c.51 1.26 2.57.71 2.07-.57z"/><path d="M92.23 31.16a62.91 62.91 0 01-15.88 26.76 47.43 47.43 0 01-12.59 8.83C58 69.49 51.62 70.84 45.36 72c-7.31 1.35-14.88 2.21-22.2.46-1.34-.31-1.91 1.75-.57 2.07 6.66 1.59 13.51 1.14 20.22.07s13.42-2.39 19.67-5C72.6 65.46 80.8 57.75 86.62 48.57a69.89 69.89 0 007.67-16.85c.4-1.31-1.66-1.88-2.06-.56zM18.27 73a1.07 1.07 0 000-2.14 1.07 1.07 0 000 2.14zM14 34.47a1.07 1.07 0 000-2.14 1.07 1.07 0 000 2.14z"/></svg>