<svg data-name="Слой 1" viewBox="0 0 48 48" xmlns="http://www.w3.org/2000/svg"><path d="M45 1a2 2 0 012 2v42a2 2 0 01-2 2H3a2 2 0 01-2-2V3a2 2 0 012-2h42m0-1H3a3 3 0 00-3 3v42a3 3 0 003 3h42a3 3 0 003-3V3a3 3 0 00-3-3z"/><path d="M40.1 19.19h-32a9.69 9.69 0 00-1.32 0h-.11l.28.28V8.63l-.28.27H39.8a1.33 1.33 0 01.81.16c.56.35.44 1.09.44 1.65v7.5a1 1 0 01-.95 1c-.35 0-.36.57 0 .56a1.55 1.55 0 001.48-1.23 3.63 3.63 0 000-.57V10.1a2.22 2.22 0 00-.07-.68 1.53 1.53 0 00-1.41-1.07H6.67a.28.28 0 00-.27.28v10.84a.28.28 0 00.27.28h29.9c1.35 0 2.12.05 3.47 0h.06a.28.28 0 000-.56zm1.23 20.9h-32A5.56 5.56 0 017.46 40c-.57-.3-.51-.89-.51-1.42v-7.37c0-.57 0-1.2.62-1.45a4.67 4.67 0 011-.06h32.76l-.28-.27v10.94a.28.28 0 00.56 0V29.43a.29.29 0 00-.28-.28H9.13c-.69 0-1.83-.08-2.35.5a2.19 2.19 0 00-.38 1.59v7.38a2 2 0 00.5 1.64 1.66 1.66 0 001.15.39h33.28a.28.28 0 000-.56z"/><path d="M20.76 27.28l-4.56-2.71-7.31-4.35c-.56-.33-1.52-.66-2.08-1-.3-.18-.58.3-.28.48 1.53.9 3.45 1.81 5 2.71l7.31 4.34 1.68 1c.3.18.58-.3.27-.48zm20.67 1.92c-1.52-.91-2.44-1.81-4-2.71l-7.31-4.35-1.67-1c-.3-.18-.58.3-.28.48l4.57 2.71c2.44 1.45 4.28 2.9 6.71 4.34l1.67 1a.28.28 0 00.28-.48zM11.49 14.06a.86.86 0 11-.86-.86.88.88 0 01.86.86c0 .36.57.36.56 0a1.44 1.44 0 00-1.42-1.41 1.42 1.42 0 000 2.83 1.45 1.45 0 001.42-1.42c.01-.35-.54-.35-.56 0zM39 34.83a.86.86 0 11-1.72 0 .86.86 0 011.72 0c0 .36.57.36.55 0a1.42 1.42 0 10-1.41 1.42 1.43 1.43 0 001.41-1.42c-.03-.35-.55-.35-.55 0zm-28.75-4.52v1.35a.28.28 0 00.55 0v-1.35a.28.28 0 00-.55 0zm4 0v.35a.28.28 0 00.55 0v-.35a.28.28 0 00-.55 0zm4 0v1.35a.28.28 0 00.55 0v-1.35a.28.28 0 00-.55 0zm4 0v.35a.28.28 0 00.55 0v-.35a.28.28 0 00-.55 0zm4 0v1.35a.28.28 0 00.55 0v-1.35a.28.28 0 00-.55 0zm4 0v.35a.28.28 0 00.55 0v-.35a.28.28 0 00-.55 0zm4 0v1.35a.28.28 0 00.55 0v-1.35a.28.28 0 00-.55 0zm4 0v.35a.28.28 0 00.55 0v-.35a.28.28 0 00-.55 0zm-28-21v1.35a.28.28 0 00.55 0V9.31a.28.28 0 00-.55 0zm4 0v.35a.28.28 0 00.55 0v-.35a.28.28 0 00-.55 0zm4 0v1.35a.28.28 0 00.55 0V9.31a.28.28 0 00-.55 0zm4 0v.35a.28.28 0 00.55 0v-.35a.28.28 0 00-.55 0zm4 0v1.35a.28.28 0 00.55 0V9.31a.28.28 0 00-.55 0zm4 0v.35a.28.28 0 00.55 0v-.35a.28.28 0 00-.55 0zm4 0v1.35a.28.28 0 00.55 0V9.31a.28.28 0 00-.55 0zm4 0v.35a.28.28 0 00.55 0v-.35a.28.28 0 00-.55 0z"/></svg>