<svg data-name="Слой 1" viewBox="0 0 124.68 97" xmlns="http://www.w3.org/2000/svg"><path d="M67 93.41L84.57 77.9l4.22-3.74a20.07 20.07 0 002.13-2 7.72 7.72 0 001-8.41 7.94 7.94 0 00-5.24-4L74.26 56.3l.47 1.79 11.68-11.4H84.9l5.1 5.59 3.09 3.37A9.22 9.22 0 0096 58a6.81 6.81 0 007-.78c.48-.36.91-.79 1.36-1.19l6.06-5.52c3.87-3.52 7.83-7 11.63-10.58a8.45 8.45 0 10-11.77-12.11c-4 3.92-8 8-11.94 11.94h1.46L92 31.93a1.07 1.07 0 00-1.51 1.51l7.84 7.84a1.09 1.09 0 001.51 0l10.62-10.62c.46-.46.92-.94 1.39-1.39a6.31 6.31 0 118.68 9.15c-3.33 3.14-6.78 6.16-10.16 9.24l-6.46 5.88c-1.5 1.36-2.91 3-5.13 3-2.93-.06-5.09-3.42-6.88-5.38l-5.45-5.93a1.08 1.08 0 00-1.51 0L73.22 56.57a1.08 1.08 0 00.47 1.79l10.84 3c1.59.44 3.25.75 4.46 2a5.53 5.53 0 01.13 7.64c-1.75 1.85-3.85 3.45-5.76 5.14L72.53 85.7l-7 6.2c-1 .92.49 2.42 1.52 1.51z"/><path d="M57.21 88.14l13-15.21L72 70.76a1.08 1.08 0 00-.45-1.76l-17.2-4.74-2.46-.68a1.13 1.13 0 00-1.21.49l-12.81 17a16.19 16.19 0 00-1.94 2.57c0 .12.64-.39.06-.16-.42.18-.84.47-1.24.69L24 90.14 15.17 95c-1.2.67-.13 2.51 1.08 1.85L35 86.46a21.59 21.59 0 002.31-1.28 9.22 9.22 0 001.56-2l7.58-10 6.06-8.05-1.21.5 17.21 4.73L71 71l-.47-1.79-13 15.22-1.83 2.2c-.89 1 .61 2.56 1.51 1.51zM2.57 92.58l13.76-8.84 8.29-5.33c.59-.38 1.22-.72 1.78-1.14a6.42 6.42 0 001.28-1.64l5.48-8.22c.76-1.14-1.09-2.22-1.85-1.08l-4.76 7.14-1.11 1.67a2.72 2.72 0 00-.31.47c-.15.39 0-.38.28-.24-.15-.08-1.31.84-1.44.92l-17.14 11-5.33 3.45c-1.16.74-.09 2.59 1.07 1.84zm43.62-35.51H17.13a1 1 0 100 1.94h29.06a1 1 0 100-1.94zM2 49h60.72a1 1 0 100-1.94H2A1 1 0 102 49z"/><path d="M50.37 48.26L66.6 32l2.29-2.29a1.08 1.08 0 000-1.51L60.63 20a1.1 1.1 0 00-1.52 0L46.9 32.17l-2.9 2.9a10.65 10.65 0 01-2 1.71A5.58 5.58 0 0135.27 28c2-2.09 4.08-4.09 6.12-6.13a1.07 1.07 0 00-1.51-1.51c-2 2-4.11 4-6.11 6.11-4 4.21-2.25 11.54 3.58 13a7.84 7.84 0 007.33-2c.57-.55 1.13-1.13 1.69-1.69l8.1-8.1 6.16-6.15h-1.52l8.27 8.26v-1.56c-5.41 5.4-10.82 11-16.23 16.42l-2.29 2.29c-1 1 .53 2.29 1.51 1.32zm3.52-34.02H24.83a.88.88 0 100 1.74h29.06a.88.88 0 100-1.74zm-34.19 0h-5.13a.88.88 0 100 1.74h5.13a.88.88 0 100-1.74z"/><path d="M49.73 15.09c1.69-1.69 3.38-3 5.08-4.68 2-2 4-4.64 7.21-3.58 1.8.6 3.32 2.64 4.62 3.93l6.54 6.55 4.45 4.45a1.07 1.07 0 001.51-1.51l-11-11c-1.49-1.48-3-3.43-5-4.26a6.79 6.79 0 00-6.66.82 22 22 0 00-2.1 2L48.22 14c-1 1 .53 2.09 1.51 1.11zm50.85-13.28A12.9 12.9 0 0085 20.48a12.89 12.89 0 0024-6.6 13.06 13.06 0 00-8.42-12.07z"/></svg>