<svg data-name="Слой 1" viewBox="0 0 114.67 105.08" xmlns="http://www.w3.org/2000/svg"><path d="M11.7 69.13a42 42 0 0015.82 17.24.93.93 0 01-.94 1.63 43.74 43.74 0 01-16.5-17.9c-.53-1.1 1.08-2.04 1.62-.97z"/><path d="M1 64.81a9.15 9.15 0 001.33 2.67c.56 1 1.12 1.9 1.69 2.84 1.34 2.21 2.72 4.4 4.15 6.55a84.78 84.78 0 0010.04 12.94 24.68 24.68 0 005.69 4.48 12.91 12.91 0 002.48 1 1.19 1.19 0 00-.12.44c0 1.49-.09 3-.12 4.46a3.48 3.48 0 00.83 2.89 4.56 4.56 0 002.33 1.23c1 .08 2.08 0 3.09 0h38.89a16.47 16.47 0 002-.09c1.26-.17 2.85-.49 3.57-1.65a5.77 5.77 0 00.46-3.16l-.06-3.7a.76.76 0 00-.06-.26A16.56 16.56 0 0079.67 94a34.37 34.37 0 005.63-4.9 93.94 93.94 0 0010-13.35q2-3.14 3.9-6.35c.52-.88 1-1.77 1.54-2.67a4.3 4.3 0 00.89-2.92c-.3-1.78-1.73-2.35-3.25-2.45a7.69 7.69 0 00.4-8.56 8.36 8.36 0 00-8.12-3.69 9.72 9.72 0 00-15.93-9.52 11.24 11.24 0 00-3.65-5.8 6.93 6.93 0 00-1.7-1.09c.63-.65 1.26-1.3 1.88-2a.94.94 0 000-1.32l-6.68-6.68a.94.94 0 00-1.32 0l-5.67 6.16A5.05 5.05 0 0056.07 31a1.59 1.59 0 00.2 1.1 13.58 13.58 0 00-4.09 4.9 7.09 7.09 0 00-6-1.5 6.52 6.52 0 00-2.37 1.06L41.32 33 29.11 15.59 21.49 4.7A1 1 0 0020 4.52l-3.89 3.26A.94.94 0 0016 8.91l2.47 3.57 16.38 23.79L28 30.84 5.09 12.78a1 1 0 00-1.33 0l-2.7 3.32a.94.94 0 000 1.32l2.63 2.09c8.74 6.9 17.46 13.81 26.25 20.64-.08.14-.17.27-.24.41a9.94 9.94 0 00-9.85-1 9.89 9.89 0 00-5.49 8 8.66 8.66 0 00-8.24 2 8.5 8.5 0 00-2.27 8.89A6.28 6.28 0 006 61.34H3.9A3 3 0 001 64.81zm32.18-27.49a7.42 7.42 0 00-2.05 1.41q-3.33-2.59-6.65-5.2Q13.74 25.1 3 16.62l1.54-1.88 1.88 1.48zm9.22.5a7.9 7.9 0 00-.78 1.11 7.72 7.72 0 00-4.19-2.19l-2.22-3.23L18 8.61l2.5-2.07 2.16 3.09 12.21 17.44zm26.94-7.73c-1.82 1.91-3.64 3.82-5.52 5.66a.88.88 0 00-.26.54l-5.08-4.42-.14-.16c-.36-.5-.21-.67.17-1.09L60 29l4-4.33zM71.1 52.7l-6.64 1.86a1 1 0 01-1.15-.65c-.86-2.23-1.72-4.47-2.59-6.7a1 1 0 01.66-1.15 38.67 38.67 0 006.32-1.91 1 1 0 011.16.29 1 1 0 01.47.52l2.42 6.59a.94.94 0 01-.65 1.15zM86 54.46a1.5 1.5 0 010-3 1.5 1.5 0 010 3zm-56.75 48c0-.08.12 0 .21 0a1.2 1.2 0 00-.25-.01zM2.93 63.76a1.25 1.25 0 011.23-.55h91.78a.76.76 0 00.16 0h2.3a1.47 1.47 0 011 .26c.84.72 0 1.77-.4 2.49-.49.87-1 1.74-1.5 2.6a147.87 147.87 0 01-8.39 12.87c-3 4.1-6.35 8.21-10.6 11.09a11.87 11.87 0 01-4.38 1.79 23.53 23.53 0 01-4.89.25H52.77a.89.89 0 100 1.78h22.41a1 1 0 01.13-.25c0 1.29.06 2.58.07 3.87 0 1 0 1.72-1 2.07a7.33 7.33 0 01-2.13.37h-42.8c-.22-.15-.55-.27-.76-.4-1-.6-.69-1.64-.66-2.65 0-1.22.07-1.84.1-3v-.62a21.67 21.67 0 003.6.62c1.2 0 1.2-2.16 0-2.17a14.44 14.44 0 01-7.35-1.75C20.15 90 16.87 85.79 14 81.93A150 150 0 015.33 69c-.52-.86-1-1.73-1.53-2.6-.4-.74-1.34-1.83-.87-2.64z"/><path d="M48.11 94.36a.94.94 0 010 1.87.94.94 0 010-1.87zM93.72 1.51A29.31 29.31 0 0087.9.73a13.87 13.87 0 00-5.43.76 9.25 9.25 0 00-5.72 7.79A9.21 9.21 0 0081 17.6a17.09 17.09 0 005.22 1.79c1.85.44 3.83 1 5.14 2.45a.59.59 0 00.19.13c.14.23.28.46.41.69a21.59 21.59 0 004.35 6.05 10.65 10.65 0 009.08 2.46 10.22 10.22 0 007.84-6.23 12.55 12.55 0 00-1.37-10.46 26.31 26.31 0 00-7.77-8.26 30.47 30.47 0 00-10.37-4.71zm14.37 22.85a.48.48 0 01.89.38.48.48 0 01-.89-.38zm-15.44-7.25a3.54 3.54 0 011.17 1.79c.16.83-.57 1.06-1.25 1a8.15 8.15 0 01-4.39-1.77A.53.53 0 0088 18a2.23 2.23 0 01-.84-1.51c.06-.75 1-.9 1.59-.92a5.63 5.63 0 013.9 1.54zm7.16-7.84a14.66 14.66 0 015.62 4.2 15.36 15.36 0 013.8 8.33c.07.62-1.89 1.75-2 1.13a14.47 14.47 0 00-3.61-7.87 13.7 13.7 0 00-5.22-3.89c-.55-.17.82-2.12 1.41-1.9z"/></svg>