<svg data-name="Слой 1" viewBox="0 0 94.35 102.29" xmlns="http://www.w3.org/2000/svg"><path d="M74.54 52c-6.34 3.91-10.43 10.7-12.88 17.57-3 8.46-3.2 17.56-3.12 26.45v1.74c0 .31.09.94-.11 1.21-.44.6-2.76.21-3.49.2l-7.21-.1c-2.4 0-9.65 0-10.81-.14a1.48 1.48 0 01-1.4-1.58c0-.91.29-1.87.39-2.78s.2-2 .25-3a44.06 44.06 0 00-.11-5.63 45.23 45.23 0 00-2.32-11 47.7 47.7 0 00-14.46-20.81c-1-.84-2.47.61-1.45 1.46a45.63 45.63 0 0113.71 19.25A42.68 42.68 0 0134 86.11a44.21 44.21 0 01.06 6C34 93 34 94 33.83 94.92a14 14 0 00-.33 2.87c.13 1.56 1.3 3.14 2.87 3.14h21.95c2 0 2.31-1.7 2.29-3.38v-7.21a74.27 74.27 0 011.45-14.65c1.83-8.32 6-17.29 13.53-21.9 1.13-.7.09-2.48-1-1.78z"/><path d="M64.56 51.3a97 97 0 00-7.81 8.77 21.23 21.23 0 00-2.94 5.29c-1 2.37-1.86 4.8-2.64 7.25a29.89 29.89 0 00-1.46 6c-.06.59.52 1 1 1a1.06 1.06 0 001-.76 12.44 12.44 0 00.29-3.1c.17-2.36.33-4.73.49-7.09q.54-8 1.07-16L53.8 49c.09-1.32-2-1.32-2 0-.57 8.6-1.13 17.21-1.74 25.81-.06.9-.13 1.8-.2 2.7l-.06.83c0 .28-.07.26 0 .07l1-.76 1 1A27.52 27.52 0 0153.2 73c.74-2.32 1.57-4.62 2.5-6.88a19.62 19.62 0 012.76-4.94A96.17 96.17 0 0166 52.75c.94-.93-.52-2.39-1.46-1.45zm-23.78-3.69c0 4.54.19 9.07.3 13.61.12 5.16-.08 10.29-.25 15.46h2.05C42.47 66.3 35.7 57.17 28.69 50c-.93-1-2.39.51-1.46 1.45 6.6 6.74 13.21 15.41 13.6 25.21a1 1 0 002.05 0c.18-5.17.37-10.3.25-15.46-.1-4.54-.28-9.07-.29-13.61a1 1 0 00-2.06 0z"/><path d="M62 40.72a7 7 0 01-13.84 1.4 1 1 0 00-1.88-.25 8.11 8.11 0 01-8.44 4.58 8.07 8.07 0 01-6.49-7.07l-2 .27a1.72 1.72 0 01-.81 2.11 2.87 2.87 0 01-2.89-.24 6.44 6.44 0 01-2.92-4.18 7.9 7.9 0 013.22-8.4 1 1 0 00-.54-1.94c-1-.13-1.4-1.69-1.61-2.49a16.27 16.27 0 01-.52-3.51 11 11 0 011.78-6.85c2.22-3.14 7.48-4.25 10.07-1 .62.78 1.67 0 1.76-.73.52-4.69 4.7-9 9.54-9S55.65 8 54.9 12.84c-.14.92 1 1.85 1.72 1 3-3.26 9-3.21 11.58.52s.84 9.14-3.07 11a1 1 0 000 1.78A8.54 8.54 0 0170 36a8.52 8.52 0 01-7.08 6.9c-1.29.18-1.31 2.24 0 2.06A10.61 10.61 0 0072 36.54a10.59 10.59 0 00-5.83-11.19v1.78c5-2.38 6.93-9.52 3.65-14S59 8.19 55.16 12.39l1.72 1c.94-6-4.06-11.85-10.13-12S35.49 6.55 34.83 12.44l1.76-.73C33 7.23 25.88 9.06 23.09 13.38a13.76 13.76 0 00-1.76 9c.3 2.59 1 6.3 4.08 6.69l-.52-1.92a10.06 10.06 0 00-3.53 12.53c1.07 2.3 3.39 4.44 6.06 4.43 2.49 0 4.84-2.49 3.89-5-.37-1-2.13-1-2 .27a10.17 10.17 0 008 9.06 10.14 10.14 0 0010.75-5.53l-1.88-.25a9 9 0 0017.89-1.94 1 1 0 00-2.06 0z"/><path d="M62.12 46.12a10.57 10.57 0 0018.3 4.29l-1.24.16a6.92 6.92 0 008.22-11.13l-.21 1.62c4.27-2.16 7-7.28 5.52-12-1.27-4.16-6.11-6.69-10.09-4.49l1.51 1.16c1.21-4.2-1.21-8.26-4.42-10.84-3-2.38-7.56-4.5-11-1.8-1 .83.43 2.27 1.45 1.46 2.55-2 6.64.52 8.61 2.25 2.38 2.09 4.29 5.13 3.35 8.38a1 1 0 001.51 1.16c3.11-1.72 6.6.78 7.24 3.95a8.48 8.48 0 01-4.75 9 1 1 0 00-.21 1.62 4.88 4.88 0 11-5.72 7.9A1 1 0 0079 49a8.53 8.53 0 01-14.9-3.43 1 1 0 00-2 .55zm-31.05-1.46a21 21 0 01-6.84 7.23c-2.76 1.61-6.41 2.19-9.36.7-1.38-.69-2.3-2-3.72-2.62s-3-.61-4.19-1.84a5.1 5.1 0 011.06-8 1 1 0 00-.24-1.88 6.3 6.3 0 01-4.17-7.81 6.61 6.61 0 013.14-3.67c1.26-.65 3-.48 3.69-1.92a6.12 6.12 0 00.28-2.45 12.78 12.78 0 01.27-2.3 6.57 6.57 0 012.41-3.92c2.55-1.91 6.73-3.07 9.43-.86 1 .83 2.48-.61 1.46-1.45-4.7-3.86-12.9-1-14.94 4.51a13.66 13.66 0 00-.7 4.53c0 .49.11.93-.34 1.21a4.75 4.75 0 01-1 .24 7.81 7.81 0 00-2.12 1 8.37 8.37 0 00-3.9 7.51 8.54 8.54 0 006 7.4L7 38.34a7.12 7.12 0 001.77 13.11 5.7 5.7 0 012.3.84c.56.43 1 1 1.61 1.37a9.68 9.68 0 004.12 1.68 12.94 12.94 0 008.63-1.77 23.39 23.39 0 007.42-7.87c.71-1.12-1.07-2.16-1.78-1zM32 29.88a1 1 0 000-2.06 1 1 0 000 2.06zm5-10.52a1 1 0 000-2.06 1 1 0 000 2.06zm5 64.02a1 1 0 000-2.06 1 1 0 000 2.06z"/></svg>