<svg data-name="Слой 1" viewBox="0 0 90.3 90.98" xmlns="http://www.w3.org/2000/svg"><path d="M55.24.63C51.62 0 48 1.87 45.74 4.69c-2.56 3.31-3.09 7.59-3.09 11.59a.85.85 0 00.84.84 12.74 12.74 0 0010.29-4.9c2.38-3.16 3.63-7.45 2-11.21-.43-1-1.87-.13-1.44.85 1.4 3.16 0 7-2 9.57a11.12 11.12 0 01-8.8 4l.84.83c0-3.47.38-7.17 2.39-10.11 1.7-2.5 5-4.5 8.08-3.93 1.05.2 1.5-1.42.44-1.61zM34.41 8.42a9.63 9.63 0 00-4.1 6.64A16 16 0 0032 24.22c.57 1.22 1.22 2.17 2.7 1.63a7.89 7.89 0 003.11-2.18 9.47 9.47 0 002.31-7.43 11.9 11.9 0 00-4.81-7.88c-.86-.65-1.7.8-.85 1.45a9.89 9.89 0 014.06 7.29 7.61 7.61 0 01-3.42 6.69 5.92 5.92 0 01-.83.43c-.42.18-.23.14-.47-.11a6.89 6.89 0 01-1-2.21 14.54 14.54 0 01-1-4.87 8.41 8.41 0 013.43-7.17c.89-.59.06-2-.85-1.44zm-9.83 12.33c-2.6 1.61-4 4.78-4.49 7.7a15.5 15.5 0 002.36 10.36.87.87 0 001.15.3 10.19 10.19 0 006.11-8.71 11.56 11.56 0 00-4.19-9.57c-.87-.64-1.7.81-.85 1.45C27 24.06 28.18 27.53 28 30.4a8.53 8.53 0 01-5.28 7.26l1.15.3a13.75 13.75 0 01-2.19-9.06c.38-2.48 1.49-5.33 3.72-6.7.91-.56.07-2-.85-1.45zM14.32 34.63a13.14 13.14 0 00-4.32 7.1 14.21 14.21 0 001.33 9.12c.55 1.16 1.27 2.68 2.82 2.35 1.36-.29 2.33-1.64 3.12-2.68 1.74-2.32 3.08-5.39 2.78-8.34a10.76 10.76 0 00-4.72-7.68c-.9-.6-1.74.85-.85 1.45a8.74 8.74 0 013.93 7.16 11.92 11.92 0 01-3.85 8 2.29 2.29 0 01-.54.38c-.33.08-.54 0-.63-.31a3.54 3.54 0 01-.47-.88 14.56 14.56 0 01-1-2.57 11.93 11.93 0 01-.47-4.6 11.35 11.35 0 014-7.31c.84-.68-.36-1.86-1.19-1.19zm-.73 21.91l-11.32 15-1.62 2.13c-.65.86.8 1.7 1.45.85l11.32-15L15 57.39c.65-.86-.81-1.7-1.45-.85zm26.7-27.97c-.71-1.6.83-3.09 1.88-4.06a18.9 18.9 0 013.51-2.73 5.63 5.63 0 014.5-.51c1.64.46 3.23 1.15 4.82 1.74l-.58-1a12.36 12.36 0 01-5 6.65c-3 1.85-6.24.95-9.37-.14-1-.35-1.46 1.27-.45 1.62 3.57 1.23 7.24 2 10.67 0A14.1 14.1 0 0056 22.42a.85.85 0 00-.58-1 29.92 29.92 0 00-6.13-2 7.65 7.65 0 00-5.25 1.42 20.66 20.66 0 00-4.28 3.75 4.54 4.54 0 00-.95 4.87c.43 1 1.88.13 1.45-.85zm4.23 6.14a10.4 10.4 0 00-8.34-.49c-2.55.82-5.16 2.27-6.57 4.63a5.22 5.22 0 00-.79 3.58c.3 1.32 1.91 1.54 3.05 1.72a11.92 11.92 0 008.35-1.77 10.34 10.34 0 004.69-6.72c.21-1-1.4-1.5-1.62-.45A8.76 8.76 0 0139 41.15a10.21 10.21 0 01-4.18 1.43 11 11 0 01-2.15 0c-.47 0-1.86-.12-2.18-.48s0-1.28.17-1.65a5.41 5.41 0 011-1.66 9.88 9.88 0 013.34-2.3c2.7-1.27 6-1.85 8.71-.33a.84.84 0 00.84-1.45zm-9.39 13.22c-5.37-2.63-12.4-1.52-15.36 4.1a8.63 8.63 0 00-1.09 3.88c0 1.61 1.67 1.83 2.94 2.09 2.94.63 6.14.53 8.66-1.29s4-4.88 5.1-7.79c.38-1-1.23-1.44-1.62-.44-1 2.54-2.22 5.34-4.55 6.94a7.69 7.69 0 01-4.4 1.27 11.87 11.87 0 01-2.59-.27c-.48-.1-1.72-.21-1.85-.65a4.19 4.19 0 01.44-2 8.57 8.57 0 011-1.82 8.76 8.76 0 013.1-2.73 10.5 10.5 0 019.41.16c1 .47 1.82-1 .85-1.45zm53.62-34.21a23.69 23.69 0 00-7.62 2.58 9.27 9.27 0 00-3.39 4.7 14.73 14.73 0 00-.82 7.44.85.85 0 00.81.61c4.35.51 9.19-1.85 10.8-6.06a24.6 24.6 0 001.28-8.48.84.84 0 00-1.68 0 25 25 0 01-.95 7.24c-1.21 4-5.47 6.09-9.45 5.63l.81.61a12.88 12.88 0 01.88-6.69 7 7 0 013.21-3.93 25.92 25.92 0 016.56-2.05c1.06-.21.61-1.83-.44-1.62zM68 20.34a14.34 14.34 0 00-4.39 7.08 14 14 0 001.2 9c.48 1 1.1 2.74 2.58 2.33a6.76 6.76 0 001.65-.94 18.9 18.9 0 001.84-1.35 8.41 8.41 0 002.94-7.62 14.09 14.09 0 00-4.63-8.5c-.81-.71-2 .47-1.19 1.18a12.22 12.22 0 014.2 7.91 6.79 6.79 0 01-1 4.3 10.81 10.81 0 01-3.33 2.87c-.12.07-.74.57-.85.52l-.42-.94a15.52 15.52 0 01-.92-2.28 12.52 12.52 0 01-.6-4.94 12.08 12.08 0 014.16-7.44c.81-.71-.37-1.89-1.19-1.18zM87.61 33.6a10.1 10.1 0 00-9.61-.73c-3.59 1.58-5.72 5.44-6.9 9a.83.83 0 00.22.82c1.43 1.18 3.62 1.21 5.4 1.34a11.63 11.63 0 005.92-.88C86 41.54 87 37.7 88 34.44c.33-1-1.29-1.48-1.61-.45-.82 2.62-1.48 5.93-4 7.45a8.84 8.84 0 01-5 1c-.85 0-1.69-.13-2.53-.24a4.43 4.43 0 01-2.32-.65l.22.82c1-3.07 2.82-6.5 5.89-7.91a8.42 8.42 0 018.12.63c.9.59 1.74-.86.85-1.45zm-29.15.52A12.59 12.59 0 0055 48.64a7.75 7.75 0 002 3.12c1.08.76 2.43-.61 3.17-1.31a11 11 0 003.56-7.37c.07-3.36-1.83-6.37-3.62-9-.6-.89-2-.06-1.45.84 1.65 2.47 3.54 5.27 3.39 8.36a8.23 8.23 0 01-1.48 4.12 11.21 11.21 0 01-1.37 1.7 10.41 10.41 0 01-.78.71 3.5 3.5 0 01-.43.33c-.28.16-.34.21-.16.14-.36-.09-1-1.51-1.1-1.79a11.85 11.85 0 01-.73-1.96 10.85 10.85 0 01-.32-4.09 11.08 11.08 0 013.95-7.14c.82-.69-.37-1.87-1.19-1.18zM77.94 47c-2.89-.48-6-.82-8.82.12A11.5 11.5 0 0063 51.86c-.54.89-1.48 2.46-.9 3.49s2.44 1.33 3.5 1.51a11.68 11.68 0 008.33-1.65A12.14 12.14 0 0078.52 48a.83.83 0 00-1.61-.44c-.68 2.56-1.92 5.1-4.29 6.49a9.67 9.67 0 01-4.29 1.27 10.34 10.34 0 01-2.33-.08 5.38 5.38 0 01-2.12-.57c-.34-.26-.34-.07-.16-.56a7.78 7.78 0 01.42-.93 8.63 8.63 0 011.13-1.63 10.13 10.13 0 013.13-2.37c2.79-1.39 6.08-1.08 9-.58 1.06.18 1.51-1.44.45-1.62zm-29.17.12c-5.1 2.75-6.12 9.84-4.09 14.78a16.63 16.63 0 00.92 1.9c.32.55.69 1.4 1.29 1.69 1.11.54 2.7-.57 3.54-1.21a8.87 8.87 0 003.51-7c0-3.64-2.13-6.86-4-9.83-.58-.9-2-.06-1.45.85 1.73 2.7 3.82 5.7 3.77 9.11a7 7 0 01-1.32 4 7.34 7.34 0 01-1.32 1.41c-.39.32-1.41 1.16-1.95 1.11.09.21 0 .16-.13-.15l-.33-.53c-.22-.37-.42-.74-.61-1.11a14 14 0 01-.83-2.14 10.87 10.87 0 01-.36-4.64c.4-2.64 1.78-5.46 4.21-6.76 1-.51.1-2-.85-1.45zm19.84 13.72a13.93 13.93 0 00-9.24-.61 13.32 13.32 0 00-6.64 4.92c-.65.9-1.77 2.38-1.17 3.55s2.5 1.38 3.56 1.6a12 12 0 008.57-1.09c2.75-1.63 4.16-4.31 5.42-7.14.43-1-1-1.83-1.45-.84-1.16 2.59-2.38 5.14-4.95 6.61s-6 1.32-8.89.37c-.53-.18-.71-.22-.53-.79a4.74 4.74 0 01.57-1 11.2 11.2 0 011.26-1.58 11.63 11.63 0 013.43-2.51 11.87 11.87 0 019.61.1c1 .4 1.44-1.22.45-1.62zm-21.01 8.6L35.55 86.76c-.62.88.83 1.72 1.44.84L49 70.29c.62-.89-.83-1.73-1.44-.85zM34.11 90.49a.84.84 0 000-1.67.84.84 0 000 1.67z"/></svg>