<svg data-name="Слой 1" viewBox="0 0 101 91.6" xmlns="http://www.w3.org/2000/svg"><path d="M22.24 82.57c.32 1.27.65 2.54 1 3.8a12.45 12.45 0 001 3A3.59 3.59 0 0027.62 91h45.31a2.9 2.9 0 002.83-2.27c.48-2.13.7-4.36 1.07-6.52.19-1.1-1.5-1.57-1.69-.46q-.47 2.74-.91 5.51c-.15 1-.2 1.91-1.34 2-.81.06-1.64 0-2.44 0H27.86a4.5 4.5 0 01-1.37-.13c-1-.33-1.19-1.78-1.43-2.66-.39-1.45-.77-2.9-1.13-4.35-.27-1.09-2-.63-1.69.47z"/><path d="M5.77 63.59c.91 3.82 1.87 7.77 4 11.12A17.58 17.58 0 0018 81.56a20.76 20.76 0 007.65 1.21h46.56c1.77 0 3.53 0 5.3-.12 3.23-.23 6.29-.7 9-2.62a20.72 20.72 0 006.71-9.32c1.67-4.16 2.45-8.65 3.42-13l3.14-14c.29-1.32 1.42-4.07-.61-4.55a3.41 3.41 0 00-.71-.06H5.92c-1 0-2.08-.06-3.11 0a2.17 2.17 0 00-2.13 2.39 31.15 31.15 0 00.75 3.42l2.22 9.65c.7 3 1.4 6 2.12 9 .26 1.09 1.94.63 1.68-.47C6 57 4.58 50.82 3.17 44.66a19.7 19.7 0 01-.75-3.26c0-.45.16-.56.51-.61a10.43 10.43 0 011.25 0h94.35a1.41 1.41 0 01.21 0c-.29-.17 0 0-.17.16a3.5 3.5 0 00-.21.93c-.13.62-.27 1.24-.41 1.86l-3 13.67C93.21 65 91.94 75 84.49 79.24 81.56 80.92 77.87 81 74.57 81H24.88a16.07 16.07 0 01-13.58-7.2c-2.07-3.22-3-7-3.85-10.71-.26-1.09-1.95-.6-1.68.5z"/><path d="M88.74 49.89h8.47a.88.88 0 000-1.75h-8.47a.88.88 0 000 1.75zm-14.95-.01h8.89a.88.88 0 000-1.75h-8.89a.87.87 0 000 1.74zm-13.79 0h9.41a.87.87 0 000-1.74H60a.88.88 0 000 1.75zm-12-.01h5.47a.88.88 0 000-1.75H48a.87.87 0 000 1.74zm-26.16-.03h19.68a.88.88 0 000-1.75H21.84a.88.88 0 000 1.75zm-18.28-.01q6 .08 11.9 0a.88.88 0 000-1.75q-6 .06-11.9 0a.88.88 0 000 1.75zM83 74h7.2a.87.87 0 000-1.74H83A.88.88 0 0083 74zm-56.89-.08h16.73a.87.87 0 000-1.74H26.11a.87.87 0 000 1.74zm-15.54-.01h10.12a.88.88 0 000-1.75H10.57a.88.88 0 000 1.75zM7.7 39.13a10.65 10.65 0 0111.41-10A.88.88 0 0020 28a6.7 6.7 0 012.36-7.82 6.69 6.69 0 018.12.75.88.88 0 001.46-.38 4.65 4.65 0 018.28-1.95.88.88 0 001.23 0 4.54 4.54 0 016.06-.94.88.88 0 001.29-.52 4.17 4.17 0 014.08-3.64 4.13 4.13 0 013.83 3.93.89.89 0 001.11.85 5.8 5.8 0 017.12 4.27.88.88 0 001.46.38c2.54-2.05 6.67-.77 7.92 2.12a.89.89 0 001 .41 7.27 7.27 0 019.35 5.77c.07.51.66.67 1.08.61 1.89-.27 4.26.35 5.22 2.15.74 1.41.39 3.67-1.21 4.33-1 .42-.58 2.11.46 1.68a4.89 4.89 0 002.46-6.46c-1.21-2.84-4.57-3.79-7.4-3.38l1.08.61c-.7-5.16-6.62-8.71-11.51-7l1 .4c-1.74-4-7.34-5.16-10.67-2.47l1.46.38a7.57 7.57 0 00-9.27-5.49l1.11.84a5.7 5.7 0 00-11.35-.75l1.29-.53a6.28 6.28 0 00-8.18 1.21h1.16a6.32 6.32 0 00-11.19 2.72l1.46-.38a8.46 8.46 0 00-10.25-1 8.46 8.46 0 00-3.15 9.8l.84-1.11A12.4 12.4 0 006 39.13a.87.87 0 001.74 0z"/><path d="M24.73 38.81a5.6 5.6 0 018.13-5.44.88.88 0 001.28-1c-.57-2.33 2.14-4 4.1-4.19a6.26 6.26 0 015.4 2c.58.62 1.77 0 1.47-.85a3.17 3.17 0 012.24-4.07c2-.48 3.84.94 4.66 2.62a.88.88 0 001.51 0A3.48 3.48 0 0160 30.4c-.35 1.08 1.34 1.54 1.68.47A5.22 5.22 0 0052 27h1.51c-1.2-2.46-4.13-4.21-6.88-3.36a4.93 4.93 0 00-3.22 6.15l1.46-.85a8.08 8.08 0 00-7.63-2.32c-2.79.62-5.55 3.18-4.79 6.26l1.28-1a7.28 7.28 0 00-10.76 7c.07 1.12 1.82 1.12 1.75 0zm57.81-13.14l10.12-10.22c1.54-1.56 3.18-3.07 4.62-4.74a8.81 8.81 0 002.33-4.66 5.16 5.16 0 00-1.36-4.27 4.93 4.93 0 00-5-.88 12.1 12.1 0 00-4.45 3.18l-5.19 5.14-11.56 11.36c-.81.79.43 2 1.23 1.24l9-8.8C85.14 10.16 88 7.2 91 4.42c1.28-1.18 3-2.4 4.8-2a3 3 0 012.09 3.38c-.15 1.73-1.34 3.17-2.48 4.39-1.34 1.42-2.75 2.78-4.12 4.17l-10 10.09a.87.87 0 001.24 1.23zm-33.01 48.1a.88.88 0 000-1.75.88.88 0 000 1.75zm4.27-37.29a.87.87 0 000-1.74.87.87 0 000 1.74zm22.14-1.94a.88.88 0 000-1.75.88.88 0 000 1.75zm-6.21-9.32a.88.88 0 000-1.75.88.88 0 000 1.75zM19.62 36.1a.88.88 0 000-1.75.88.88 0 000 1.75zm5.05-11.27a.88.88 0 000-1.75.88.88 0 000 1.75z"/></svg>