<svg data-name="Слой 1" viewBox="0 0 54.39 102.42" xmlns="http://www.w3.org/2000/svg"><path d="M38.94 11.88c0 5.15.15 10.71 2.5 15.42 2.22 4.45 6.53 7.46 8.64 12s1.65 9.7 1.62 14.43c0 3.49.22 39.29-.1 41a5.65 5.65 0 01-3.74 4.26 11.93 11.93 0 01-3.77.29H8.66a5.79 5.79 0 01-5.92-4.7c-.28-1.71-.16-43.79 0-47.58a20 20 0 011.69-7.8 29.25 29.25 0 014.47-6.14 27.16 27.16 0 004.24-6 23.66 23.66 0 001.91-7 60.45 60.45 0 00.43-8.06 1 1 0 00-2 0c0 5.37-.1 11.28-3.09 16-2.78 4.35-7 7.53-8.62 12.62C.38 45 .73 49.88.75 54.53v36.72a13 13 0 00.65 5.43 7.45 7.45 0 004.24 3.93 11.92 11.92 0 004.4.5h35.85a7.64 7.64 0 007.24-4.67 14.29 14.29 0 00.55-5.44V48.02a24.75 24.75 0 00-1.15-7.92 20.73 20.73 0 00-3.74-6.34 59.22 59.22 0 01-5-6.22 19.23 19.23 0 01-2.42-7.22 56.53 56.53 0 01-.49-8.43 1 1 0 00-2 0z"/><path d="M21.26 49.14h29.91c1.28 0 0-1.88 0-1.88H21.26s-1.27 1.88 0 1.88zm-18.85-.07l6 .06a1 1 0 000-2l-6-.06a1 1 0 000 2zM41 1.4a13.23 13.23 0 00-2.18 0H21.64c-2.56 0-5.13-.09-7.69 0-2.4.09-3.61 2.09-3.61 4.31v5.48a1 1 0 001 1h9.1a.94.94 0 100-1.88h-8.12v-3.6c0-1.32-.19-3.44 1.62-3.58 2.21-.16 19.72-.1 26.22 0C41.75 3.16 42 4.46 42 5.81v4.43H27.39a.94.94 0 100 1.88H43a1 1 0 001-1V6.25c0-2.1-.52-4.43-3-4.85zM16.63 49.16a1 1 0 000-2 1 1 0 000 2z"/></svg>