<svg data-name="Слой 1" viewBox="0 0 102.52 81.39" xmlns="http://www.w3.org/2000/svg"><path d="M78.36 71.17c10.26-6.08 15.81-17.3 18.33-28.59a105.77 105.77 0 001.75-11.07c0-.43-.41-1.4-.81-1.4-22-.12-44.1.11-66.15 0H6.8c-1.26 0-2.55 0-3.81.13A2.29 2.29 0 00.84 31.5a5.49 5.49 0 00.2 3c.26 1.3.54 2.8.84 4.09.58 2.41 1.25 4.9 2.06 7.31a56.83 56.83 0 006.09 13 40.89 40.89 0 0010.16 10.9c.93.67 2.29 1.22 3 2.14s.47 2.46.53 3.51c.09 1.49.18 3.08.27 4.57a.82.82 0 00.8.8H77.6a.82.82 0 00.8-.8 53.84 53.84 0 00.27-9.15c-.08-1-1.7-1-1.61 0a56 56 0 01-.27 9.13c.27-.27.54-.64.81-.91H24.77c.27.27.54.64.81.91-.08-1.24-.15-2.58-.22-3.82-.1-1.73.16-4-1.05-5.41A11.45 11.45 0 0022 69.09a31.26 31.26 0 01-2.85-2.15 38.85 38.85 0 01-4.6-4.65C8.33 54.92 5.05 45.44 3 36.15c-.25-1.13-.54-2.27-.69-3.42-.1-.73.18-.86.88-.89s1.33 0 2 0c2.63 0 5.27.06 7.9.07h16.22c10.71.06 56.24-.06 68.29 0-.26-.27-.53-.14-.8-.41-1.29 11.56-4.15 23.8-12.25 32.58a31 31 0 01-7 5.7.8.8 0 00.81 1.39z"/><path d="M22.19 54.24a23 23 0 01-7.31-12.93c-.19-1-1.75-.59-1.55.43a24.43 24.43 0 007.72 13.64c.77.69 1.92-.45 1.14-1.14zm39.68-24.06a8.49 8.49 0 00-13.68-8.8c-.81.65.34 1.79 1.14 1.14a6.87 6.87 0 0111 7.24.81.81 0 001.56.42zM100.45.77l-18.91 18.3c-.74.73.4 1.87 1.14 1.15l18.91-18.31c.75-.72-.39-1.86-1.14-1.14zM27.74 31.51a9.11 9.11 0 00-4.74-12A8.8 8.8 0 0012 24a8.23 8.23 0 00.21 7c.48.93 1.87.11 1.4-.81A6.58 6.58 0 0113.8 24a7 7 0 015.51-3.31 6.63 6.63 0 016 2.62 7.48 7.48 0 011 7.42c-.43.94 1 1.76 1.4.82z"/><path d="M74.91 24.16a9.13 9.13 0 00-4.74-12 8.8 8.8 0 00-11 4.49 8.2 8.2 0 00.21 7c.48.92 1.87.11 1.4-.82a6.56 6.56 0 01.22-6.22 7 7 0 015.51-3.31 6.64 6.64 0 016 2.62 7.48 7.48 0 011 7.42c-.43.94 1 1.76 1.4.82z"/><path d="M59.54 16a8.87 8.87 0 004.64 11.65 8.58 8.58 0 0010.67-4.3 8 8 0 00-.18-6.9c-.47-.93-1.86-.11-1.39.81 2.14 4.18-1.07 8.92-5.55 9.26a6.4 6.4 0 01-5.66-2.37 7.26 7.26 0 01-1.13-7.33c.43-.94-1-1.76-1.4-.82z"/><path d="M89.07 31.51a9.11 9.11 0 00-4.73-12A8.8 8.8 0 0073.3 24a8.2 8.2 0 00.21 7c.47.93 1.87.11 1.39-.81a6.58 6.58 0 01.24-6.19 7 7 0 015.51-3.31 6.62 6.62 0 016 2.62 7.46 7.46 0 011.05 7.42c-.43.94 1 1.76 1.39.82zm-42.32 0a9.11 9.11 0 00-4.74-12A8.81 8.81 0 0031 24a8.2 8.2 0 00.22 7c.47.93 1.86.11 1.39-.81a6.6 6.6 0 01.2-6.19 7 7 0 015.51-3.31 6.63 6.63 0 016 2.62 7.48 7.48 0 011 7.42c-.43.94 1 1.76 1.4.82z"/><path d="M52.45 20.34c2.23-4.89-1.6-10.94-7.07-10.54a7.33 7.33 0 00-5.81 3.39 7 7 0 00-.24 6.81c.47.93 1.86.11 1.39-.81-1.78-3.51.92-7.43 4.66-7.73a5.35 5.35 0 014.73 2 6.1 6.1 0 011 6.12c-.43.93 1 1.76 1.39.81zm11.99 52.43a.81.81 0 000-1.61.81.81 0 000 1.61zM24.27 58.78a.81.81 0 000-1.61.81.81 0 000 1.61zm-7.89-33.92a.81.81 0 000-1.61.81.81 0 000 1.61zm4.3 2.14a.81.81 0 000-1.62.81.81 0 000 1.62zm15.42-8.95a.81.81 0 000-1.61.81.81 0 000 1.61zm20.09 0a.81.81 0 000-1.61.81.81 0 000 1.61zm11.48 5.74a.81.81 0 000-1.62.81.81 0 000 1.62zm13.99 3.59a.81.81 0 000-1.62.81.81 0 000 1.62zm-43.76-1.8a.81.81 0 000-1.61.81.81 0 000 1.61z"/><path d="M45.07 15.9a.81.81 0 000-1.62.81.81 0 000 1.62zM53 29.53a.81.81 0 000-1.62.81.81 0 000 1.62zM24.44 72.76h36.95a.81.81 0 000-1.61H24.44a.81.81 0 000 1.62z"/></svg>