<svg data-name="Слой 1" viewBox="0 0 38.36 35.19" xmlns="http://www.w3.org/2000/svg"><path d="M35.28 12.29H3.22a9.55 9.55 0 00-1.31 0h-.06l.28.28V1.73L1.85 2H35a1.42 1.42 0 01.81.15c.56.36.44 1.1.44 1.66v7.5a1 1 0 01-.95 1c-.36 0-.36.57 0 .55a1.51 1.51 0 001.47-1.22 2.73 2.73 0 000-.57V3.2a2.21 2.21 0 00-.06-.68 1.54 1.54 0 00-1.44-1.07H1.85a.29.29 0 00-.28.28v10.84a.28.28 0 00.28.27h29.9c1.35 0 2.12.05 3.47 0h.06a.28.28 0 000-.55zm1.23 20.9h-32a5.63 5.63 0 01-1.88-.11c-.56-.3-.5-.89-.5-1.43v-7.34c0-.57 0-1.2.62-1.45a4.61 4.61 0 011-.06h32.76l-.28-.27v10.94a.28.28 0 00.55 0V22.53a.28.28 0 00-.27-.28H4.31c-.69 0-1.83-.08-2.35.5a2.18 2.18 0 00-.39 1.59v7.38a2 2 0 00.5 1.64 1.68 1.68 0 001.16.38h33.28a.28.28 0 000-.55z"/><path d="M15.94 20.38l-4.57-2.72-7.31-4.34c-.55-.33-1.51-.66-2.07-1a.28.28 0 00-.28.48c1.52.9 3.45 1.81 5 2.71L14 19.86l1.67 1a.27.27 0 00.28-.47zm20.67 1.92c-1.52-.91-2.45-1.81-4-2.71l-7.31-4.35-1.67-1a.28.28 0 00-.28.48L28 17.44c2.44 1.45 4.27 2.9 6.71 4.34l1.67 1a.28.28 0 00.28-.48zM6.67 7.16a.86.86 0 11-.86-.86.87.87 0 01.86.86c0 .36.57.36.55 0a1.42 1.42 0 10-1.41 1.42 1.44 1.44 0 001.41-1.42c.02-.35-.54-.35-.55 0zm27.46 20.77a.87.87 0 11-.86-.86.87.87 0 01.86.86.28.28 0 00.55 0 1.42 1.42 0 10-1.41 1.42 1.44 1.44 0 001.41-1.42c.01-.35-.54-.35-.55 0zM5.42 23.4v1.36a.28.28 0 00.56 0V23.4a.28.28 0 00-.56 0zm4 0v.36a.28.28 0 00.56 0v-.36a.28.28 0 00-.56 0zm4 0v1.36a.28.28 0 00.56 0V23.4a.28.28 0 00-.56 0zm4 0v.36a.28.28 0 00.56 0v-.36a.28.28 0 00-.56 0zm4 0v1.36a.28.28 0 00.56 0V23.4a.28.28 0 00-.56 0zm4 0v.36a.28.28 0 00.56 0v-.36a.28.28 0 00-.56 0zm4 0v1.36a.28.28 0 00.56 0V23.4a.28.28 0 00-.56 0zm4 0v.36a.28.28 0 00.56 0v-.36a.28.28 0 00-.56 0zm-28-21v1.36a.28.28 0 00.56 0V2.4a.28.28 0 00-.56 0zm4 0v.36a.28.28 0 00.56 0V2.4a.28.28 0 00-.56 0zm4 0v1.36a.28.28 0 00.56 0V2.4a.28.28 0 00-.56 0zm4 0v.36a.28.28 0 00.56 0V2.4a.28.28 0 00-.56 0zm4 0v1.36a.28.28 0 00.56 0V2.4a.28.28 0 00-.56 0zm4 0v.36a.28.28 0 00.56 0V2.4a.28.28 0 00-.56 0zm4 0v1.36a.28.28 0 00.56 0V2.4a.28.28 0 00-.56 0zm4 0v.36a.28.28 0 00.56 0V2.4a.28.28 0 00-.56 0z"/></svg>