<svg viewBox="0 0 33.2 33.5" xmlns="http://www.w3.org/2000/svg"><path d="M31.7 3.4C31 2 29.6 1.2 28.1 1.2H6.7c-1.3-.1-2.6-.2-3.8.6C1.7 2.6 1 4 1.1 5.5c0 .3.1.6.1.9l.6 5.1c.3 2.4.5 4.8.8 7.2.2 2.2.5 4.4.8 6.7l.4 3.4c.1 1.2.7 2.3 1.8 3 .7.5 1.6.7 2.5.6h18.5c1.7 0 2.2-1.1 2.8-2.7.1-.4.2-.9.2-1.4l.5-4.6.8-7.1.8-6.9.5-4c0-.8-.1-1.6-.5-2.3zm-.4 3.8l-.6 5.7c-.3 2.4-.5 4.8-.8 7.2-.2 2.1-.5 4.1-.7 6.2l-.3 2.7c-.3 1.7-.7 2.9-2.4 2.9H8.1c-.7 0-1.4-.1-2-.4-1-.6-1.6-1.6-1.7-2.7 0-.4-.1-.8-.1-1.2l-.6-5.3c-.3-2.4-.5-4.8-.8-7.1-.4-2.2-.6-4.4-.9-6.5-.1-1.1-.2-2.1-.4-3.2-.1-1.3.5-2.6 1.6-3.3.6-.4 1.4-.6 2.1-.6h22.8c1.3 0 2.5.7 3.1 1.9.6 1.2.3 2.5.1 3.7z"/><path d="M16.8 5.9v1.2c0 .2.1.3.3.3.2 0 .3-.1.3-.3V5.9c0-.2-.1-.3-.3-.3-.1 0-.3.2-.3.3zm-2.9.9c-.3-.3-.6.1-.4.4l.9.8c.3.3.6-.1.4-.4l-.9-.8zm6.4-.1l-.9.9c-.3.3.1.6.4.4l.9-.9c.3-.2-.1-.6-.4-.4zm-7.2 2.7l-1.5-.2c-.4 0-.5.5-.1.5l1.5.2c.3.1.4-.4.1-.5zm8.2.5l1.5-.2c.4 0 .2-.6-.1-.5l-1.5.2c-.4.1-.2.6.1.5z"/><path d="M21.4 5.5c-3.6-2.4-8.5-1.3-10.9 2.3v.1c-.7 1.1-1.1 2.4-1.2 3.7-.1.5 0 1 .3 1.5.3.4.7.8 1.2 1.1 1.5.8 3.2 1.2 4.9 1.2.2 0 .3-.1.3-.3.1-.5.5-.9 1-1h.3c.5.1.9.5 1 1 0 .1.1.3.3.3 1.6-.1 3.1-.4 4.6-1 1-.3 1.8-1.2 1.9-2.3-.1-2.7-1.4-5.2-3.7-6.6zm3 6c.1.5 0 1-.2 1.4-.3.4-.7.7-1.1.9-1.4.7-2.9 1-4.4 1.1-.2-.6-.7-1.1-1.3-1.2V9.2c0-.2-.2-.3-.3-.2-.1 0-.2.1-.2.2v4.4c-.6.1-1.2.6-1.3 1.2-1.4-.1-2.7-.3-4-.8-.9-.4-1.7-1-1.7-2.1.1-4 3.4-7.3 7.4-7.2 3.7.1 6.8 3 7.1 6.8z"/></svg>