<svg data-name="Слой 1" viewBox="0 0 33.44 33.78" xmlns="http://www.w3.org/2000/svg"><path d="M31.85 3.49a4 4 0 00-3.57-2.25H6.84c-1.32 0-2.66-.12-3.82.64A4 4 0 001.24 5.6c0 .3.07.6.1.89l.58 5.07c.28 2.42.55 4.83.83 7.25.25 2.22.51 4.44.76 6.66l.39 3.45a4.08 4.08 0 001.76 3 4.35 4.35 0 002.46.65h18.49c1.71 0 2.24-1.11 2.77-2.74a6.68 6.68 0 00.23-1.35l.52-4.57.81-7.11q.39-3.45.79-6.9l.46-4a4.32 4.32 0 00-.34-2.41zm-.39 3.85c-.21 1.89-.43 3.78-.64 5.67-.28 2.4-.55 4.81-.83 7.21-.23 2.06-.47 4.11-.7 6.17-.1.9-.18 1.8-.31 2.69-.25 1.67-.69 2.89-2.37 2.91H8.23a4.06 4.06 0 01-2.05-.43 3.48 3.48 0 01-1.73-2.67c0-.4-.09-.79-.13-1.18l-.61-5.33c-.27-2.39-.54-4.77-.82-7.16-.24-2.14-.48-4.27-.73-6.41C2 7.75 1.91 6.69 1.8 5.63a3.44 3.44 0 011.5-3.27 3.73 3.73 0 012.13-.56h22.82a3.45 3.45 0 013.1 1.9c.55 1.13.25 2.44.11 3.64z"/><path d="M17 6.05V7.2a.28.28 0 00.55 0V6.05a.28.28 0 00-.55 0zm-2.94.82a.28.28 0 00-.39.39l.89.89a.28.28 0 00.44-.39zm6.37-.02l-.89.89c-.25.25.14.64.4.39l.88-.89c.26-.24-.14-.64-.39-.39zm-7.2 2.68l-1.47-.22c-.35-.06-.5.47-.15.53l1.47.23c.35.05.5-.48.15-.54zm8.22.53l1.46-.23c.35-.05.2-.59-.14-.53l-1.47.23c-.3.05-.2.58.15.53z"/><path d="M21.55 5.59a7.86 7.86 0 00-12.13 6.15 2.37 2.37 0 00.31 1.5 3.34 3.34 0 001.18 1.06 11.71 11.71 0 004.93 1.24.28.28 0 00.27-.28 1.16 1.16 0 011-1 .25.25 0 00.24 0 1.13 1.13 0 011 1c0 .14.12.29.28.28a13 13 0 004.56-1 2.91 2.91 0 001.94-2.3 7.82 7.82 0 00-3.58-6.65zm3 6a2.11 2.11 0 01-.22 1.4 2.81 2.81 0 01-1.1.92A10.88 10.88 0 0118.84 15a1.72 1.72 0 00-1.33-1.24V9.29a.28.28 0 00-.56 0v4.44A1.69 1.69 0 0015.62 15a12.08 12.08 0 01-3.94-.89c-.89-.41-1.74-1-1.71-2.08a7.3 7.3 0 0113.4-3.83 7.14 7.14 0 011.17 3.37zm-7.23 16.25l-4.92-4.28.66-.76 4.26 3.72 4.25-3.72.66.76-4.91 4.28z"/><path d="M16.83 19.95h.9v7.66h-.9z"/></svg>