<svg data-name="Слой 1" viewBox="0 0 75.87 102.15" xmlns="http://www.w3.org/2000/svg"><path d="M74.74 37.21a12.93 12.93 0 00-4.07-6.79 11.19 11.19 0 00-6.59-2.64 1.28 1.28 0 00-.19-.23 12.6 12.6 0 00-10.78-3.43 9.25 9.25 0 00-5 2.61 1 1 0 000-.25c-.54-6.55 4-11.69 8.1-16.22a1.18 1.18 0 00.17-1.37 44.3 44.3 0 01-2.68-7 1.15 1.15 0 00-1.39-.79c-10.1 3.36-15.55 12.45-18.26 22.14a8 8 0 00-5.7-.3 8.22 8.22 0 00-4.44 3.52 12.68 12.68 0 00-4.7.27c-3.37-3.36-9.07-2.73-12.6.27C1.63 31.28.83 37.91.8 44.09c-.06 14 3.44 28 8.36 41 1.22 3.23 2.28 6.76 4.79 9.25a9.36 9.36 0 008.48 2.89 1.5 1.5 0 00.34-.12A22 22 0 0034 101a27.79 27.79 0 0012.12-1.72 12 12 0 005.38-4.35A20.81 20.81 0 0066 88.41a20.33 20.33 0 004.41-7c1.17-3.19 1.27-6.63 1.39-10a182.87 182.87 0 012.36-23.57c.56-3.52 1.38-7.11.58-10.63zm-20.58-11A10.19 10.19 0 0160.94 28 10.18 10.18 0 0055 32a12.26 12.26 0 00-6.31-2.11c.76-2.17 3.31-3.43 5.47-3.64zM51.85 3.67A46.93 46.93 0 0054 9.26c-4.34 4.82-8.78 10.35-8.21 17.22a1.2 1.2 0 001.6 1 6.8 6.8 0 00-1.1 2.34 38.42 38.42 0 00-9.95 2.26c-.55-.38-1.12-.75-1.69-1.12C36.36 20.13 40.86 8 51.85 3.67zM33.48 25.43c-.34 1.43-.63 2.87-.86 4.29A27 27 0 0026.33 27a6 6 0 017.15-1.57zm38.17 23.7a182.74 182.74 0 00-2 19.79c-.16 3.38 0 6.85-.89 10.15a17.25 17.25 0 01-3.19 6.41 18.84 18.84 0 01-12.66 7.11c.27-.57.53-1.16.76-1.77a69.81 69.81 0 003.83-15.19c.2-1.42-2-2-2.17-.6A71 71 0 0152.6 87a28.87 28.87 0 01-2.4 6 1.2 1.2 0 00-.29.47 9.28 9.28 0 01-2.86 2.89c-3.08 1.91-7 2.4-10.59 2.47a20.62 20.62 0 01-10.92-2.48A13.31 13.31 0 0119 87.53c-.28-1.43-2.46-.82-2.18.6a14 14 0 003.7 7.05 8 8 0 01-5.49-3c-1.79-2-2.6-4.83-3.55-7.32a145.7 145.7 0 01-5.41-17.29 104.17 104.17 0 01-2.86-18.23c-.34-5.57-.74-11.94 2-17A10.29 10.29 0 0111.37 27a6.93 6.93 0 015.46.66c-5.8 2.88-6.72 10-7.12 15.79-.1 1.45 2.16 1.44 2.26 0 .28-4.15.65-9.1 3.74-12.24a8.13 8.13 0 013.32-2 1.39 1.39 0 00.5-.15c3.23-.85 7 0 9.9 1.51 1.12.56 2.2 1.2 3.26 1.87.5.31 1 .64 1.49 1a7 7 0 001.73 1.1 3.36 3.36 0 001.72-.38c.67-.23 1.34-.46 2-.67a32.19 32.19 0 014.11-1.06 16.59 16.59 0 013.38-.43h.1c3.81.08 7.41 1.57 9.44 5.16 3 5.41 1.58 11.85.26 17.54-.33 1.41 1.85 2 2.18.6 1.64-7.08 3.19-15.43-2-21.47l-.39-.42c2.89-4.28 9.16-4.5 12.8-1.07A10.77 10.77 0 0172.76 39c.33 3.4-.6 6.82-1.11 10.13z"/><path d="M11.66 48.27a1.16 1.16 0 00-1.13-1.13 1.14 1.14 0 00-1.13 1.13l.24 2.25a1.17 1.17 0 001.13 1.13 1.14 1.14 0 001.13-1.13zM57.2 68.69a1.16 1.16 0 00-.79.33 1.17 1.17 0 00-.33.8v.25a1.14 1.14 0 00.33.8 1.12 1.12 0 001.59 0 1.18 1.18 0 00.33-.8v-.25a1.13 1.13 0 00-1.13-1.13zM26.37 90.25a1.18 1.18 0 00-.8.33 1.2 1.2 0 00-.33.8v.5a1.18 1.18 0 00.33.8 1.13 1.13 0 001.6 0 1.18 1.18 0 00.33-.8v-.5a1.13 1.13 0 00-1.13-1.13zm4.01 3.26a1.13 1.13 0 000 2.26 1.13 1.13 0 000-2.26z"/></svg>