<svg data-name="Слой 1" viewBox="0 0 33.2 33.53" xmlns="http://www.w3.org/2000/svg"><path d="M31.72 3.36a4 4 0 00-3.57-2.24H6.71c-1.31 0-2.65-.12-3.81.64a4 4 0 00-1.78 3.71c0 .3.07.6.1.9l.58 5.07c.27 2.41.55 4.83.83 7.24Q3 22 3.39 25.35l.39 3.44a4 4 0 001.76 3 4.26 4.26 0 002.46.63h18.49c1.7 0 2.23-1.11 2.76-2.74a6.25 6.25 0 00.23-1.35l.52-4.58.81-7.11.78-6.9.46-4a4.14 4.14 0 00-.33-2.38zm-.38 3.86c-.22 1.89-.43 3.78-.65 5.67-.27 2.4-.55 4.8-.82 7.2-.23 2.06-.47 4.12-.7 6.18-.11.89-.18 1.79-.31 2.69-.25 1.66-.7 2.89-2.37 2.91H8.1a3.93 3.93 0 01-2-.44 3.46 3.46 0 01-1.73-2.67c0-.39-.09-.79-.14-1.18l-.6-5.33c-.28-2.38-.55-4.77-.82-7.15-.28-2.1-.53-4.28-.81-6.42-.12-1.06-.25-2.11-.36-3.17a3.47 3.47 0 011.53-3.28 3.86 3.86 0 012.14-.56h22.81a3.45 3.45 0 013.09 1.9c.57 1.14.27 2.43.13 3.65z"/><path d="M16.83 5.92v1.16a.28.28 0 00.56 0V5.92a.28.28 0 00-.56 0zm-2.89.83c-.26-.25-.65.14-.39.39l.88.89c.26.25.65-.14.39-.39zm6.37-.03l-.89.89c-.25.25.14.65.39.39l.89-.88c.3-.26-.14-.65-.39-.4zM13.1 9.41l-1.46-.23c-.35 0-.5.48-.15.53l1.51.23c.3.06.45-.48.1-.53zm8.22.52l1.47-.23c.35 0 .2-.58-.15-.53l-1.47.23c-.35.06-.17.6.15.53z"/><path d="M21.43 5.46a7.87 7.87 0 00-10.92 2.37 7.85 7.85 0 00-1.21 3.79 2.4 2.4 0 00.31 1.5 3.35 3.35 0 001.18 1.06 11.65 11.65 0 004.92 1.23c.16 0 .26-.14.28-.28a1.12 1.12 0 011-1 .36.36 0 00.25 0 1.14 1.14 0 011 1c0 .14.11.29.28.28a13.14 13.14 0 004.55-1 2.89 2.89 0 001.93-2.3 7.86 7.86 0 00-3.57-6.65zm3 6a2.09 2.09 0 01-.22 1.39 3 3 0 01-1.11.93 11.13 11.13 0 01-4.38 1.08 1.66 1.66 0 00-1.33-1.24V9.16a.28.28 0 00-.55 0v4.45a1.69 1.69 0 00-1.33 1.23 11.77 11.77 0 01-3.95-.84c-.89-.4-1.74-1-1.72-2.08a7.3 7.3 0 0114.58-.42zm-4.96 8.15a2.48 2.48 0 00-2 1.06 2.45 2.45 0 00-2-1.07A2.48 2.48 0 0013 22.07c0 2.73 4.5 4.92 4.5 4.92s4.5-2.2 4.5-4.91a2.46 2.46 0 00-2.53-2.47z"/></svg>