<svg data-name="Слой 1" viewBox="0 0 104.67 82" xmlns="http://www.w3.org/2000/svg"><path d="M101.22 43.51C96.47 53.47 88.44 62 79.3 68a64.07 64.07 0 01-38.69 10.6 60.82 60.82 0 01-19.73-4.3C14.47 71.71 9 67.68 5.87 61.37a20.76 20.76 0 01-2.28-9.61A12.21 12.21 0 018 43.1c5.12-4.64 12.24-6 18-9.5 6.2-3.77 10.9-9.41 15.61-14.82A94.06 94.06 0 0148.92 11a73 73 0 017.84-5.94c1.21-.84.06-2.84-1.16-2a89.12 89.12 0 00-7.29 5.4 73.41 73.41 0 00-6.93 7.07c-4.54 5.13-8.84 10.67-14.46 14.68-5.92 4.22-13.37 5.61-19.14 10a16.7 16.7 0 00-5.72 7.31c-1.25 3.48-.85 7.26.13 10.65a26.59 26.59 0 0011.66 15.21 54.57 54.57 0 0020.35 6.91 66.35 66.35 0 0041.58-7.43c11.48-6.33 21.74-16.27 27.43-28.19.64-1.33-1.35-2.5-2-1.16z"/><path d="M56 67.92a17.66 17.66 0 0010.45 9c1.41.46 2-1.76.61-2.22a15.42 15.42 0 01-9.08-8c-.64-1.33-2.63-.16-2 1.16zM25.32 47.18a10 10 0 008.14 8c1.45.23 2.07-2 .61-2.22a7.85 7.85 0 01-6.53-6.36c-.27-1.45-2.49-.83-2.22.62zm31.86-4.77c-.68 1.76.54 3.49 1.62 4.8a13.16 13.16 0 004.53 3.5c1.33.63 2.5-1.35 1.16-2a11.61 11.61 0 01-3.28-2.27c-.76-.76-2.26-2.26-1.82-3.43.54-1.38-1.69-2-2.21-.61zM54.63 4c-3 4.67-.53 9.89 1.74 14.29a60 60 0 008 11.74A61.43 61.43 0 0087.3 46.47c3.89 1.61 9.71 4.26 13.57 1.35 3.66-2.76 2.67-8.15 1.18-11.79-2-4.88-5.26-9.06-8.78-12.93a118.47 118.47 0 00-11.59-11.26 59.46 59.46 0 00-14.84-9.48c-2.67-1.13-5.76-1.9-8.6-.9a7.1 7.1 0 00-4.75 5c-.33 1.45 1.89 2.06 2.22.62a5 5 0 014.18-3.68C62.41 3 65 4 67.22 5A60.39 60.39 0 0179 12.63a112.19 112.19 0 0110.38 9.72 58.7 58.7 0 018.71 10.92c1.79 3.07 4.33 8.08 2.31 11.61-2.23 3.92-8.57.94-11.63-.26a58.87 58.87 0 01-20.54-13.84 58.22 58.22 0 01-8.47-11.16 46.1 46.1 0 01-3.31-6.68c-1-2.66-1.44-5.31.16-7.82.8-1.26-1.19-2.41-2-1.17z"/><path d="M70.89 28.23a1.15 1.15 0 000-2.3 1.15 1.15 0 000 2.3zm20.46 14.33a1.16 1.16 0 000-2.31 1.16 1.16 0 000 2.31zM65.26 15.45a1.15 1.15 0 000-2.3 1.15 1.15 0 000 2.3zM54 35.39a1.15 1.15 0 000-2.3 1.15 1.15 0 000 2.3zm-38.86 31.2a1.15 1.15 0 000-2.3 1.15 1.15 0 000 2.3z"/></svg>