<svg data-name="Слой 1" viewBox="0 0 100.92 99.9" xmlns="http://www.w3.org/2000/svg"><path d="M95.59 45.27a8.68 8.68 0 00-8.24-2A9.64 9.64 0 0072 36.3a7.44 7.44 0 00-11.93-1.62 7 7 0 00-4.52-3.45 7.13 7.13 0 00-6 1.51 13.47 13.47 0 00-4.93-5.47.94.94 0 00-1.13.14l-5.63 4.9c-.53-.61-1.07-1.22-1.61-1.82a10.54 10.54 0 00-1.74-1.85c-1.38-1-2.78 0-3.89.9a11.08 11.08 0 00-3.65 5.8 10.12 10.12 0 00-11.4-1.14A10.14 10.14 0 0011 44.86a8.36 8.36 0 00-8.12 3.69 7.8 7.8 0 001.9 10.13.93.93 0 00.53.19c.12.07.26 0 .43 0 16.21 0 32.41.07 48.61 0 8.07 0 32.25.12 36.27 0 3.24-.1 6.06-1.5 7.24-4.72a8.54 8.54 0 00-2.27-8.88zm-.32 9.79A5.72 5.72 0 0191 57c-1.79.08-3.6 0-5.39.06l-11 .08c-14.68.1-29.37 0-44.05 0H5.82a5.91 5.91 0 01-1.32-7.65 6.46 6.46 0 017.64-2.42.94.94 0 001.15-1.15 8.23 8.23 0 013.19-10.1 8.23 8.23 0 0110.38 2.12c.55.7 1.52 0 1.59-.66a9.47 9.47 0 012.77-5.8 8.17 8.17 0 011.24-1c.8-.52 1.23 0 1.76.59l2.87 3.24a1 1 0 001.32 0l5.78-5a11.49 11.49 0 014.13 5.34c.22.59 1.08 1 1.56.41a5.2 5.2 0 019.06 1.66.94.94 0 001.7.22A5.75 5.75 0 0170.79 38a1 1 0 001.56.42 7.82 7.82 0 0113.18 6.16 1 1 0 001.41.81 6.84 6.84 0 018 1.91c1.71 2.15 2.15 5.52.33 7.76z"/><path d="M37.89 31.5c-2.1-2.07-4.13-4.2-6.16-6.33v1.32l6.72-6.73h-1.32l4.61 5 1.45 1.57c.39.42.54.59.17 1.1a8.86 8.86 0 01-1.07 1.05Q39.85 30.85 37.2 33c-.94.76.39 2.07 1.32 1.33a75.49 75.49 0 005.76-5.12c.67-.65 1.56-1.37 1.35-2.42a4.86 4.86 0 00-1.51-2.14l-5.67-6.17a1 1 0 00-1.32 0l-6.72 6.73a.94.94 0 000 1.32c2 2.13 4.06 4.26 6.16 6.33.86.84 2.18-.48 1.32-1.32zm-5.51 9.21L30 47.3a1 1 0 00.65 1.15l6.64 1.86a1 1 0 001.14-.66L41 43a.94.94 0 00-.65-1.15A39.68 39.68 0 0134 39.9c-1.09-.47-2 1.13-.94 1.61a40.82 40.82 0 006.77 2.1l-.66-1.15-2.59 6.7 1.15-.65-6.63-1.87.65 1.15 2.42-6.58c.42-1.13-1.39-1.62-1.8-.5zm26.83-7.01l7.62-10.88L79.05 5.37l2.78-4-1.46.19 3.91 3.27-.15-1.13L66.5 29.26 64 32.83c-.68 1 .93 1.92 1.61.94L83.28 8.23l2.47-3.57a.94.94 0 00-.15-1.13L81.69.26a1 1 0 00-1.47.19L72.6 11.34 60.39 28.78l-2.79 4c-.69 1 .93 1.92 1.61.94z"/><path d="M67.07 34.22L95.26 12l2.68-2.12h-1.32l2.71 3.32v-1.35q-11 8.73-22.1 17.43c-2.43 1.9-4.86 3.81-7.3 5.7-1 .74.38 2.05 1.32 1.32 9-7 17.86-14 26.77-21l2.63-2.08a.94.94 0 000-1.32l-2.71-3.37a1 1 0 00-1.32 0L73.75 26.59l-8 6.31c-.94.74.39 2.06 1.33 1.32zm-18.2 55.84Q44 90 39.18 90H32.4a24.24 24.24 0 01-4.89-.25 11.19 11.19 0 01-4.38-1.5c-4.25-2.88-7.59-7-10.6-11.08a148.58 148.58 0 01-8.39-12.86c-.51-.86-1-1.73-1.5-2.6s-1.25-1.77-.4-2.49a1.5 1.5 0 011-.36h94.31a1.36 1.36 0 011.23.64c.47.82-.47 1.91-.87 2.6l-1.53 2.59a152.45 152.45 0 01-8.64 13c-2.9 3.85-6.18 8-10.41 10.48A14.36 14.36 0 0170 89.91a.94.94 0 000 1.87A16.57 16.57 0 0077.81 90a24.36 24.36 0 005.68-4.48 85.25 85.25 0 0010.09-12.9q2.15-3.24 4.15-6.55l1.69-2.84a9.27 9.27 0 001.33-2.67 3 3 0 00-2.94-3.47c-.23 0-.46.1-.69.1H67.77c-7.59 0-15.18-.1-22.76-.1H3.81c-1.69 0-3.43.48-3.77 2.47a4.33 4.33 0 00.89 2.92c.5.89 1 1.78 1.54 2.67 1.25 2.14 2.55 4.26 3.9 6.34a94.73 94.73 0 0010 13.36A34.67 34.67 0 0022 89.77a13.17 13.17 0 004.43 1.66 19.73 19.73 0 005.14.45h17.27a.94.94 0 000-1.87z"/><path d="M24.47 91.46l-.07 3.71a5.23 5.23 0 00.46 3c.73 1.17 2.32 1.49 3.57 1.65a14.88 14.88 0 002 .09h38.89c1 0 2.07.09 3.09 0a4.62 4.62 0 002.33-1.22 3.27 3.27 0 00.83-2.79c0-1.49-.08-2.88-.12-4.37a.94.94 0 00-1.87 0l.1 3.66c0 1 .29 1.85-.66 2.44a5.71 5.71 0 00-.87.49c-.22.21.27-.27.35-.08h-.19a21.46 21.46 0 00-2.66 0H29.41a7 7 0 01-2.13-.37c-1-.34-1-1-1-2 0-1.43 0-2.76.08-4.19a.94.94 0 00-1.87 0zm50.66-7.74a43.68 43.68 0 0016.5-17.9c.53-1.07-1.08-2-1.62-.94a41.93 41.93 0 01-15.82 17.23c-1 .62-.09 2.24.94 1.61zM15.75 49.64a.94.94 0 000-1.87.94.94 0 000 1.87z"/><path d="M54.6 91.87a.94.94 0 000-1.87.94.94 0 000 1.87z"/></svg>