<svg data-name="Слой 1" viewBox="0 0 99.41 71.4" xmlns="http://www.w3.org/2000/svg"><path d="M6.15 67.89c.38 1.7 1.17 2.7 2.95 2.87h79.27a11 11 0 001.28 0c1.82-.23 2.2-1.73 2.71-3.25L94 62.73l3.4-10.34c.42-1.27 1.24-2.42 1-3.78a3.1 3.1 0 00-3-2.53c-3.66-.16-7.36 0-11 0H5.24A3.12 3.12 0 002 49.36a25.64 25.64 0 00.89 3.81c.38 1.74.77 3.48 1.15 5.23.69 3.16 1.39 6.33 2.09 9.49.23 1.07 1.88.62 1.64-.45-.69-3.21-1.39-6.44-2.1-9.64-.36-1.65-.72-3.31-1.09-5-.15-.71-.31-1.42-.46-2.13a5.76 5.76 0 01-.4-1.61c.06-1.71 2.44-1.32 3.59-1.32h88.01a1.41 1.41 0 011.43 1.31c0 .61-.36.93-.55 1.51l-.76 2.29-3.32 9.92-1.56 4.68c-.22.66-.31 1.46-1.11 1.57a2.42 2.42 0 01-.47 0c-4.08.12-8.18 0-12.26 0H10a6 6 0 01-.85 0c-1-.12-1.11-.74-1.31-1.61-.29-1.04-1.94-.59-1.69.48z"/><path d="M10.93 45.75a78.13 78.13 0 01-6.52-7.1 8.27 8.27 0 01-1.7-2.75A6.67 6.67 0 013 32.2a14.24 14.24 0 014.1-6.14A49.75 49.75 0 0114 21c1.08-.7 2.17-1.41 3.3-2 1.31-.73 2.79-1.33 4.19-.49a14 14 0 012.8 2.74l3 3.35 6.37 7q3.34 3.68 6.7 7.34c1.53 1.67 4.15 4.32 2.17 6.58-.73.82.48 2 1.2 1.2 1.8-2 1.38-4.43-.11-6.52a71.57 71.57 0 00-6-6.73l-7.13-7.81c-2.29-2.51-4.48-5.2-6.93-7.55a5.33 5.33 0 00-3.42-1.7 7.68 7.68 0 00-4.08 1.31A77 77 0 008 23.08a19.89 19.89 0 00-5.72 6.29c-1.17 2.23-2 5-1.07 7.5a12.76 12.76 0 002.22 3.3c.89 1.09 1.82 2.14 2.77 3.17 1.16 1.24 2.32 2.45 3.52 3.66.79.77 2-.44 1.21-1.2z"/><path d="M9.73 21.59a5.13 5.13 0 01-1.3-3.23 5.7 5.7 0 011.46-3.61 54.38 54.38 0 015.65-6 30.91 30.91 0 016.71-5.12C23.43 3 25.07 2 26.44 2.37a4.08 4.08 0 011.69 1.28c.53.53 1 1.06 1.55 1.6 2.05 2.2 3.94 4.54 6 6.72.76.8 2-.41 1.2-1.21-2.14-2.25-4.09-4.67-6.22-6.93C29.65 2.74 28.53 1.2 27 .76s-3.1.17-4.53.83a29.69 29.69 0 00-7.79 5.61 47.92 47.92 0 00-6.56 7.1 6.59 6.59 0 00-1.38 4.32 7 7 0 001.78 4.18c.75.81 2-.4 1.21-1.21z"/><path d="M27.42 22.33a169.92 169.92 0 0112.45-13 54.94 54.94 0 016.65-5.84 4.83 4.83 0 013.75-1 6.9 6.9 0 013.17 2.18c2.41 2.51 4.72 5.14 7.07 7.71.75.82 2-.39 1.21-1.2-2.29-2.5-4.55-5-6.87-7.5-1.8-1.9-4-3.53-6.78-2.8S43 4.17 40.86 6.07q-3.66 3.33-7.12 6.86-3.9 4-7.53 8.19c-.72.83.49 2 1.21 1.21zm7.42 8.5a78.52 78.52 0 018-7.32c1.45-1.15 2.94-2.26 4.48-3.29s3.31-1.84 5.12-.69a24.63 24.63 0 014 3.73l4.24 4.26 8.47 8.54c1.49 1.5 3.11 2.94 4.46 4.57 1.08 1.32 2.05 3.45.67 4.92-.75.8.46 2 1.21 1.2a4.6 4.6 0 001-4.33 10.36 10.36 0 00-3.09-4.5q-4.89-5-9.79-9.87l-4.77-4.8a60 60 0 00-4.62-4.54 5.51 5.51 0 00-4.88-1.36c-1.89.46-3.54 1.84-5.08 3a81.28 81.28 0 00-10.65 9.31c-.76.79.45 2 1.21 1.21z"/><path d="M54.66 20a73.66 73.66 0 017.82-8.08c1.39-1.26 2.81-2.48 4.24-3.7a49.25 49.25 0 014.22-3.42 6.85 6.85 0 014.86-1.42A9 9 0 0180.37 6c1.34 1.3 2.62 2.66 3.92 4s2.71 2.6 3.93 4 2.3 2.77 2.46 4.54a3.35 3.35 0 01-1.75 3.61c-1 .45-.14 1.92.86 1.48 2.85-1.27 3.15-5.07 1.93-7.59a18.68 18.68 0 00-3.65-4.7c-1.49-1.54-3-3.06-4.5-4.59-2.68-2.76-5.78-5.84-10-5a11.81 11.81 0 00-4.91 2.61c-1.65 1.3-3.24 2.7-4.83 4.08a83.63 83.63 0 00-10.37 10.34c-.69.85.51 2.06 1.2 1.21z"/><path d="M66.19 31.34q2.3-2.36 4.55-4.74c2.39-2.53 4.62-5.56 8-6.86a6.47 6.47 0 015.49.19 16.56 16.56 0 014.39 4q2.11 2.43 4.12 4.94c.7.88 1.39 1.76 2.07 2.65a15.84 15.84 0 012 2.77c.48 1.05-1 2.48-1.58 3.25-.77 1-1.58 1.89-2.42 2.79-1.61 1.74-3.28 3.42-4.85 5.21-.72.82.48 2 1.21 1.2C90.7 45 92.38 43.32 94 41.58a25.14 25.14 0 004.3-5.46c1.06-2.18-1-4.1-2.25-5.7-1.5-2-3-3.88-4.62-5.76-2.64-3.14-5.64-7.28-10.22-7.16-4.23.11-7.3 3.18-10 6.09-2 2.21-4.13 4.38-6.23 6.54-.77.79.44 2 1.2 1.21zM9.2 57l1.27 7.28c.18 1.08 1.83.62 1.64-.46l-1.26-7.27C10.66 55.49 9 56 9.2 57zm.17-3.25a.86.86 0 000-1.71.86.86 0 000 1.71zm56.95-32.4a.86.86 0 000-1.71.86.86 0 000 1.71zM27.3 41.19a.86.86 0 000-1.71.86.86 0 000 1.71zm-9.86-14.03a.86.86 0 000-1.71.86.86 0 000 1.71zM11 34.74A.85.85 0 0011 33a.85.85 0 000 1.7zm7.2-21.62a.85.85 0 000-1.7.85.85 0 000 1.7zm7.97-3.03a.86.86 0 000-1.71.86.86 0 000 1.71zm9.48 13.65a.85.85 0 000-1.7.85.85 0 000 1.7zm12.13-12.51a.86.86 0 000-1.71.86.86 0 000 1.71zm24.28 2.27a.85.85 0 000-1.7.85.85 0 000 1.7zM50.82 29.05a.85.85 0 000-1.7.85.85 0 000 1.7zm-2.28 10.62a.85.85 0 000-1.7.85.85 0 000 1.7zm16.69-.76a.85.85 0 000-1.7.85.85 0 000 1.7z"/><path d="M75.47 31a.86.86 0 000-1.71.86.86 0 000 1.71zm6.07-4.22a.86.86 0 000-1.71.86.86 0 000 1.71zm7.2 8.72a.86.86 0 000-1.71.86.86 0 000 1.71z"/></svg>