<svg data-name="Слой 1" viewBox="0 0 31.17 35.77" xmlns="http://www.w3.org/2000/svg"><path d="M10.17 34.38l-.15-1a.3.3 0 00-.15.06s.22-.25.16-1.36A.45.45 0 0110 32h-.09l-2-.34-2.18-.39h-.11a1.67 1.67 0 01-1.17-.54 1.83 1.83 0 01-.17-1.53v-.13a2.94 2.94 0 00-.42-2.2l-.09-.14a2.91 2.91 0 01-.28-.73 2.87 2.87 0 01.25-1.71c.11-.27.22-.61.32-.95s.19-.59.28-.84h-1.7a1.72 1.72 0 01-1.19-.66c-.52-.68-.07-1.47.23-2a25.54 25.54 0 002.12-4.93 7.22 7.22 0 00.2-2.42 11.46 11.46 0 010-1.66 8.42 8.42 0 011.75-4.34A14.32 14.32 0 017.8 4.27a12.89 12.89 0 014.4-2.34 14.88 14.88 0 015.11-.51 13.76 13.76 0 019 3.83 11.34 11.34 0 012.54 4.05 19.73 19.73 0 011 3.7 11.6 11.6 0 01-2.2 8.45c-.35.49-.77 1-1.22 1.51a11.83 11.83 0 00-2.06 2.89c-.79 1.94-.47 5 .09 7.2l-1 .25c-.29-1.15-1.15-5.1-.05-7.82a12.85 12.85 0 012.23-3.18c.43-.5.84-1 1.17-1.44a10.56 10.56 0 002-7.7 17.4 17.4 0 00-.94-3.51 10.46 10.46 0 00-2.35-3.72 12.71 12.71 0 00-8.31-3.51 14.13 14.13 0 00-4.76.46 11.76 11.76 0 00-4.02 2.18 13.74 13.74 0 00-1.9 2.05A7.49 7.49 0 005 10.94a10.81 10.81 0 000 1.52 7.53 7.53 0 01-.25 2.78 26.79 26.79 0 01-2.15 5c-.19.32-.47.81-.35 1a.88.88 0 00.4.27h1.93a.85.85 0 01.68.28.85.85 0 01.07.91c-.1.27-.21.61-.31.95s-.23.72-.35 1a2 2 0 00-.21 1.09 2 2 0 00.23.47l.1.17a3.9 3.9 0 01.54 2.87v.14c-.06.28-.12.6 0 .73a1.18 1.18 0 00.54.17h.12l2.19.38L10 31a1.2 1.2 0 01.75.33A1.14 1.14 0 0111 32c.14 2-.54 2.34-.83 2.38z"/></svg>