<svg data-name="Слой 1" viewBox="0 0 100.7 87.78" xmlns="http://www.w3.org/2000/svg"><path d="M96 .07H20.48c-6.31 0-13-.16-19.35 0H.86A.88.88 0 000 .94v28.88A.76.76 0 000 30a.8.8 0 00.4.54c4.31 2.56 9 5.12 13.34 7.68l20.54 12.2L39 53.26a.87.87 0 00.88-1.5L27 44.08 6.43 31.88c-.68-.4-1.75-.8-2.42-1.2H84c3.82 0 8 .15 11.79 0H96a4.78 4.78 0 004.46-3.21 6.44 6.44 0 00.24-2.14V5.3c0-2.8-1.7-5.14-4.7-5.23zM9.9 1.91h2v7h-2zm5.45 15.27a4.16 4.16 0 110-.42.53.53 0 010 .22.66.66 0 010 .2zM21.9 5.91h-2v-4h2zm10 3h-2v-7h2zm10-3h-2v-4h2zm10 3h-2v-7h2zm10-3h-2v-4h2zm10 3h-2v-7h2zm10-3h-2v-4h2zm10 3h-2v-7h2z"/><path d="M100.67 57.76a.78.78 0 00-.4-.54c-4.31-2.57-9-5.13-13.34-7.69l-20.54-12.2-4.72-2.8a.87.87 0 00-.88 1.47l12.95 7.69L94.27 55.9c.68.4 1.75.8 2.42 1.2h-80c-3.82 0-8-.15-11.79 0h-.2a4.8 4.8 0 00-4.46 3.21A6.47 6.47 0 000 62.45v20c0 2.79 1.75 5.13 4.7 5.22h75.52c6.31 0 13 .16 19.35 0h.27a.88.88 0 00.86-.86V58a.64.64 0 00-.03-.24zM10.9 65.91h-2v-7h2zm10-3h-2v-4h2zm10 3h-2v-7h2zm10-3h-2v-4h2zm10 3h-2v-7h2zm10-3h-2v-4h2zm28-4h2v7h-2zm-18 7h-2v-7h2zm10-3h-2v-4h2zm8.51 14a4.13 4.13 0 01-4-3.85.57.57 0 010-.23.67.67 0 010-.2 4.07 4.07 0 114.06 4.28z"/></svg>