<svg data-name="Слой 1" viewBox="0 0 88.47 102.23" xmlns="http://www.w3.org/2000/svg"><path d="M49.88 41.27c1.63 3.35 1.09 7.14.51 10.68s-1.21 6.87-.67 10.33a17 17 0 0029 9.19 25.81 25.81 0 005.24-8.86A52.54 52.54 0 0086.77 52a57.18 57.18 0 00-.62-21.46 49.72 49.72 0 00-8.68-19.44c-4.18-5.47-10.12-9.61-17.15-9.97-6.74-.34-12.8 3.6-16.46 9.08a20 20 0 00-2.31 17.51C43.08 32.23 46 36 48.88 39.63a20.07 20.07 0 011.23 1.68c.62 1 2.2.08 1.58-.92a45.38 45.38 0 00-2.8-3.66 42.67 42.67 0 01-3.7-5.37c-2.7-4.77-3.74-10.19-2-15.5 1.8-5.68 6.73-11 12.6-12.47C62.27 1.71 69 4.71 73.56 9.33s7.73 11 9.68 17.31a55.3 55.3 0 012.31 20.09c-.46 6.62-2 13.63-5.28 19.46A16.48 16.48 0 0173.65 73a15.82 15.82 0 01-8.8 1.73A15.26 15.26 0 0152 64.08c-2-6.46 1.41-12.87.69-19.38a13.07 13.07 0 00-1.25-4.36c-.51-1.05-2.09-.13-1.58.93z"/><path d="M52.32 50.68c.93 2.2 3 4.69 5.61 3.39 2.5-1.22 3.39-4.76 3.51-7.29a11.65 11.65 0 00-2.7-8.23c-1.94-2.12-4.85-1.93-6.1.76a14.51 14.51 0 00-1 4.93A15 15 0 0052.2 50c.35 1.12 2.12.64 1.76-.48a15.18 15.18 0 01.11-8.88c.4-1.23 1.33-2.33 2.66-1.45A6.8 6.8 0 0159 42.53a10.56 10.56 0 01-.23 7.89c-.46 1-1.41 2.54-2.74 2.1-1.1-.37-1.7-1.79-2.12-2.76s-2-.15-1.57.92zm25.41-14.89c.18-4.39-1.29-8.9-3.2-12.79a28.94 28.94 0 00-11.68-12.61c-1-.57-2 1-.92 1.58a27.28 27.28 0 0111 12 25.55 25.55 0 013 11.87c0 1.17 1.78 1.17 1.82 0zM38.2 60.19c.17 6 4.79 10.23 7.87 15A16.27 16.27 0 0149 83.62a15.77 15.77 0 01-2.36 8.8 15.39 15.39 0 01-15.74 6.65 20.77 20.77 0 01-9.07-4.83 51.51 51.51 0 01-6.88-7 54 54 0 01-12-36.66c.42-6.71 2.65-13.56 8-17.93a15.38 15.38 0 018.29-3.52 19.46 19.46 0 019.62 1.82 18.36 18.36 0 0110.54 14c.66 4.49-.23 8.89-1 13.28-.13.7-.25 1.41-.31 2.12-.09 1.17 1.74 1.16 1.83 0 .14-1.76.62-3.5.92-5.23a38.26 38.26 0 00.65-7.55 20.41 20.41 0 00-7.91-16c-5.29-4-12.91-5.76-19.18-3.14S3.78 37.18 2.11 43.75c-1.76 6.92-1.33 14.42.2 21.34a56.72 56.72 0 008.17 19.14 56.14 56.14 0 006.48 8A35.7 35.7 0 0025.51 99 17.43 17.43 0 0044 97.83a17.18 17.18 0 006.49-17c-1.23-6.46-6.7-10.51-9.37-16.25A11.06 11.06 0 0140 60.19a.92.92 0 00-1.83 0z"/><path d="M39.6 69.23a3.75 3.75 0 01-.39 2.64c-.8.93-2.2 0-2.91-.61a8.74 8.74 0 01-2.94-5.5 5.87 5.87 0 01.25-2.94c.57-1.35 1.72-.88 2.53 0a12.81 12.81 0 013.34 6.33c.21 1.15 2 .66 1.76-.49a13.18 13.18 0 00-2.09-4.92c-.89-1.31-2-2.94-3.54-3.47-3.5-1.18-4.36 3.31-4.05 5.76a10 10 0 004.91 7.56 3.31 3.31 0 004-.41 5.15 5.15 0 00.92-3.93c-.09-1.17-1.92-1.18-1.83 0zm-25.19-1.81a25.5 25.5 0 01-2.86-11.89 27.21 27.21 0 014.23-15.68c.64-1-.94-1.9-1.58-.92a29 29 0 00-4.48 16.6 27.37 27.37 0 003.12 12.81.91.91 0 001.57-.92zm1.74 6.45a.91.91 0 000-1.82.91.91 0 000 1.82zm41.42-63.34a.92.92 0 000-1.83.92.92 0 000 1.83z"/></svg>