<svg data-name="Слой 1" viewBox="0 0 48 48" xmlns="http://www.w3.org/2000/svg"><path d="M45 1a2 2 0 012 2v42a2 2 0 01-2 2H3a2 2 0 01-2-2V3a2 2 0 012-2h42m0-1H3a3 3 0 00-3 3v42a3 3 0 003 3h42a3 3 0 003-3V3a3 3 0 00-3-3z"/><path d="M24.16 28.9a8.5 8.5 0 118.5-8.5 8.51 8.51 0 01-8.5 8.5zm0-16a7.5 7.5 0 107.5 7.5 7.52 7.52 0 00-7.5-7.5z"/><path d="M24.16 22.4a2 2 0 112-2 2 2 0 01-2 2zm0-3a1 1 0 101 1 1 1 0 00-1-1z"/><path d="M18.06 40.45l-.15-1c-.11 0-.15.05-.15.06s.22-.25.15-1.37a.53.53 0 000-.12h-.09l-2-.34-2.18-.38h-.11a1.71 1.71 0 01-1.17-.55 1.81 1.81 0 01-.18-1.52v-.13a3 3 0 00-.43-2.2l-.09-.15a2.22 2.22 0 01-.09-2.44c.11-.27.21-.61.32-.95s.18-.58.28-.84h-1.7a1.7 1.7 0 01-1.2-.66c-.52-.67-.06-1.47.24-2A26.22 26.22 0 0011.69 21a7.18 7.18 0 00.19-2.41 11.43 11.43 0 010-1.66 8.53 8.53 0 011.73-4.35 14.83 14.83 0 012.06-2.21A12.75 12.75 0 0120.09 8a14.85 14.85 0 015.1-.51 13.79 13.79 0 019 3.83 11.61 11.61 0 012.56 4.06 19.33 19.33 0 011 3.7 11.58 11.58 0 01-2.2 8.44c-.35.49-.78 1-1.23 1.51a11.63 11.63 0 00-2 2.9c-.79 1.94-.47 5 .09 7.2l-1 .24c-.29-1.15-1.15-5.1-.05-7.82a12.5 12.5 0 012.22-3.17c.44-.51.85-1 1.18-1.44a10.58 10.58 0 002-7.71 19 19 0 00-.94-3.51A10.55 10.55 0 0033.45 12a12.78 12.78 0 00-8.31-3.51 13.93 13.93 0 00-4.77.51 12.09 12.09 0 00-4.06 2.17 14.23 14.23 0 00-1.89 2A7.5 7.5 0 0012.89 17a11 11 0 000 1.53 8 8 0 01-.25 2.77 25.63 25.63 0 01-2.16 5c-.18.33-.46.81-.35 1a.8.8 0 00.41.27h1.94a.81.81 0 01.67.28.83.83 0 01.08.91c-.1.28-.21.62-.32.95s-.22.73-.34 1a2 2 0 00-.21 1.09 2 2 0 00.23.46l.1.17a3.93 3.93 0 01.54 2.88v.14c-.06.28-.12.59 0 .72s.32.14.53.17h.12l2.19.38 1.89.34a1.15 1.15 0 01.75.32 1.16 1.16 0 01.25.73c.04 1.98-.61 2.3-.9 2.34z"/><path d="M29.49 20.9l-4.5-.04-1.87-.88-2.32-2.32.7-.71 2.26 2.26 1.54.69h4.19v1z"/></svg>