<svg data-name="Слой 1" viewBox="0 0 113.46 71.15" xmlns="http://www.w3.org/2000/svg"><path d="M8.46 36.48a13.53 13.53 0 01-5.9-.48l.55 1.37c3-5.88 8-10.39 13.16-14.32 5.48-4.15 11.4-8 18-10a47.27 47.27 0 0120.56-1 59.57 59.57 0 0118 5.79 58.58 58.58 0 0116.9 13 .94.94 0 001.31 0 61.11 61.11 0 0120-10.28l-.9-1.55c-3.91 4.59-5.47 10.65-5.27 16.6.22 7 2.77 13.7 5.43 20.12l1.36-1.05q-5.85-3.34-11.91-6.31c-2-1-4-1.92-6-2.83-1.81-.81-3.32-1-5 .26s-3.26 2.67-5 3.85a60.91 60.91 0 01-5.37 3.11A103.38 103.38 0 0166.46 58a53.2 53.2 0 01-26.71 2.42 60 60 0 01-20.53-6.92A39.2 39.2 0 013 36.88c-.52-1.08-2.12-.14-1.6.94C7.68 50.75 21.27 58.38 34.86 61.4c8.55 1.9 17.59 2.34 26.14.25a73.42 73.42 0 0012.49-4.53 78.19 78.19 0 0011.16-5.89c1-.64 1.94-1.32 2.86-2a32.86 32.86 0 012.7-2.23c1.2-.75 2.33 0 3.47.51s2.37 1.1 3.54 1.66c4.59 2.19 9.09 4.56 13.51 7.07.63.37 1.69-.26 1.36-1-4.44-10.7-9.19-24.85-.64-34.91a.93.93 0 00-.9-1.55 63.24 63.24 0 00-20.84 10.73H91a60.72 60.72 0 00-33.86-18.94 52.41 52.41 0 00-20.84.06c-7 1.58-13.35 5.28-19.12 9.46C11.05 24.54 5 29.6 1.51 36.45a.94.94 0 00.55 1.37 15.9 15.9 0 006.94.45c1.18-.18.68-2-.49-1.79z"/><path d="M46.93 10.88c4.79-4.05 10.16-8.2 16.74-8.2S76.48 6.41 82 9.8V8.2l-11.24 7.11c-1 .64-.08 2.25.94 1.61L83 9.8a.94.94 0 000-1.6C77 4.57 70.49.68 63.31.82 56.36 1 50.7 5.26 45.62 9.57c-.91.77.41 2.08 1.31 1.31zm1.01 52.71c4 5.42 11.37 7.08 17.78 6.69a29.45 29.45 0 0018.14-7.67.93.93 0 00-.41-1.55 49.11 49.11 0 01-11.19-4.57.93.93 0 00-.94 1.61A51.49 51.49 0 0083 62.85l-.41-1.55a27.44 27.44 0 01-16.5 7.1c-5.75.41-12.86-.81-16.51-5.75-.7-.95-2.32 0-1.6.94zM30.29 14.36a30.66 30.66 0 0111.25 15.87A30.08 30.08 0 0140.61 50a30.3 30.3 0 01-6.31 9.79c-.83.86.49 2.18 1.32 1.31a32.81 32.81 0 008.91-19.49 31.84 31.84 0 00-5.12-20.32 32.43 32.43 0 00-8.18-8.58c-1-.7-1.9.91-.94 1.61zM16.79 27a4.15 4.15 0 00-2.4 5 3.83 3.83 0 004.83 2.42 3.79 3.79 0 002.46-4.95 3.9 3.9 0 00-2-2.29c-.69-.32-2.17-.65-2.86-.19-1 .67-.05 2.28.94 1.61-.28 0-.29.05 0 .05l.39.05a3.21 3.21 0 01.62.1 2 2 0 011.12 1.2 2 2 0 11-3.73 1.43 2.29 2.29 0 011.12-2.63c1.11-.41.63-2.21-.49-1.79z"/><path d="M21 47a21 21 0 0011.48 5.32c1.13.15 1.11-1.46.25-1.82l-1-.44c-1.11-.46-1.59 1.34-.5 1.79l1 .44.25-1.83a18.9 18.9 0 01-10.17-4.77c-.88-.81-2.2.5-1.31 1.31zm24-25.33a42.69 42.69 0 0129.11 10.21c.9.78 2.22-.53 1.32-1.31A44.64 44.64 0 0045 19.81c-1.19 0-1.2 1.9 0 1.86zm33.91 12.27a.93.93 0 000-1.86.93.93 0 000 1.86zM17.78 45.5a.93.93 0 000-1.86.93.93 0 000 1.86z"/></svg>