<svg data-name="Слой 1" viewBox="0 0 109.7 93.46" xmlns="http://www.w3.org/2000/svg"><path d="M23.22 33.85a14.49 14.49 0 004.14.76 10.56 10.56 0 004.29-.47c2.38-.88 4.4-3.62 2.73-6a.44.44 0 01-.08-.17c-1.27-1.71-3.82-2.58-5.83-2.73A10 10 0 0021.12 28c-2.12 2.15-.24 5 2.1 5.85z"/><path d="M88.69 10.72c0-.86-.12-1.73-.21-2.59a6.78 6.78 0 00.11-1.44c-.17-4.12-4.22-6.34-7.9-6.63-4.44-.36-9 1-13.26 2.15-4.65 1.25-9.22 2.37-14.07 2.36s-9.44-.46-14.19-.15a69.33 69.33 0 00-13.86 2.32c-7.72 2.12-16.38 5.46-21 12.42A20.41 20.41 0 001 30.61a.7.7 0 000 .14c.13 4.09.13 8.2.63 12.27a23.61 23.61 0 001.25 5.64 19.76 19.76 0 002.74 4.53c4.89 6.51 13.53 9.08 21.32 9.68 5 .38 10.35.34 15.06-1.42a34.33 34.33 0 0011.85-8.11 29.91 29.91 0 004.35-5.55c1.27-2 2.56-4.07 3.85-6.09a29.94 29.94 0 014.78-6 44.55 44.55 0 015.78-4.44c2-1.37 4.16-2.65 6.26-3.95a51.65 51.65 0 006-4.06 9.88 9.88 0 003.36-6.31 33 33 0 00.46-6.22zm-19.84 4.44a1.5 1.5 0 010 3 1.5 1.5 0 010-3zM42.52 21.1a1.5 1.5 0 010 3 1.5 1.5 0 010-3zm.89 7.53a1.5 1.5 0 010 3 1.5 1.5 0 010-3zm-25.56-2.21a14.43 14.43 0 0111.64-4.2c3.28.42 7.29 2 8.83 5.15a.84.84 0 01.08.3 6.36 6.36 0 01-.22 5.33 8.6 8.6 0 01-5.06 4.07 16.59 16.59 0 01-6.94.49 15.8 15.8 0 01-6.26-1.64c-3.43-1.92-5.05-6.42-2.07-9.5zm69.23-13.35c-.19 2.38-.28 5.1-1.6 7.17s-3.48 3.21-5.39 4.44-4 2.48-6 3.74c-3.85 2.43-7.83 5.06-10.72 8.63s-5.12 8.05-7.83 12a29.23 29.23 0 01-4.65 5 34 34 0 01-5.69 4.23 23.14 23.14 0 01-6.39 2.57 36.61 36.61 0 01-8 .67 37.07 37.07 0 01-12.72-1.87c-3.21-1.15-6.3-2.42-8.87-4.74A22.9 22.9 0 015 49.4 15.18 15.18 0 013.33 44a52.42 52.42 0 01-.49-4.67 22.86 22.86 0 001 2.11 26.85 26.85 0 0019 13c8.33 1.42 17.68-.31 24.24-5.87 3.47-3 6.21-6.71 9.07-10.24 1.5-1.85 3-3.68 4.49-5.55l.44-.58a.76.76 0 00.29-.3c0-.09.1-.18.15-.27a25.5 25.5 0 001.79-2.72 28.73 28.73 0 016.31-5.62c3.73-2.56 7.65-4.88 11.48-7.29 2-1.29 4.47-2.8 6-4.82.03.6.03 1.24-.02 1.89zm21.36 33.99a11.05 11.05 0 00-3.08-5.89 15.13 15.13 0 00-6.93-3.61 23.83 23.83 0 00-15.72 1.72A30.76 30.76 0 0071 49.21c-3 4.09-4.85 8.78-7.3 13.16a29 29 0 01-4.28 6.08 19.46 19.46 0 01-6.72 4.44c-1.24.51-2.51 1-3.79 1.4a6.25 6.25 0 00-8.72-.79 6.18 6.18 0 00-.59 8.74 6.42 6.42 0 004.15 2.06 6.21 6.21 0 003.56 7.79 6.12 6.12 0 008.07-4.35 6.33 6.33 0 00-.91-4.82c4.39-2.33 8-6.17 12.89-7.41 5.22-1.31 10.67 0 16-.56a29.84 29.84 0 0022.38-14.71c2.19-3.93 3.57-8.65 2.7-13.18zM63.86 71.33l-.2.61c-.15.45-.29.9-.44 1.35-.33 1-.65 2-1 2.93a.51.51 0 000 .24c-2 1.17-3.81 2.59-5.72 3.87a28.93 28.93 0 01-3.22 1.9.58.58 0 00-.08.91 5.2 5.2 0 01.85 5 4.94 4.94 0 01-8.66 1 5.18 5.18 0 01-.27-5.14.59.59 0 00-.54-.86 5 5 0 01-5-6.87 4.91 4.91 0 013.81-3 5.23 5.23 0 014.81 2 .58.58 0 00.72.19.66.66 0 00.27 0 37.39 37.39 0 007.43-3.21 19.18 19.18 0 002.55-1.93 14.81 14.81 0 002.47.59c.19 0 1.63.2 2.3.21zm14.86-22c-1.82-.23-1.48-3.19.34-3s1.48 3.26-.34 3.03zm19.53-3.72a9 9 0 00-7.41-2.35 19.4 19.4 0 00-8.08 3.31c-.6.38-1.39-1.52-.78-1.91 2.69-1.71 5.61-3.26 8.79-3.57a10 10 0 018 2.59c.56.54 0 2.47-.52 1.96z"/><path d="M42.35 77.54a.58.58 0 00-.25 1.14.58.58 0 00.25-1.14z"/></svg>