<svg data-name="Слой 1" viewBox="0 0 102.11 81.75" xmlns="http://www.w3.org/2000/svg"><path d="M54.31 7.53c-3.76 3.66-7.92 6.86-11.84 10.35S35.23 25 31.35 28.22a63.77 63.77 0 01-12.6 8c-4.18 2.1-8.43 4.24-11.84 7.51a17.82 17.82 0 00-5.76 10.83c-.41 4.24 1.38 8.29 3.92 11.58A42.34 42.34 0 0015 75a32.35 32.35 0 0013.35 5.13 80.53 80.53 0 0015.13.63 72.14 72.14 0 0015.62-2 56.28 56.28 0 0021.63-11.25 59.55 59.55 0 0015.44-19.57c4.08-8.33 6.47-18.13 3.56-27.22A28.22 28.22 0 0059.65 4a28.23 28.23 0 00-5.28 3.52c-1 .87.46 2.35 1.49 1.49a26.81 26.81 0 0122.87-5.4 26.52 26.52 0 0117.54 14.12c4.06 8.17 2.93 17.46-.36 25.68A57.08 57.08 0 0182.5 63.12a55.06 55.06 0 01-19.67 12.29c-8.92 3.16-18.64 3.67-28 3.27A39.3 39.3 0 0121.06 76a39 39 0 01-11-7.55c-2.97-2.75-5.68-6.1-6.58-10.12S4.05 50.19 6.67 47c5.81-7 15.33-9.25 22.54-14.46a96.05 96.05 0 0010.33-9c3.46-3.4 7.15-6.54 10.85-9.66 1.85-1.57 3.67-3.17 5.41-4.86 1-.94-.52-2.43-1.49-1.49z"/><path d="M25.63 48.52a6.69 6.69 0 004.93 8c1.31.3 1.88-1.73.56-2a4.58 4.58 0 01-3.47-5.41c.31-1.31-1.71-1.87-2-.56zm28.3-2.93a7 7 0 006.15 7.95c1.35.13 1.34-2 0-2.1A4.81 4.81 0 0156 46.15c.2-1.32-1.82-1.89-2-.56zm11.66-30.68a9 9 0 005.6 6.6c1.25.51 1.8-1.52.56-2a6.92 6.92 0 01-4.14-5.14c-.26-1.32-2.29-.76-2 .56zM89.77 35a13 13 0 008.07 5.51c1.32.28 1.88-1.74.56-2a11 11 0 01-6.82-4.55c-.75-1.11-2.57-.06-1.81 1.06zM55 68a11.55 11.55 0 0010 7.86c1.35.12 1.34-2 0-2.1a9.35 9.35 0 01-8-6.33c-.42-1.28-2.45-.73-2 .55zm-32 4.22a1.05 1.05 0 000-2.1 1.05 1.05 0 000 2.1zM41.15 34.9a1.05 1.05 0 000-2.1 1.05 1.05 0 000 2.1zM65 56.38a1.05 1.05 0 000-2.1 1.05 1.05 0 000 2.1z"/></svg>