<svg data-name="Слой 1" viewBox="0 0 85.76 86.33" xmlns="http://www.w3.org/2000/svg"><path d="M85.09 70.28c-.11-1.08-1.2-1.86-1.91-2.57l-5.3-5.4L67 51.23l-5.58-5.69L58.89 43a7 7 0 00-2.51-1.92c-2-.74-3.74 1-5.73 1a5.86 5.86 0 01-5-2.49 6 6 0 01-.49-5.74 5.32 5.32 0 00.84-2.79 4.34 4.34 0 00-1.55-2.51Q33.38 17.39 22.22 6.31L16.83.93a.89.89 0 00-1.47.34.82.82 0 00-.58.27 50.55 50.55 0 00-13.1 45 50.49 50.49 0 0027.76 34.75c14.22 6.57 31.34 5.59 45-1.92a46.81 46.81 0 009.43-6.82 2.85 2.85 0 001.22-2.27zm-43-41.59c.66.66 2.1 1.66 2.15 2.66s-.86 2-1.11 2.92a7.62 7.62 0 00-.24 2.37c-5.12 0-10.24 0-15.35.06a.91.91 0 000 1.81c5.22 0 10.44-.08 15.66-.06a7.86 7.86 0 001.8 3.14.78.78 0 00-.57.27l-2.78 3c-.79.85.49 2.13 1.28 1.28l2.78-3a.85.85 0 00.23-.73 7.7 7.7 0 001.34.78l.31.12q.2 6.88.41 13.78c0 1.16 1.84 1.17 1.8 0l-.39-13.3a7.66 7.66 0 002.9-.12c.92-.22 1.76-.84 2.7-1 1.2-.18 2.15 1.1 2.89 1.86q5.18 5.25 10.33 10.51l7.59 7.72a37.44 37.44 0 01-25.55 9.91c-.11-3.83-.23-7.67-.34-11.51a.91.91 0 00-1.81 0c.11 3.82.23 7.64.34 11.46a34.93 34.93 0 01-14-3.68 38 38 0 01-15.29-14.22 35.52 35.52 0 01-5-16.17h2.65a.91.91 0 000-1.81h-2.68c0-1.06 0-2.11.1-3.17a37.31 37.31 0 0110-22.69l12.58 12.57zm40.73 42.38a35.1 35.1 0 01-4.46 3.69 49.15 49.15 0 01-42.93 6.93C21.3 77.21 9.77 65.55 5 51.58-.15 36.73 2.85 19.77 12.23 7.26a46.11 46.11 0 013.83-4.45.1.1 0 000-.05L23 9.61C12.09 21.05 9.14 38.89 16.21 53.08c6.91 13.86 21.87 22.64 37.36 21.32a39.27 39.27 0 0023.5-10.34l1.62 1.66 2.52 2.55 1.25 1.28a4.31 4.31 0 01.56.57c.35.53.14.6-.2.95z"/><path d="M27.33 62.76l12.53-13.39c.79-.85-.48-2.13-1.28-1.28L26.05 61.48c-.8.85.48 2.13 1.28 1.28zm-4.16-26.04a.91.91 0 000 1.81.91.91 0 000-1.81z"/></svg>