<svg data-name="Слой 1" viewBox="0 0 104.89 104.9" xmlns="http://www.w3.org/2000/svg"><path d="M104 22.91a.93.93 0 000-1.85.93.93 0 000 1.85zM7.86 14.83a.93.93 0 000-1.85.93.93 0 000 1.85zM17 9.85V18a.93.93 0 001.86 0V9.85a.93.93 0 00-1.86 0zm12 0V18a.93.93 0 001.86 0V9.85a.93.93 0 00-1.86 0zm12 0V18a.93.93 0 001.86 0V9.85a.93.93 0 00-1.86 0zm12 0V18a.93.93 0 001.86 0V9.85a.93.93 0 00-1.86 0zm12 0V18a.93.93 0 001.86 0V9.85a.93.93 0 00-1.86 0zm12 0V18a.93.93 0 001.86 0V9.85a.93.93 0 00-1.86 0zm12 0V18a.93.93 0 001.86 0V9.85a.93.93 0 00-1.86 0z"/><path d="M103 13H15.11c-1.2 0-2.12-.08-3.32 0h-.15a.93.93 0 000 1.85h88.55c1.19 0 2.42.08 3.61 0h.2a.94.94 0 00.93-.93V6.49c0-1.89-.13-3.81-1.67-5.18A5.4 5.4 0 0099.6 0H7a8.63 8.63 0 00-4.37.64C.38 1.87 0 4.08 0 6.35v92.93c0 3 1.9 5.52 5.08 5.61h94.76a5.13 5.13 0 005.05-5V25.8a.93.93 0 00-1.85 0v64.05A3.25 3.25 0 0199.79 93c-3.44.1-6.9 0-10.35 0H16.2c-3.67 0-7.36.09-11 0a3.26 3.26 0 01-3.31-3.19V6.71c0-1.75-.11-3.62 1.82-4.53a8.56 8.56 0 013.5-.31h92.18a4 4 0 012.06.43c1.74 1 1.58 3 1.58 4.7zM5.09 94.87h94.75a5.22 5.22 0 003.16-1.21v6.14a3.25 3.25 0 01-3.22 3.2c-3.44.1-6.9 0-10.35 0H16.19c-3.67 0-7.36.09-11 0a3.26 3.26 0 01-3.31-3.19v-6.16a5 5 0 003.21 1.22z"/><path d="M103 28.72V94.8a3.25 3.25 0 01-3.22 3.2c-3.44.1-6.9 0-10.35 0H16.19c-3.67 0-7.36.09-11 0a3.26 3.26 0 01-3.31-3.19V46.43C1.85 38 0 25.41 0 32.58v61.7c0 3 1.9 5.52 5.08 5.61h94.76a5.13 5.13 0 005.05-5V28.72a.93.93 0 00-1.85 0z"/><path d="M68.54 40.35A6.88 6.88 0 0062 44.3q-2.05 4-2 12.69t2 12.72a7.37 7.37 0 0013.13 0q2-4.05 2-12.67t-2-12.63a6.87 6.87 0 00-6.59-4.06z"/><path d="M95.72 25.07H9a2.06 2.06 0 00-2.06 2.06L7 85.78a2.06 2.06 0 002.06 2.06h86.76a2.06 2.06 0 002.06-2.06l-.1-58.65a2.06 2.06 0 00-2.06-2.06zM45.3 74.43q-4 3.07-11.28 3.08A32.62 32.62 0 0128.2 77a19.92 19.92 0 01-4.4-1.34 1.24 1.24 0 01-.73-1.12V72.9a1.21 1.21 0 011.68-1.12A26.66 26.66 0 0028.61 73a24.93 24.93 0 005.57.67q10.38 0 10.38-8.13 0-7.29-11.45-7.28h-2.72A1.22 1.22 0 0129.17 57v-1.46a1.22 1.22 0 011.22-1.22h2.78a12 12 0 007.42-2.07 6.8 6.8 0 002.74-5.73 5.64 5.64 0 00-2-4.6 8.29 8.29 0 00-5.47-1.67 16.64 16.64 0 00-5 .71 20.59 20.59 0 00-4.38 2 1.2 1.2 0 01-1.6-.31L24 41.51a1.23 1.23 0 01.29-1.75A19.74 19.74 0 0129 37.47a20.58 20.58 0 016.77-1.11q5.84 0 9.07 2.67A9 9 0 0148 46.35a9.13 9.13 0 01-2.15 6.27 10.79 10.79 0 01-6.09 3.26v.22q4.81.6 7.14 3.07a9 9 0 012.33 6.46q.04 5.72-3.93 8.8zm33.25-2q-3.27 5.11-10 5.12a11 11 0 01-9.82-5.24Q55.35 67 55.35 56.89q0-10.45 3.26-15.52t9.93-5.07a11 11 0 019.9 5.29q3.39 5.28 3.38 15.3 0 10.38-3.27 15.5z"/></svg>