<svg data-name="Слой 1" viewBox="0 0 48 48" xmlns="http://www.w3.org/2000/svg"><path d="M45 1a2 2 0 012 2v42a2 2 0 01-2 2H3a2 2 0 01-2-2V3a2 2 0 012-2h42m0-1H3a3 3 0 00-3 3v42a3 3 0 003 3h42a3 3 0 003-3V3a3 3 0 00-3-3z"/><path d="M39 10.54a4 4 0 00-3.57-2.25H14c-1.31 0-2.66-.12-3.82.64a4 4 0 00-1.77 3.72c0 .3.06.6.1.89l.58 5.07c.27 2.42.55 4.83.82 7.25q.39 3.33.76 6.66c.13 1.15.26 2.3.4 3.45a4 4 0 001.76 3 4.32 4.32 0 002.45.65H33.8c1.7 0 2.23-1.11 2.76-2.74a6.68 6.68 0 00.23-1.35l.52-4.57.81-7.11q.41-3.45.79-6.9l.46-4a4.32 4.32 0 00-.37-2.41zm-.38 3.85q-.33 2.84-.65 5.67c-.28 2.4-.55 4.81-.82 7.21-.24 2.06-.47 4.11-.71 6.17-.1.9-.17 1.8-.31 2.69-.21 1.67-.66 2.87-2.33 2.87H15.41a4 4 0 01-2-.43 3.45 3.45 0 01-1.73-2.67c-.05-.4-.09-.79-.14-1.18l-.61-5.33-.81-7.16c-.25-2.14-.49-4.27-.73-6.41-.17-1.02-.29-2.08-.39-3.14a3.44 3.44 0 011.5-3.27 3.76 3.76 0 012.14-.56h22.79a3.43 3.43 0 013.09 1.9c.57 1.13.26 2.44.13 3.64z"/><path d="M24.14 13.1v1.15a.28.28 0 00.55 0V13.1a.28.28 0 00-.55 0zm-2.9.82a.28.28 0 00-.39.39l.89.89a.28.28 0 00.39-.39zm6.38-.02l-.89.89a.28.28 0 00.39.39l.89-.89a.28.28 0 00-.39-.39zm-7.21 2.68l-1.47-.22c-.35-.06-.5.47-.14.53l1.46.23c.35.05.5-.48.15-.54zm8.22.53l1.47-.23c.35-.05.2-.59-.15-.53l-1.47.23c-.35.05-.2.58.15.53z"/><path d="M28.73 12.64a7.84 7.84 0 00-12.12 6.15 2.43 2.43 0 00.3 1.5 3.37 3.37 0 001.19 1.06 11.63 11.63 0 004.9 1.24c.16 0 .26-.14.28-.28a1.14 1.14 0 011-1 .28.28 0 00.25 0 1.14 1.14 0 011 1 .28.28 0 00.27.28 13 13 0 004.56-1 2.91 2.91 0 001.94-2.3 7.82 7.82 0 00-3.57-6.65zm3 6A2.17 2.17 0 0131.5 20a2.81 2.81 0 01-1.1.92A10.84 10.84 0 0126 22a1.72 1.72 0 00-1.33-1.24v-4.42a.28.28 0 00-.55 0v4.44A1.69 1.69 0 0022.8 22a12.14 12.14 0 01-3.94-.89c-.88-.41-1.73-1-1.71-2.08a7.3 7.3 0 0114.58-.43z"/></svg>