<svg data-name="Слой 1" viewBox="0 0 100.99 103.82" xmlns="http://www.w3.org/2000/svg"><path d="M82.29 16.49a15.52 15.52 0 014.43-7.33 9.14 9.14 0 013.47-2.64c1.2-.35 3.35-.18 3.63 1.31.32 1.69-1.09 3.25-2 4.65a27 27 0 01-3.66 5.11 4.26 4.26 0 01-3.93 1.26c-1.16-.25-2.18-1.08-1.95-2.36s-1.53-1.63-1.74-.48c-.6 3.28 2.62 5.14 5.57 4.65s4.81-3.49 6.37-5.88c.77-1.17 1.53-2.34 2.24-3.55a5.17 5.17 0 00.93-3c-.16-4-5.11-4.47-7.8-2.51-3.3 2.43-6.42 6.28-7.3 10.28-.24 1.14 1.45 1.62 1.74.49z"/><path d="M81.93 14.32c-1.5-.65-3.61-1.68-3-3.68.54-1.76 2.38-3.39 3.71-4.6s3.08-2.43 4.92-2.33a1.75 1.75 0 011.09.29c.31.3.3.82.48 1.2a1.7 1.7 0 001.58 1.15c1.15-.09 1.16-1.89 0-1.8.19 0 0-.32-.07-.54a3.65 3.65 0 00-.28-.74 2.74 2.74 0 00-1-1A4.24 4.24 0 0086.7 2a11.21 11.21 0 00-6.14 3.59C79 7.09 77 9.11 77 11.46s2.11 3.6 4 4.42c1 .46 2-1.09.91-1.56zm4.74 5.92c1.23 1.67 2.9 3.49 5.19 3.11s3.76-2.73 4.93-4.51c1.37-2.08 2.56-4.54 2.32-7.1a4.25 4.25 0 00-1-2.48A2.6 2.6 0 0097 8.51a4.18 4.18 0 00-.79-.11c-.24 0-.53-.11-.51 0-.17-1.14-1.91-.65-1.74.48a1.62 1.62 0 001.28 1.21c.85.25 1.51-.07 1.92.89.76 1.77-.2 4.06-1.06 5.6a13.83 13.83 0 01-3.41 4.49c-1.8 1.32-3.36-.33-4.41-1.75-.68-.92-2.24 0-1.56.91z"/><path d="M78.43 8.63c-8.54-1.5-15.81 4.18-21.06 10.26-2.83 3.27-5.37 6.73-8.37 9.92a124.42 124.42 0 01-9.2 9c-6.53 5.81-13.52 11.07-20.46 16.37C13 59.05 5.9 63.89 3.14 71.75a23.06 23.06 0 003.05 21.07 23.26 23.26 0 0018.25 9.09c8 0 14.84-4.62 20.5-9.9 6.56-6.13 12.64-12.86 18.6-19.57q9.21-10.36 17.73-21.31c5.08-6.54 11.14-13.57 11.84-22.19a19.9 19.9 0 00-.57-6.43.9.9 0 00-1.74.49c2.2 8.55-2.59 16-7.54 22.6q-8 10.57-16.65 20.6T48.9 85.53C43.58 91 37.87 97 30.35 99.24a21.27 21.27 0 01-19.45-4 20.94 20.94 0 01-2.63-29 50.79 50.79 0 018.78-8c6.48-5 13.07-9.85 19.36-15.09A129.76 129.76 0 0054 25.82c5-6.11 10.1-13.24 18.22-15.22a14 14 0 015.78-.23c1.14.2 1.63-1.54.48-1.74z"/><path d="M72.73 18.57A46.13 46.13 0 0062.27 28c-1.63 2-3.08 4.16-4.73 6.16-4.16 5-8.54 9.91-13.15 14.53a42.73 42.73 0 01-6.39 5.7c-1 .64-.06 2.2.91 1.56a39.61 39.61 0 005.66-4.85c2.42-2.37 4.74-4.83 7-7.33A134.25 134.25 0 0062 31.28a44.14 44.14 0 0111.6-11.16c1-.64.06-2.2-.91-1.55zM32.66 57.8C23.91 64.16 13.1 69.29 8.51 79.71c-.46 1.05 1.09 2 1.56.91 4.45-10.13 15-15.08 23.5-21.27.92-.67 0-2.24-.91-1.55zM7.06 87.84a16.19 16.19 0 004.51 5.8c.89.73 2.17-.54 1.27-1.27a15.19 15.19 0 01-4.23-5.44c-.48-1.05-2-.14-1.55.91zm12.15 6.56c7.53.62 14-4.06 19-9.18C43.77 79.49 48.94 73.29 54 67.08q4.27-5.26 8.36-10.7c.7-.93-.87-1.83-1.56-.91q-7 9.36-14.69 18.24c-2.45 2.86-4.94 5.68-7.5 8.45a44.2 44.2 0 01-8.06 7.21 18.15 18.15 0 01-11.34 3.23c-1.16-.09-1.15 1.71 0 1.8zm51.7-46.84c5.49-5.18 10.7-10.79 13.83-17.75l-1.64-.69-.08.37c-.24 1.14 1.49 1.62 1.73.48l.08-.37c.2-.94-1.2-1.68-1.64-.7-3.08 6.83-8.19 12.3-13.56 17.38-.84.8.44 2.07 1.28 1.28zM67 49.12c-.49.44-.91 1-1.4 1.4a.92.92 0 000 1.28.93.93 0 001.28 0c.49-.45.91-1 1.4-1.41a.91.91 0 000-1.27.93.93 0 00-1.28 0zM15.41 95.91h.2a.91.91 0 00.64-1.54 1 1 0 00-.64-.27h-.2a.91.91 0 00-.64 1.54 1 1 0 00.64.27zm2.78-7.86v-.06a.92.92 0 00.09-.69.93.93 0 00-.41-.54 1 1 0 00-.7-.09 1 1 0 00-.54.41l-.07.12 1.55.91v-.06a.9.9 0 00-.32-1.23.91.91 0 00-.7-.09 1 1 0 00-.54.41v.06a.93.93 0 00-.1.69.91.91 0 00.42.54.88.88 0 00.69.09 1 1 0 00.54-.41l.08-.12-1.56-.91v.06a.9.9 0 00.38 1.24.93.93 0 00.69.09 1.07 1.07 0 00.54-.42zm66.7-70.63v-1.8h-.08a1 1 0 00-.64.26.94.94 0 00-.26.64.9.9 0 00.9.9.91.91 0 00.64-1.54 1 1 0 00-.64-.26v1.8h.08a.9.9 0 00.63-1.54.92.92 0 00-.63-.26.94.94 0 00-.64.26.9.9 0 00-.26.64.88.88 0 00.26.63.91.91 0 00.64.27z"/></svg>