<svg data-name="Слой 1" viewBox="0 0 115.38 114.95" xmlns="http://www.w3.org/2000/svg"><path d="M38.76 53c-.54-1.24 1.29-2.36 1.84-1.1a53 53 0 0030.86 28.72c1.29.45.78 2.53-.52 2.08A55 55 0 0138.76 53z"/><path d="M17.05 9.37C8.9 17 4 27.73 2 38.54a69.46 69.46 0 001.23 30.95 72.86 72.86 0 0013.9 27.11 64.41 64.41 0 0011.17 10.78c4 3 8.54 5.54 13.51 6.43 4.28.77 10.27.59 12.86-3.56 2.91-4.68-1.57-10.72-4.17-14.44-2.76-4-5.9-7.64-8.71-11.57 7.73 5.76 16.58 9.93 26.26 10.85a37.71 37.71 0 0015-1.53c2.34-.75 5.16-1.69 6.88-3.53a6.52 6.52 0 001.47-5.72c-.94-5-5.89-7.26-10.13-9a111.6 111.6 0 01-15-7.1c-16-9.56-24.17-29.08-22.38-47.27a.74.74 0 000-.21 42.39 42.39 0 016.76-6.08 1.17 1.17 0 00.6.07l9.38-1.53C62 13 63.7 13 64.77 12a3.6 3.6 0 001-3.09 32.62 32.62 0 00-.43-4.3C65.15 3.55 65 2.15 64 1.53s-2.81-.05-4 .17l-4.67.85a43.85 43.85 0 01-4.83.81 9.4 9.4 0 01-4.1-.86C36.06-1.6 24.94 2 17.05 9.37zm21.45 69.5a1.43 1.43 0 00-.22-.15 54.44 54.44 0 01-5.79-15.52 40.75 40.75 0 01-1-8.94 64.66 64.66 0 01.67-7.2 52.51 52.51 0 013.93-13.18 49.13 49.13 0 015.47-10.27 54.28 54.28 0 006.33 27.86 46.52 46.52 0 0015.27 17.28 83.24 83.24 0 0014 7.15c4.1 1.73 10.42 3.27 11.94 8a4.53 4.53 0 01-2.2 5.7 26.75 26.75 0 01-7 2.57 37.11 37.11 0 01-14.66.36c-10.07-1.66-19.1-7.04-26.74-13.66zm3.18 20.68a1.07 1.07 0 01-1.83 1.09 1.07 1.07 0 011.83-1.09zM38 15.72a63 63 0 00-14.86 27.36A47.41 47.41 0 0022 58.42c.62 6.37 2.72 12.52 4.94 18.48 2.6 7 5.74 13.91 11 19.29 1 1-.72 2.53-1.68 1.55-4.78-4.91-7.92-11-10.44-17.31S21 67.68 20 61c-1.62-10.83.79-21.83 5.69-31.53a69.05 69.05 0 0110.53-15.23c.92-1.02 2.66.46 1.78 1.48z"/><path d="M76.91 83.46a1.07 1.07 0 01-1.84 1.1 1.07 1.07 0 011.84-1.1zM97.88 15a9.25 9.25 0 00-4.64 5.28 14.44 14.44 0 00-.31-2.72 8 8 0 00-2.52-3.89c-2.82-2.48-6.61-3-10.2-3.48-.38 0-.63.4-.55.72.9 3.43 1.68 7.16 4.5 9.58A10.67 10.67 0 0092.55 23c.07.19.14.37.23.56.24.53 1.06.24 1.06-.29A8.13 8.13 0 0198.45 16c.66-.33.09-1.31-.57-1zM92 18.68c.15 1.09.14 2.18.32 3.24h-.07a9.47 9.47 0 01-7.56-2.47c-2.24-2.08-3-5.13-3.72-8 3.17.42 6.53 1 8.92 3.31A6.77 6.77 0 0192 18.68zm21.85 15a12.11 12.11 0 00-7.94-8.27 12.29 12.29 0 00-6.5.33 29.71 29.71 0 01-7.48 1.13c-2.58 0-4.94-.87-7.46-1.26a11 11 0 00-6.23.74 13.23 13.23 0 00-7.41 9.72 19 19 0 000 6.81 41.18 41.18 0 001.87 7.24 21.21 21.21 0 003.3 5.94 23.4 23.4 0 004.69 4.79 6.9 6.9 0 005.7 1c2-.45 4-1.47 6.09-1.6 2.37-.15 4.44 1.35 6.73 1.74a7.44 7.44 0 005.39-1 .59.59 0 00.3-.16l.15-.16h.07a.7.7 0 00.16-.19c.65-.66 1.28-1.33 1.87-2.05a33 33 0 006.17-11.39c1.25-4.25 1.86-9.04.53-13.36zm-8.93-2.87c-.9-.94.66-2.22 1.55-1.29a15.63 15.63 0 013.84 14.27c-.28 1.26-2.18.56-1.89-.69a13.59 13.59 0 00-3.5-12.29zm1.89 20a1 1 0 01.69-1.89 1 1 0 01-.69 1.9z"/></svg>