<svg data-name="Слой 1" viewBox="0 0 104.01 103.08" xmlns="http://www.w3.org/2000/svg"><path d="M102.44 53.32c-.14-3.27-1.27-6.67-3.86-8.75a10 10 0 00-3.72-2.07c-3.52-1.08-7.36-.51-10.92.06-4.18.68-8.3 1.63-12.52 2a62.35 62.35 0 01-6.83.23c1-7.43 4.78-14.14 6.31-21.43 1.1-5.29 1.1-12.27-3.09-16.3A9.66 9.66 0 0066.42 6l1.91-3.21a.82.82 0 00-1.41-.83C66.27 3 65.62 4.11 65 5.2a13.4 13.4 0 00-5.7-1.12c-3.25.07-6.49 2-9 3.9-5.5 4.12-9.3 9.89-13.96 14.81-5.56 5.86-12.91 9.21-19.61 13.53a34.22 34.22 0 00-8.18 7 31.07 31.07 0 00-5.26 9.35 31.61 31.61 0 0011 35.59A31.8 31.8 0 0029.19 94a43.28 43.28 0 004.95.31q1.78 1.41 3.7 2.64a27.34 27.34 0 0012 4.53 24.9 24.9 0 0012-2.21 37.33 37.33 0 0010.47-6.77A64.65 64.65 0 0081 82.05a50.36 50.36 0 018.89-9.83c3.1-2.52 6.38-4.93 8.86-8.12a16 16 0 003.69-10.78zm-36.52-6.86a66.93 66.93 0 0011.82-1.12 93.1 93.1 0 0111.5-1.76c2.54-.13 5.36.12 7.5 1.58a.77.77 0 00.28.29 7.81 7.81 0 01.79.6l.18.19c2 2.21 2 5.77.62 8.31-1.94 3.58-6.24 4.85-9.63 6.64A83.88 83.88 0 0072.85 72c-3.19 2.78-6 5.94-9.19 8.73C55 88.37 41.85 91.45 31.4 85.56a21.87 21.87 0 01-3.32-2.31.83.83 0 00-.17-.21 16.58 16.58 0 01-4.09-5.92c0-.07-.05-.13-.07-.2a.7.7 0 00-.11-.23 20.58 20.58 0 01-.56-12.61c1.93-7.15 7.7-12.54 14.3-15.52 6.09-2.75 12.54-3.15 19.1-2.63 3.15.25 6.28.53 9.44.53zm-48 42.22a28.49 28.49 0 01-9.22-8.45A29.86 29.86 0 013.55 58.3a28.9 28.9 0 0110.29-17.93 68.86 68.86 0 018.9-5.74 96.18 96.18 0 009.64-6.18 49.87 49.87 0 007.82-7.55c2.12-2.48 4.17-5 6.42-7.4a31 31 0 017.36-6 13.47 13.47 0 014.52-1.73 11.57 11.57 0 015 .62c5.73 1.87 6.77 8.43 6.28 13.69a40.92 40.92 0 01-2.38 9.48C66.19 33 64.87 36.47 63.91 40a36.33 36.33 0 00-.91 4.75c-.9 0-1.8-.09-2.71-.15-3.16-.23-6.29-.6-9.4-.6a36.12 36.12 0 00-10.28 1.6c-7.26 2.25-14.06 7-17.53 13.91a22.34 22.34 0 00-.72 18.43 34.65 34.65 0 009.82 14.65 32.08 32.08 0 01-14.25-3.91zm80.2-26.43c-2.12 3.11-5.2 5.46-8.12 7.82a51.05 51.05 0 00-4.83 4.24 49.78 49.78 0 00-3.8 4.53c-2.51 3.33-4.8 6.83-7.63 9.91a37.23 37.23 0 01-9.5 7.53A27.31 27.31 0 0153 99.86a21.85 21.85 0 01-11.61-2.79A38 38 0 0127.68 85a26.5 26.5 0 0019.19 5.09A32.78 32.78 0 0062.29 84c3.43-2.53 6.29-5.71 9.37-8.63a77.28 77.28 0 0115.18-11.14c2-1.14 4-2.2 6.09-3.22a19 19 0 005.4-3.38 10.07 10.07 0 002.48-4.25 14.16 14.16 0 01-2.68 8.87z"/><path d="M46.73 55.45c-2.29.2-4.68.3-6.7 1.51A10.27 10.27 0 0036 61.7a12.82 12.82 0 001.12 12.44 11.3 11.3 0 0013 3.85c3.72-1.26 6.42-4.18 8.83-7.17 2.57-3.18 4.7-6.69 7.22-9.91a.83.83 0 00-.36-1.37c-2.41-.85-4.88-1.59-7.35-2.25-3.73-1.01-7.84-2.16-11.73-1.84zm17.52 5.29c-1.58 2.13-3 4.36-4.6 6.49-2.07 2.77-4.33 5.77-7.23 7.82-3.51 2.44-8.5 2.84-12 .21a10.59 10.59 0 01-3.65-10.68A9.65 9.65 0 0140 59c1.95-1.58 4.37-1.7 6.77-1.91 3.83-.31 7.84.84 11.5 1.84 1.98.54 3.99 1.14 5.98 1.81z"/><path d="M45.19 60.5a.82.82 0 000 1.63.82.82 0 000-1.63zm-3.09.72a.82.82 0 000 1.64.82.82 0 000-1.64zm1.64 2a.82.82 0 00-.82.82v.18a.84.84 0 00.24.58.83.83 0 00.58.24.84.84 0 00.58-.24.88.88 0 00.23-.58V64a.88.88 0 00-.23-.58.86.86 0 00-.58-.2zm-2.25-33.6a160.72 160.72 0 0116.73-17.78c.78-.71-.38-1.86-1.15-1.15a159.78 159.78 0 00-16.74 17.77c-.65.82.5 1.98 1.16 1.16z"/></svg>