<svg data-name="Слой 1" viewBox="0 0 114.22 82.12" xmlns="http://www.w3.org/2000/svg"><path d="M61 15.57c5-.54 10.24.32 14.3 3.4a13.73 13.73 0 015.56 12c-.56 5.16-4.37 9.36-7.5 13.21-3.45 4.25-6.79 8.62-10.43 12.71a32.79 32.79 0 01-12.5 9.13 39.53 39.53 0 01-15.22 2.61c-9.86-.24-19.48-4.32-25.71-12.09C3.53 49.17 1.64 38.87 5.41 30c4-9.26 13.52-14 22.55-17A89.51 89.51 0 0160.9 8.61c5.63.25 11.16.38 16.73-.71 5.3-1 10.44-2.77 15.73-3.88 4.76-1 11.28-2.23 15.23 1.49a5.85 5.85 0 011.7 6.24c-.81 2.53-2.88 4.36-5 5.81-4.61 3.18-9.49 6-14.21 9A52.8 52.8 0 0080.24 35a24.36 24.36 0 00-3.84 5.5c-.57 1.13 1.14 2.14 1.71 1 2.32-4.63 6.26-8 10.47-10.92 4.74-3.26 9.7-6.2 14.57-9.26 4.21-2.65 9.67-6 9.44-11.75-.22-5.21-5.35-8-10-8.41-5.65-.47-11.45 1.26-16.84 2.71-5.89 1.58-11.7 3-17.84 3s-12-.58-18-.19a88.11 88.11 0 00-17.59 2.93c-9.8 2.69-20.79 6.92-26.63 15.76C.13 33.76.26 45 5.12 53.64c5 8.89 14.16 14.73 24.11 16.42 10.57 1.8 22.44-.39 30.75-7.44 4.41-3.74 7.89-8.52 11.51-13 1.9-2.35 3.84-4.67 5.7-7.05a32.6 32.6 0 004.18-6.46 14.76 14.76 0 00-.67-14 18.18 18.18 0 00-12.21-8.21 24.27 24.27 0 00-7.49-.3c-1.25.13-1.27 2.11 0 2z"/><path d="M1.48 40.08c.16 5.19.16 10.4.8 15.56a29.59 29.59 0 001.58 7.15 25 25 0 003.48 5.75c6.2 8.26 17.16 11.52 27 12.28 6.3.48 13.13.42 19.11-1.81 5.77-2.15 10.69-6 15-10.28a37.18 37.18 0 005.52-7c1.61-2.6 3.24-5.16 4.89-7.73a38.2 38.2 0 016-7.63 57.22 57.22 0 017.34-5.64c2.6-1.74 5.28-3.36 7.94-5a64.19 64.19 0 007.6-5.15 12.4 12.4 0 004.26-8 42.19 42.19 0 00.61-7.85c-.06-1.4-.22-2.78-.37-4.17s-2.11-1.26-2 0a38.87 38.87 0 01.29 7.15c-.24 3-.35 6.46-2 9.09s-4.43 4.08-6.85 5.63-5.08 3.15-7.6 4.74c-4.88 3.09-9.92 6.43-13.59 11-3.81 4.7-6.5 10.2-9.93 15.16a37.9 37.9 0 01-5.9 6.31 43.44 43.44 0 01-7.23 5.37 29 29 0 01-8.1 3.25 47 47 0 01-10.06.74 47.2 47.2 0 01-16.14-2.38c-4.07-1.46-8-3.06-11.25-6a29.39 29.39 0 01-5.39-6.9 19.44 19.44 0 01-2.06-6.85c-.86-5.55-.8-11.2-1-16.8 0-1.27-2-1.28-2 0z"/><path d="M48.83 35.78c-2-4-7-6-11.21-6.53a18.34 18.34 0 00-14.76 5.33c-3.79 3.9-1.74 9.61 2.62 12.06a20 20 0 007.94 2.09 21.26 21.26 0 008.8-.63 10.93 10.93 0 006.43-5.16 7.92 7.92 0 00-.37-8c-.72-1-2.43 0-1.7 1C49.38 40 46 44.61 42 46.08a17.49 17.49 0 01-7.19.79 24 24 0 01-6.93-1.27c-3.91-1.49-7.1-6.2-3.51-9.74a16.7 16.7 0 0112.31-4.74c3.76.27 8.67 2.06 10.43 5.66.56 1.14 2.26.14 1.71-1zm3.92 4.5a1 1 0 000-2 1 1 0 000 2zm3.93-24.78a1 1 0 000-2 1 1 0 000 2zm29.61 10.22a1 1 0 000-2 1 1 0 000 2z"/></svg>