<svg data-name="Слой 1" viewBox="0 0 51.22 101.96" xmlns="http://www.w3.org/2000/svg"><path d="M10.14 58.34Q26.79 74.69 43 91.51c.85.89 2.2-.46 1.35-1.35Q28.15 73.33 11.49 57c-.87-.86-2.23.49-1.35 1.35zM7.47 75.12A93.48 93.48 0 0015 83c3.77 3.79 7.57 7.55 11.28 11.4 1.6 1.67 3.21 3.34 4.71 5.1.8.93 2.14-.42 1.35-1.36-3-3.49-6.28-6.73-9.51-10-3.56-3.61-7.17-7.14-10.72-10.82a42.42 42.42 0 01-3.28-3.56c-.76-1-2.11.4-1.36 1.36z"/><path d="M9.29 68.53l14.32-14.46 2-2h-1.34l21.4 22.67 3 3.18c.84.89 2.19-.46 1.35-1.36l-21.39-22.7-3-3.17a1 1 0 00-1.36 0L10 65.14l-2 2a1 1 0 001.35 1.35z"/><path d="M43.79 52.85l-34 33.33a1 1 0 001.35 1.36l34-33.34c.88-.86-.47-2.21-1.35-1.35zm4.5 16.76q-14.1 14-28.55 27.72c-.89.85.46 2.2 1.36 1.35Q35.53 85 49.64 71a1 1 0 00-1.35-1.36z"/><path d="M13.46 46c-5.49-.2-7.7 5.53-9.13 9.82a68.19 68.19 0 00-3.76 16.9C0 82 3 92.31 11.23 97.53c7.67 4.85 17.9 4.26 25.8.28a23.45 23.45 0 0010.62-10.4 30.46 30.46 0 003.07-14.36 56.21 56.21 0 00-3.91-18.35c-1.82-4.84-5.61-10.1-11.51-9-1.21.23-.69 2.07.51 1.84 4.95-.93 7.93 4.26 9.34 8.15a58 58 0 013.53 14.95c.74 9-2 18.77-9.92 24-6.86 4.47-16.15 6-23.82 2.72-8.09-3.45-12.1-12-12.51-20.42A50.44 50.44 0 015 60.17a52.47 52.47 0 012.75-7.94c1.11-2.28 3-4.43 5.75-4.33 1.23 0 1.23-1.87 0-1.91z"/><path d="M10.53 47.54a118.46 118.46 0 01-5.62-11.42L3.73 37.3a158 158 0 0117.48 8.57l.48-1.78c-3.08 0-.18-6.19.36-7.45a43.75 43.75 0 014.13-7.42h-1.65q1.83 3.78 3.63 7.57c.48 1 4 6.89 1.45 7.19l.48 1.78a61.3 61.3 0 0117-8.36L46 36c-2.19 3.58-4.55 7.06-6.73 10.64-.65 1 1 2 1.65 1C43.11 44 45.47 40.55 47.66 37a1 1 0 00-1.08-1.4 63.12 63.12 0 00-17.46 8.55c-.68.48-.55 1.91.49 1.78a3.06 3.06 0 002.68-2.28c.48-1.69-.39-3.34-1.08-4.83q-2.49-5.28-5-10.52a1 1 0 00-1.65 0 44.1 44.1 0 00-5.2 10.1c-.58 1.59-1.28 3.41-.8 5.12A3.33 3.33 0 0021.69 46a1 1 0 00.48-1.78 163.31 163.31 0 00-17.93-8.77 1 1 0 00-1.17 1.18 119.67 119.67 0 005.81 11.88c.59 1.08 2.24.11 1.65-1z"/><path d="M12.61 32.44q-2.27-5-4.86-9.9L6.67 24c2.89.46 5.24 2.17 7.58 3.81l7.87 5.49c1 .71 2-1 1-1.65l-8.21-5.73c-2.36-1.64-4.8-3.3-7.7-3.77a1 1 0 00-1.11 1.36q2.6 4.86 4.9 9.89c.51 1.12 2.16.15 1.65-1zm8.14-9.39a71.63 71.63 0 015.13-20.88H24c2 9.18 6.77 17.83 6.2 27.44-.07 1.23 1.84 1.22 1.91 0 .58-9.8-4.27-18.59-6.26-27.95-.22-1-1.52-.78-1.85 0a73.68 73.68 0 00-5.2 21.39c-.11 1.22 1.81 1.22 1.92 0z"/><path d="M14.1 18.62a24.1 24.1 0 00-3.47-8.83l-1.08 1.4a29 29 0 019.12 6c.89.85 2.24-.5 1.35-1.36a31.85 31.85 0 00-10-6.47c-.78-.33-1.5.74-1.08 1.4a22.71 22.71 0 013.27 8.38c.22 1.21 2.06.7 1.85-.51zm16.65-.75a34.81 34.81 0 0110-4.82l-.93-1.6c-3.58 3.91-4.18 9.29-4.61 14.35-.1 1.2 1.79 1.2 1.92 0 .38-4.51.85-9.5 4-13a1 1 0 00-.93-1.6 36.58 36.58 0 00-10.46 5c-1 .69-.05 2.35 1 1.65z"/><path d="M29 33a50.84 50.84 0 0114.52-8l-1.08-1.4a35.53 35.53 0 00-6.16 15.67c-.17 1.2 1.68 1.72 1.84.51a34.47 34.47 0 016-15.22A1 1 0 0043 23.08a53.73 53.73 0 00-15.36 8.52c-1 .77.4 2.11 1.36 1.35zM7.67 89.89a1 1 0 000-1.91 1 1 0 000 1.91zM5.33 71.83a1 1 0 000-1.91 1 1 0 000 1.91zm2.55-16.15a1 1 0 000-1.91 1 1 0 000 1.91zm5-17.84a1 1 0 000-1.92 1 1 0 000 1.92z"/></svg>