<svg data-name="Слой 1" viewBox="0 0 102.81 103.46" xmlns="http://www.w3.org/2000/svg"><path d="M10.15 72.7c5.48-1.06 9.73-5 13.17-9.2a102.25 102.25 0 0010.31-15.44c6.09-11 10.59-22.81 15.25-34.47 1-2.48 1.93-5.68.72-8.26-.91-2-2.88-2.05-4.44-.8-.88.7.36 1.93 1.23 1.24 1.43-1.14 1.94.82 2 2a11.6 11.6 0 01-.79 4.39 3.19 3.19 0 00-2.07-.83c-2.19 0-3.55 2.15-4.57 3.77q-4.38 7-8.1 14.31Q29.21 36.55 26.2 44c-2 4.9-3.89 9.87-7 14.17-3.25 4.49-7.42 8.28-10 13.21a.89.89 0 00.95 1.32zM25.8 49.6c1.91-4.5 3.66-9.05 5.72-13.49s4.33-8.88 6.77-13.17c1.37-2.41 2.78-4.79 4.26-7.14a6.85 6.85 0 012.16-2.52c.76-.41 2.42-.07 2 1.06a1.29 1.29 0 00-.06.25c-.13.32-.26.63-.38.94-2.17 5.37-4.27 10.75-6.6 16.06C35.19 42 30 52.16 23 61.07c-3 3.86-6.6 7.73-11.29 9.38a97.48 97.48 0 017-8.87A48.24 48.24 0 0025.8 49.6zm46.27-8.32c3.25-4.49 7.41-8.27 10-13.21a.89.89 0 00-1-1.29c-5.49 1.07-9.74 5-13.18 9.2a102.19 102.19 0 00-10.3 15.44c-6.1 11-10.59 22.81-15.26 34.47-1 2.48-1.92 5.68-.72 8.26.92 2 2.88 2 4.45.8.88-.7-.36-1.93-1.24-1.24-1.42 1.14-1.94-.82-2-2a11.71 11.71 0 01.79-4.38 3.24 3.24 0 002.08.82c2.19 0 3.55-2.15 4.57-3.77 2.91-4.64 5.62-9.42 8.1-14.3S63 60.4 65.01 55.42s3.99-9.84 7.06-14.14zM53 76.55q-2.05 3.61-4.26 7.13a6.77 6.77 0 01-2.16 2.52c-.76.41-2.42.07-2-1.06a1.29 1.29 0 00.06-.25c.12-.31.25-.63.38-.94 2.14-5.37 4.27-10.75 6.57-16.06 4.48-10.36 9.64-20.56 16.63-29.48 3-3.86 6.6-7.73 11.29-9.38a99.25 99.25 0 01-7 8.87 47.94 47.94 0 00-7 12c-1.91 4.5-3.66 9.06-5.72 13.49S55.4 72.25 53 76.55z"/><path d="M63.44 32.67c1.26-2.14 2.52-4.31 3.74-6.52a.87.87 0 00.2-.31c0-.06.05-.12.07-.19a70.72 70.72 0 005.89-13.57c.59-2 1.17-4.39.66-6.51a5 5 0 00-3.24-3.36c-2.5-1-5.48-.48-6.77 2.08a3.6 3.6 0 00.06 3.59c.6 1 2.11.08 1.51-.88-.7-1.14.09-2.53 1.14-3.16a4 4 0 013.62.07 3.54 3.54 0 011.84 1.63s.1.28.12.35.09.39.12.58a11.64 11.64 0 01-.11 2.45 25.55 25.55 0 01-.89 3.52 64.11 64.11 0 01-3.69 8.89A4.76 4.76 0 0066 18.88a5.28 5.28 0 00-6.38 0 8.59 8.59 0 00-2.34 3.32 39.42 39.42 0 01-2.35 4.27c-2 3.16-4.23 6.18-6.46 9.19s-4.6 6.21-6.72 9.44-3.88 6.56-5.87 9.81a112.2 112.2 0 01-13.79 18.5C16.61 79.2 10 84.05 2.34 86.49a.88.88 0 000 1.69C13.2 92 24.17 84 31.33 76.49a192.29 192.29 0 0016-19.63C53.1 49.06 58.52 41 63.44 32.67zM31.71 73.54a62.8 62.8 0 01-6.8 6.55C20 84 13.9 87.56 7.44 87.37a15.08 15.08 0 01-1.9-.18c11.93-4.78 20.76-14.88 27.9-25.3 4.18-6.1 7.56-12.71 11.76-18.77 4.09-5.85 8.7-11.38 12.33-17.54 1.31-2.23 2.2-6.32 5.54-6a3.54 3.54 0 012.68 1.59 4.27 4.27 0 01.14 3.71c-1.28 2.35-2.62 4.66-4 6.93-4.62 7.82-9.67 15.38-15 22.73a214.26 214.26 0 01-15.18 19zm69-45.89A6.08 6.08 0 0095 26.58a15.27 15.27 0 00-3.83 2.12 2.88 2.88 0 00-1.58 1.17.83.83 0 00-.23.14A72.29 72.29 0 0070 55.07a74.16 74.16 0 00-7.12 30.66 64.8 64.8 0 00.49 8.92c.34 2.66 1.1 5.5 3.55 7a.88.88 0 001.28-.52c.93-2.85.61-5.91.64-8.86 0-3.19.2-6.39.54-9.57a78 78 0 014.22-18.45 63.17 63.17 0 017.77-14.91 54.33 54.33 0 015.32-6.41c1.92-2 4-3.66 6.12-5.46s3.84-4.58 2.35-7.21A3.26 3.26 0 0093.91 29c.34-.19.68-.37 1-.53a4.55 4.55 0 014.88.68c.94.68 1.82-.84.92-1.5zm-7.36 3.09c.92.86.61 2.41.08 3.38a9.61 9.61 0 01-2.57 2.71c-1 .79-2 1.59-2.9 2.44a57.15 57.15 0 00-9.7 11.56C72.38 60 69.12 70.62 67.82 81.4a96.18 96.18 0 00-.68 9.75c0 2.68.28 5.51-.25 8.17-1.31-1.43-1.63-3.66-1.83-5.53a68.78 68.78 0 01-.4-7.46 70 70 0 011.71-15.19 73.56 73.56 0 0112.42-27.4 69.47 69.47 0 0111.85-12.5 1.06 1.06 0 00.15-.15l1.21-.8a1.8 1.8 0 011.35.45z"/></svg>