<svg data-name="Слой 1" viewBox="0 0 92.27 91.87" xmlns="http://www.w3.org/2000/svg"><path d="M15 56.36c-1.65 1.69-1 4.11-.11 6a33.21 33.21 0 003.83 6.05A35.11 35.11 0 0030 77.82c2.11 1.11 4.62 2.19 6.55.15 1.63-1.72 1.59-4.16.74-6.24A27.85 27.85 0 0033 65.12a42.52 42.52 0 00-5.4-5.5c-2.11-1.78-4.53-3.83-7.19-4.7-2.24-.73-5.11 0-6 2.36-.4 1.11 1.36 1.59 1.76.49.72-2 3.61-1.27 4.93-.54a32.42 32.42 0 015.18 3.68 40.91 40.91 0 018.19 9.41c1 1.62 2.2 3.75 1.25 5.66-1.15 2.34-3.54 1-5.23 0a33.78 33.78 0 01-9-7.19 32.18 32.18 0 01-3.91-5.44c-.82-1.4-2.69-4.23-1.22-5.74.81-.84-.48-2.13-1.29-1.29z"/><path d="M2.85 43.13c-3.54 3.49-1.38 9.08.24 12.95a61.42 61.42 0 007.2 12.79 62.49 62.49 0 0022.08 18.8C37 90 42.43 92.22 47.51 90.06a8.45 8.45 0 004.77-4.91 12.59 12.59 0 00-.28-7.72 49.58 49.58 0 00-6.93-13.64 67 67 0 00-10-11.3 77 77 0 00-14-10.18c-5-2.8-11.58-4.7-16.65-1-.93.69 0 2.28.92 1.58 4.31-3.19 9.83-1.72 14.17.6a71.71 71.71 0 0111.75 8 62.73 62.73 0 0117.1 21.56c1.83 3.94 4.47 10 .77 13.73s-9.76 2.07-14 .11A60.68 60.68 0 016 58.19a42.32 42.32 0 01-2.72-6.87c-.63-2.27-1-5.08.85-6.9.84-.82-.46-2.11-1.29-1.29z"/><path d="M50.16 88.54C56.58 80.37 63.5 72 66.49 61.84 69 53.4 68.36 43.64 63.8 36a22.88 22.88 0 00-9.53-9 28.52 28.52 0 00-14.54-2.58A33.12 33.12 0 0028.89 27a98.25 98.25 0 00-9.47 4.86Q14.05 35 8.88 38.38a34.38 34.38 0 00-5.94 4.36c-.82.85.47 2.14 1.29 1.29a27.72 27.72 0 014.57-3.41c2.78-1.88 5.63-3.66 8.51-5.38s6.07-3.52 9.21-5.08A35.71 35.71 0 0134.71 27c9.11-2 19.37-.43 25.57 7.08 5.39 6.53 6.81 15.93 5.23 24.07-2.18 11.19-9.79 20.36-16.64 29.08-.72.91.57 2.21 1.29 1.29z"/><path d="M65.6 39.05c1.25-6.68 7.38-10.78 12.71-14.2l-1.11-.14c3.34 3.89 10.08 3.66 12.87-.73s.73-10.73-4.45-12.11a8.4 8.4 0 00-7.91 1.91L79 15.07a8.94 8.94 0 00.89-10.44 8.42 8.42 0 00-9.17-3.4 7.8 7.8 0 00-5.45 8 7.36 7.36 0 00.52 2.27c.37.92 1.45 1.93 1.27 2.94a13.62 13.62 0 01-2.76 5.2 18.34 18.34 0 01-11.16 6.78c-1.15.21-.67 2 .48 1.76a19.88 19.88 0 0015.1-12.94 3.13 3.13 0 00-.09-2.44 18 18 0 01-1.27-2.27 6.23 6.23 0 01.4-4.68 6.06 6.06 0 018.39-2.3c3.66 2 4.17 7.13 1.56 10.2A.91.91 0 0079 15.07a6.61 6.61 0 017-1.14 6 6 0 013.47 6 5.93 5.93 0 01-4.19 5.5 6.62 6.62 0 01-6.82-2 .91.91 0 00-1.1-.14c-5.72 3.66-12.21 8.13-13.55 15.28-.21 1.15 1.55 1.64 1.76.49zM44.69 85a.91.91 0 000-1.82.91.91 0 000 1.82zm10.95-9.31a.92.92 0 000-1.83.92.92 0 000 1.83zM53.61 61.9a.91.91 0 000-1.82.91.91 0 000 1.82zm6.08-1.62a.92.92 0 000-1.83.92.92 0 000 1.83z"/><path d="M85.64 22.57a.92.92 0 000-1.83.92.92 0 000 1.83z"/></svg>