<svg data-name="Слой 1" viewBox="0 0 104.69 104" xmlns="http://www.w3.org/2000/svg"><path d="M12.85 50a54.13 54.13 0 003.27 11.16 109.71 109.71 0 006.25 12.51c4.45 7.57 10.18 14.68 17.42 19.76a40.51 40.51 0 0013.17 6 .86.86 0 00.45-1.65C35.83 93.27 25 77.2 18.1 61.48a55.1 55.1 0 01-3.6-11.93c-.21-1.08-1.85-.62-1.65.46z"/><path d="M36.37 89.08a48 48 0 004-26.16c-.14-1.07-1.85-1.09-1.71 0a46.41 46.41 0 01-3.78 25.3c-.45 1 1 1.86 1.48.86z"/><path d="M5 25.28c1.8 3.38 1.1 7.3.09 10.81a73.67 73.67 0 00-2.66 10.76 47.87 47.87 0 0027.35 49.83 62.11 62.11 0 0011.6 3.84A49.23 49.23 0 0054.56 102c1.1 0 1.1-1.74 0-1.7a55.36 55.36 0 01-22.37-4.4 45.51 45.51 0 01-15.66-10.81A46.46 46.46 0 014 47.66c.48-4.14 1.82-8 2.89-12 1-3.72 1.37-7.75-.5-11.26-.52-1-2-.11-1.48.86z"/><path d="M54.77 100.27c-1.28-.35-.43-2.76-.18-3.55.56-1.77 1.2-3.52 1.84-5.27a69.09 69.09 0 003.38-10.78 37.46 37.46 0 00-2.11-20.38 52.73 52.73 0 00-11.17-17.6 45.49 45.49 0 00-17.61-11 113.56 113.56 0 00-11.3-3.35c-3.83-1-7.94-1.78-11.14-4.26-.86-.66-2.08.54-1.21 1.21a25.09 25.09 0 009.4 4.07c3.48.89 7 1.74 10.39 2.82 6.87 2.17 13.47 5.23 18.75 10.21C54 52 61.12 67.15 58 81.24a107.32 107.32 0 01-4.06 12.22c-.75 2.11-3.17 7.49.43 8.45a.85.85 0 00.45-1.64z"/><path d="M11.63 27.79a62.3 62.3 0 0112.1-13A64 64 0 0131.49 10a20.31 20.31 0 006-5.82l-1.59-.43c-.07 3.57 3 5.31 5.65 7a41.69 41.69 0 019.85 8.44c.71.85 1.91-.37 1.21-1.21a42.68 42.68 0 00-9-7.89c-2.32-1.58-6.11-3-6-6.34a.86.86 0 00-1.59-.43A18.78 18.78 0 0129.66 9 45.48 45.48 0 0022 14a64.53 64.53 0 00-11.85 12.9c-.65.89.83 1.75 1.47.86z"/><path d="M46.19 42.73c-1.33-6.29.39-13.19 3.51-18.71 3.22-5.7 8.06-10 13.36-13.74 2.72-1.91 5.48-3.95 7-7l-1.56-.2c.58 2.81 2.74 4.75 5 6.3a93.82 93.82 0 017.76 5.36A53.8 53.8 0 0193 28.44a.86.86 0 001.48-.86 55.22 55.22 0 00-11.32-13.44 61.86 61.86 0 00-7.67-5.49c-2.31-1.47-4.8-3.18-5.38-6a.86.86 0 00-1.56-.21C67.15 5.3 64.53 7.18 62 9a56 56 0 00-7.6 6.21 34.83 34.83 0 00-9.6 17.06 25.87 25.87 0 00-.21 10.94c.23 1.08 1.87.62 1.64-.45z"/><path d="M39 8c4.45-2.46 9.76-3.2 14.79-3.23 4.17 0 8.88.27 12.7 2.13 1 .48 1.85-1 .86-1.48-4.1-2-9.07-2.39-13.56-2.36-5.33 0-10.94.86-15.66 3.46-1 .54-.1 2 .87 1.48zm-3.7 10.4c-6 2-11.9 5.4-14.15 11.65-.37 1 1.28 1.48 1.65.45 2-5.63 7.62-8.62 13-10.45 1-.35.59-2-.46-1.65zm32.11.83c5.22 2.77 9.66 7.16 13.69 11.42.75.8 2-.41 1.2-1.21-4.12-4.36-8.69-8.86-14-11.68-1-.52-1.83 1-.86 1.47zm-.61 40.84a40.76 40.76 0 00.71 30.58c.44 1 1.91.14 1.47-.86a39.13 39.13 0 01-.54-29.26c.4-1-1.25-1.47-1.64-.46z"/><path d="M91.93 47.84a83.07 83.07 0 01-10.05 25.54 60.52 60.52 0 01-15.42 17.46c-3.95 2.93-8.41 5.59-13.28 6.56-1.08.22-.62 1.87.45 1.65a33.42 33.42 0 0012.11-5.61 55.67 55.67 0 0010.32-9.06 76 76 0 0012.27-19.7 89.81 89.81 0 005.25-16.38c.24-1.07-1.41-1.53-1.65-.46z"/><path d="M54.77 53.84c.6-3.88 3-7.12 5.75-9.81a67.18 67.18 0 019.4-7.3 47.7 47.7 0 018.42-4.66 41 41 0 019-2.45C91.39 29 96 29.4 98.89 26l-1.34-1C96 28.44 97 32.19 98 35.7a88.5 88.5 0 012.35 11.3c.9 6.31 1 12.81-.81 19-1.76 6-5.21 11.23-9.16 15.95a53 53 0 01-13.83 12 49.7 49.7 0 01-21.92 6.42c-1.09.07-1.1 1.78 0 1.71a52.49 52.49 0 0020.16-5.23 51.79 51.79 0 0014.8-11.38 53.07 53.07 0 0010.47-15.87 40.54 40.54 0 002.47-18.36 88.39 88.39 0 00-2-12.52c-.91-4-3.32-8.84-1.52-12.92.35-.8-.66-1.84-1.34-1a7.49 7.49 0 01-5.29 2.52c-1.79.17-3.58.38-5.36.66a41.22 41.22 0 00-9.26 2.52 49.15 49.15 0 00-8.6 4.71 70.65 70.65 0 00-9.54 7.33c-3.08 2.93-5.85 6.58-6.52 10.88-.17 1.07 1.48 1.53 1.65.45zM14.25 45.6v-.38a.92.92 0 00-.25-.6.86.86 0 00-.61-.25.84.84 0 00-.6.25.9.9 0 00-.25.6v.38a.93.93 0 00.25.61.86.86 0 001.21 0 .93.93 0 00.25-.61zm36.99 47.25v-.19a.88.88 0 00-.25-.61.84.84 0 00-1.2 0 .86.86 0 00-.25.61v.19a.87.87 0 00.25.6.86.86 0 00.6.25.84.84 0 00.6-.25.86.86 0 00.25-.6zm1.24-47.15h.38a.88.88 0 00.6-.25.86.86 0 00.25-.61.84.84 0 00-.25-.6.9.9 0 00-.6-.25h-.38a.93.93 0 00-.61.25.86.86 0 000 1.21.93.93 0 00.61.25zm.19-32.82a.86.86 0 000-1.71.86.86 0 000 1.71zm2.56-3.51v.19a.87.87 0 00.25.6.86.86 0 00.6.25.88.88 0 00.61-.25.9.9 0 00.25-.6v-.19a.93.93 0 00-.25-.61.86.86 0 00-.61-.25.84.84 0 00-.6.25.91.91 0 00-.25.61z"/><path d="M69.74 57.27a.86.86 0 000-1.71.86.86 0 000 1.71z"/></svg>