<svg data-name="Слой 1" viewBox="0 0 141.77 91.7" xmlns="http://www.w3.org/2000/svg"><path d="M9.65 43.92h-6A3.63 3.63 0 01-.1 40.31v-9.67A3.63 3.63 0 013.61 27h6.06z"/><path d="M13.86 56.94A5.87 5.87 0 018 50.79V19.25a6.32 6.32 0 011.62-4.32 5.65 5.65 0 014.22-1.83 6 6 0 016 6.15v31.54a6 6 0 01-5.98 6.15zm0-41.84a3.65 3.65 0 00-2.76 1.18 4.55 4.55 0 00-1.29 3v31.51a4.07 4.07 0 004 4.15A4.15 4.15 0 0018 50.79V19.25a4.15 4.15 0 00-4.15-4.15z"/><path d="M29.81 69.94h-5.57a6.07 6.07 0 01-6.15-6V6.15A6.16 6.16 0 0124.24 0h5.59a6.1 6.1 0 014.34 1.8 6 6 0 011.7 4.35v57.74a6 6 0 01-6.06 6.05zM24.24 2a4.11 4.11 0 00-2.93 1.21 4.5 4.5 0 00-1.52 2.94v57.74A4.42 4.42 0 0024.24 68h5.57A4.15 4.15 0 0034 63.89V6.15A4.15 4.15 0 0029.83 2zm107.88 24h6a3.63 3.63 0 013.71 3.61v9.69a3.62 3.62 0 01-3.71 3.6h-6z"/><path d="M127.91 13a5.87 5.87 0 015.85 6.15v31.54a6.33 6.33 0 01-1.63 4.31 5.65 5.65 0 01-4.22 1.83 6 6 0 01-6-6.15V19.14a6 6 0 016-6.14zm0 41.84a3.65 3.65 0 002.76-1.18 4.51 4.51 0 001.3-3V19.15a4.08 4.08 0 00-4.06-4.15 4.15 4.15 0 00-4.15 4.14v31.55a4.15 4.15 0 004.15 4.15z"/><path d="M112 0h5.57a6.07 6.07 0 016.15 6.05v57.74a6.15 6.15 0 01-6.15 6.15h-5.59a6 6 0 01-6-6.15V6.05A6 6 0 01112 0zm5.57 67.94a4.11 4.11 0 002.93-1.21 4.46 4.46 0 001.5-2.94V6.05a4.42 4.42 0 00-4.45-4.15H112a4.15 4.15 0 00-4.14 4.15v57.74a4.15 4.15 0 004.14 4.15zM60.81 91.7h-1.9v-16c0-1.87-.51-7.15-2.25-8.88a13 13 0 00-2.2-1.55 12 12 0 01-2.8-2.21c-1.86-2.16-2.58-7-2.66-9.61-.18-6 0-17.37 0-17.37h17.54c1.92 0 4.09-.2 5.75 1.18A3.63 3.63 0 0173.36 41a7.66 7.66 0 01-7.62 6.27h-4.65v3.82c3.15.71 13.78 4 13.78 16.72h-2c0-13.09-12.38-14.83-12.91-14.9l-.87-.11v-7.57h6.65a5.65 5.65 0 005.65-4.62c.24-1.32-.22-1.7-.37-1.82-1.08-.9-4.43-.91-4.43-.91h-15.7s-.14 10.66 0 15.49c.08 2.49.91 6.78 2.27 8.37a10.48 10.48 0 002.36 1.82A13.94 13.94 0 0158 65.39c2.63 2.61 2.83 9.5 2.84 10.28zm25.02 0h-1.9V76c0-.32-.13-8 1.8-11.42.65-1.15 1.34-2.17 2-3.16.45-.67.92-1.35 1.37-2.08 2.64-4.24 1.9-15 1.89-15.1l1.7-.14c0 .46.79 11.51-2.19 16.29-.47.76-.65 1.46-1.12 2.16-.68 1-1.32 1.94-1.92 3C86.09 68 85.82 73.93 85.83 76zm1.67-56.62a4.61 4.61 0 01-4.59-4.69v-6.33a4.58 4.58 0 011.28-3.32 4.67 4.67 0 013.32-1.37 4.17 4.17 0 013.15 1.4 4.76 4.76 0 011.15 3.29v6.33a4.39 4.39 0 01-4.31 4.69zm0-13.71a2.7 2.7 0 00-2.7 2.69v6.33a2.69 2.69 0 002.69 2.69 2.46 2.46 0 002.4-2.69v-6.33a2.82 2.82 0 00-.72-1.93 2.13 2.13 0 00-1.67-.76z"/><path d="M79.5 35.08a4.61 4.61 0 01-4.59-4.69v-6.33a4.58 4.58 0 011.28-3.32 4.67 4.67 0 013.32-1.37 4.17 4.17 0 013.15 1.4 4.76 4.76 0 011.15 3.29v6.33a4.39 4.39 0 01-4.31 4.69zm0-13.71a2.7 2.7 0 00-2.7 2.69v6.33a2.69 2.69 0 002.69 2.69 2.46 2.46 0 002.4-2.69v-6.33a2.82 2.82 0 00-.72-1.93 2.13 2.13 0 00-1.67-.76z"/><path d="M71.5 35.08a4.61 4.61 0 01-4.59-4.69v-6.33a4.58 4.58 0 011.28-3.32 4.67 4.67 0 013.32-1.37 4.17 4.17 0 013.15 1.4 4.76 4.76 0 011.15 3.29v6.33a4.39 4.39 0 01-4.31 4.69zm0-13.71a2.7 2.7 0 00-2.7 2.69v6.33a2.69 2.69 0 002.69 2.69 2.46 2.46 0 002.4-2.69v-6.33a2.82 2.82 0 00-.72-1.93 2.13 2.13 0 00-1.67-.76z"/><path d="M63.5 35.08a4.61 4.61 0 01-4.59-4.69v-6.33a4.58 4.58 0 011.28-3.32 4.67 4.67 0 013.32-1.37 4.17 4.17 0 013.15 1.4 4.76 4.76 0 011.15 3.29v6.33a4.39 4.39 0 01-4.31 4.69zm0-13.71a2.7 2.7 0 00-2.7 2.69v6.33a2.69 2.69 0 002.69 2.69 2.46 2.46 0 002.4-2.69v-6.33a2.82 2.82 0 00-.72-1.93 2.13 2.13 0 00-1.67-.76z"/><path d="M107.78 43.93h-38l.93-1.42a5.12 5.12 0 00.72-1.9c.24-1.32-.22-1.7-.37-1.82-1.08-.9-2.78-1-4.43-1h-15.7c0 1.08 0 3.11-.06 5.25v.89H33.94V27h26.79l.08 1v2.35a2.69 2.69 0 002.69 2.69 2.54 2.54 0 002.5-2.65V27h2.81v3.35a2.69 2.69 0 002.69 2.69 2.54 2.54 0 002.5-2.65V27h2.81v3.35a2.69 2.69 0 002.69 2.69 2.54 2.54 0 002.5-2.65V27h2.81v3.35a2.69 2.69 0 002.69 2.69 2.54 2.54 0 002.5-2.65V27h17.78z"/></svg>