<svg data-name="Слой 1" viewBox="0 0 101.67 103.12" xmlns="http://www.w3.org/2000/svg"><path d="M17.47 74.34c-4.09-3.55-10.76-3.15-14 1.31a9.61 9.61 0 002 13.47 9.9 9.9 0 008.36 1.45l-1.12-1.12c-1.46 5.34 2.17 11.32 7.76 12a9.52 9.52 0 0010.8-9.31 9.87 9.87 0 00-3.93-7.81l.18 1.42c6.29-5 10.46-12.51 17.83-16.19s16.19-3.57 24-6.2a46.4 46.4 0 0029-29.82c2.08-6.72 2.59-14.35-.24-20.93a17.2 17.2 0 00-6.66-7.91 23.46 23.46 0 00-11.67-3.13A37.08 37.08 0 0056.5 9.45 47.87 47.87 0 0042 28.46c-3.13 7.19-4.43 14.94-6.66 22.42a45.52 45.52 0 01-4.47 10.65 30 30 0 01-8.71 9c-1.74 1.22-3.55 2.34-5.37 3.45-1 .61-.08 2.18.92 1.57A57.43 57.43 0 0028 68.17 31 31 0 0034.32 59c3.15-6.83 4.44-14.29 6.47-21.49a53.7 53.7 0 0110.83-21A38.29 38.29 0 0172 4.12c7.5-1.64 17-1 22.17 5.35 4.44 5.42 4.81 13.35 3.43 19.94a44.43 44.43 0 01-26.25 31.32c-7.35 3-15.4 3.14-22.88 5.63a28.11 28.11 0 00-10 5.77c-2.89 2.58-5.35 5.61-8 8.42a43 43 0 01-4.26 4c-.5.4-.23 1.11.19 1.42a8.08 8.08 0 013 7.33 7.44 7.44 0 01-5.18 6.08 7.39 7.39 0 01-7.64-1.67 8 8 0 01-2.13-7.72.92.92 0 00-1.11-1.12 7.8 7.8 0 01-9.87-8.76 7.58 7.58 0 014.76-5.85 8.11 8.11 0 018 1.42c.87.76 2.16-.52 1.28-1.29z"/><path d="M60.88 20.82c3.72-2.9 7.82-5.58 12.48-6.66a15.06 15.06 0 0112.43 2.2c.94.69 1.84-.88.92-1.57-3.85-2.86-8.92-3.43-13.52-2.44-5.1 1.09-9.55 4-13.59 7.19-.92.72.37 2 1.28 1.28zm-30 43.55a24 24 0 004.24.09c.38 0 4.07-.39 4.06-.65l-.46-.19-.08.8-.1 1-.23 2.19-.49 4.78c-.11 1.16 1.7 1.15 1.81 0l.58-5.57c.09-.93.2-1.86.28-2.79a1.89 1.89 0 00-.34-1.63 1.45 1.45 0 00-1.45-.32c-.89.17-1.76.38-2.66.49a23.43 23.43 0 01-5.16 0c-1.16-.12-1.15 1.69 0 1.81zm25.48-40.26a.91.91 0 000-1.81.91.91 0 000 1.81zM8.07 82.87a.91.91 0 000-1.81.91.91 0 000 1.81z"/></svg>