<svg data-name="Слой 1" viewBox="0 0 101.88 101.87" xmlns="http://www.w3.org/2000/svg"><path d="M39.13 51.2a24.79 24.79 0 01-3.73 8.55c-1.87 2.47-4.45 4.12-7 5.73-1 .58-.08 2.07.87 1.49a26.28 26.28 0 007.48-6.1 26.45 26.45 0 004.1-9.21.87.87 0 00-1.67-.46zm27.03 3.97c7.88-4.79 14-14.28 12.6-23.78A11 11 0 0070.41 22a19.88 19.88 0 00-13.95 2.2 26.2 26.2 0 00-10.41 11.06c-.51 1 1 1.86 1.49.87C51.42 28.66 59 22.62 67.77 23.3a11 11 0 015.82 2 9.23 9.23 0 013.25 5.31c1.07 4.38-.07 9.09-2.11 13a25.59 25.59 0 01-9.44 10.06c-1 .58-.09 2.08.87 1.5z"/><path d="M29.13 65.74c-3.17-2.69-8.4-1.44-9.47 2.76a5.85 5.85 0 007.23 7.07l-1.06-1.06c-1.1 4.2 2.8 8.39 7.08 7.1a5.8 5.8 0 001.94-10.08v1.22c2.47-2 4.31-4.6 6.66-6.72A18.06 18.06 0 0150 62c1.08-.24.62-1.91-.46-1.67a19.92 19.92 0 00-8.74 4.1c-2.57 2.18-4.5 5-7.13 7.13a.85.85 0 000 1.22A4 4 0 1127.49 75a.87.87 0 00-1.06-1.07A4.06 4.06 0 1127.91 67c.84.72 2.07-.5 1.22-1.22zm27.36-32.63c3.8-3 9.29-5.77 13.78-2.49.9.65 1.76-.85.87-1.5-5.17-3.77-11.5-.64-15.87 2.77-.88.68.35 1.9 1.22 1.22z"/><path d="M36.53 60.65a13.91 13.91 0 002.66 0c.38 0 .75-.08 1.12-.15s.46-.08.7-.13c.41-.07.46-.09.16-.08l-.51-.4a9.92 9.92 0 01-.25 2.27l-.27 2.68c-.12 1.1 1.61 1.1 1.73 0l.32-3.21c.09-.8.49-2-.11-2.7s-1.37-.24-2.06-.12a12.75 12.75 0 01-3.49.08c-1.11-.11-1.1 1.62 0 1.73zm17.14-25.57a.86.86 0 000-1.72.86.86 0 000 1.72zM23.52 71.19a.87.87 0 000-1.73.87.87 0 000 1.73z"/><path d="M99.22 50.94A48.28 48.28 0 012.8 54.7a48.28 48.28 0 0183-37.18 48 48 0 0113.42 33.42.87.87 0 001.73 0 50 50 0 10-70.63 45.57 50 50 0 0070-37.89 53.35 53.35 0 00.59-7.68.87.87 0 00-1.69 0z"/><path d="M83.78 78.94A43.17 43.17 0 0089 30.55 43.16 43.16 0 0022.94 18.1a.87.87 0 000 1.22l6 6 14.13 14.13 17.27 17.27L75.22 71.6l4.92 4.92c.77.77 1.5 1.6 2.32 2.32l.1.1a.86.86 0 001.22-1.22l-6-6-14.13-14.13-17.27-17.27L31.5 25.44l-4.92-4.92a19.55 19.55 0 00-2.32-2.32l-.1-.1v1.22a41.44 41.44 0 0158.4 58.4c-.71.85.51 2.07 1.22 1.22zm-65.68-56a43.16 43.16 0 0032 71.16A43.59 43.59 0 0079 83.78a.89.89 0 000-1.22l-6-6-14.19-14.13-17.27-17.28-14.88-14.87-4.92-4.92c-.76-.77-1.5-1.6-2.32-2.32a.94.94 0 00-.1-.1.86.86 0 00-1.22 1.22l6 6 14.13 14.13L55.5 61.56l14.88 14.88 4.92 4.92a19.55 19.55 0 002.32 2.32l.1.1v-1.22a41.44 41.44 0 01-58.4-58.4c.68-.85-.5-2.08-1.22-1.22z"/></svg>