<svg data-name="Слой 1" viewBox="0 0 95.43 92.77" xmlns="http://www.w3.org/2000/svg"><path d="M12.62 81.45c.4 1.64.83 3.28 1.27 4.91a15.24 15.24 0 001.29 3.84c1 1.67 2.56 1.67 4.38 1.71H78.1c1.79-.06 3.23-.76 3.64-2.53.63-2.76.91-5.63 1.38-8.41.25-1.42-1.93-2-2.17-.6-.41 2.36-.79 4.74-1.18 7.11-.19 1.22-.25 2.46-1.73 2.58-1 .08-2.12 0-3.15 0h-55a5.85 5.85 0 01-1.77-.16c-1.29-.43-1.53-2.3-1.84-3.44-.51-1.87-1-3.74-1.46-5.61a1.13 1.13 0 00-2.17.6z"/><path d="M4.71 79.78l87.68.13c1.45 0 1.45-1.75 0-1.76l-67-.09L4.71 78a.94.94 0 100 1.85z"/><path d="M4 49.06c-6.09.49-1.77 8.54 0 11.22a40.6 40.6 0 0011.21 10.8 45 45 0 0012.66 6.43 64.05 64.05 0 0015.34 2.2 94.92 94.92 0 0016.68-.81c5.37-.74 10.53-2 15.21-4.85a45.69 45.69 0 0011.78-10 67.92 67.92 0 004.76-6.55c.6-.94 1.17-1.89 1.71-2.86a6.75 6.75 0 001.22-2.95c0-2.71-4.58-2.65-7.18-2.65h-83c-.13 0-2.06 1.85-.61 1.85h86.73a7.12 7.12 0 01.8 0c1.34.17 1 .92.51 1.83a54.16 54.16 0 01-8.42 11.91 41.58 41.58 0 01-11.77 8.75C67 75.7 61.69 76.53 56.56 77a94.55 94.55 0 01-16.05.27 52.65 52.65 0 01-13.92-2.58 47.31 47.31 0 01-12.07-6.9c-4-3-7.74-6.61-10-11.1-.48-1-2.8-5.95-.75-6.12 1.47-.07 1.68-1.63.23-1.51z"/><path d="M19.17 48.37c-4.75-.87-4.88-6.63-4.82-10.4.06-4.94 0-9.89.22-14.83a10.52 10.52 0 011.36-5.61c1.28-1.86 3.6-2.19 5.68-2.28 5-.23 10-.27 14.92-.38 2.18 0 4.56-.12 6.48 1.07a8 8 0 013.25 4.74 22.92 22.92 0 01.42 7.39c-.13 2.53-.28 5.07-.42 7.61s-.2 4.83-.41 7.23c-.17 2-.67 4.3-2.78 5.06s-5.11.32-7.4.33c-4.76 0-9.52.07-14.28.12a1.13 1.13 0 000 2.26q7.31-.09 14.62-.13c2.88 0 6.44.57 9-1a7.12 7.12 0 002.95-5.23 75.21 75.21 0 00.52-7.65c.16-2.86.33-5.73.48-8.59a24.13 24.13 0 00-.56-8.17 10.58 10.58 0 00-3.4-5.33 10.62 10.62 0 00-6.54-2c-2.73-.07-5.49.1-8.22.17s-5.6.1-8.39.21c-2.28.1-4.68.4-6.5 1.9a8.66 8.66 0 00-2.74 5.4 58.35 58.35 0 00-.36 8.36c0 3.26-.1 6.51-.14 9.77-.05 4.69.85 11.1 6.49 12.13 1.42.26 2-1.91.6-2.17z"/><path d="M18.68 31.16l-5.09 3.19c-1.23.77-.1 2.72 1.14 1.95l5.08-3.2c1.23-.77.1-2.72-1.13-1.94zm16.88-17.28c-.06-2.93-.12-6.83 2.22-9 1.49-1.38 3.65-1.48 5.57-1.62 2.23-.16 4.45-.2 6.68-.17s4.63.14 6.94.28 4.56.17 6.78.52c3.91.63 3.57 5.43 3.5 8.45l-.35 15.4a1.13 1.13 0 002.26 0l.35-15.89c.08-3.35 0-7.86-3.46-9.6-2.07-1-4.85-.84-7.1-1-2.64-.18-5.28-.33-7.95-.39s-5.45 0-8.16.19c-2.07.17-4.22.4-6 1.65-3.38 2.5-3.61 7.3-3.54 11.18a1.13 1.13 0 002.26 0z"/><path d="M52.63 3.79C52.3 6.85 52 9.9 51.67 13c-.15 1.44 2.11 1.43 2.26 0 .33-3.06.62-6.11 1-9.17.16-1.44-2.1-1.43-2.25 0zm-3.07 26.57a133.25 133.25 0 0126.62-1.43c1.74.1 3.27.49 4.2 2.08a10.72 10.72 0 011.12 4.69 66.76 66.76 0 01-.58 12.95c-.19 1.42 2 2 2.18.6A63.92 63.92 0 0083.7 35c-.29-3.41-1.5-7.15-5.22-8.06a30.06 30.06 0 00-6.64-.4c-2.63 0-5.26 0-7.88.14a145.08 145.08 0 00-15 1.49c-1.43.21-.82 2.38.6 2.17z"/><path d="M68.28 44a58.36 58.36 0 004 5.4c1 1.11 2.54-.49 1.6-1.59a53 53 0 01-3.6-4.95c-.81-1.2-2.76-.07-2 1.14zM23.52 30.77a1.13 1.13 0 000-2.25 1.13 1.13 0 000 2.25zm29.33-12.03a1.13 1.13 0 000-2.26 1.13 1.13 0 000 2.26zm12.03 20.31a1.13 1.13 0 000-2.26 1.13 1.13 0 000 2.26z"/></svg>