<svg data-name="Слой 1" viewBox="0 0 59.98 89.94" xmlns="http://www.w3.org/2000/svg"><path d="M59.91 86.91V29.82c0-1.13.11-2.33 0-3.47a3.87 3.87 0 00-.35-1.29l-2.8-6.12c-.24-.54-2.78-8.11-3-8.06.24-.07.07.81.13.19V2a2 2 0 00-2-2H9.06a2 2 0 00-2 2v8.6a4.86 4.86 0 000 .54c.07.49-.08-.22.13-.25-.23 0-.85 1.78-.95 2-1.43 3-3 6.06-4.4 9.1L.37 25.08A3.94 3.94 0 000 26.33v50.01c0 3.38-.11 7.08 0 10.46.06 2.07 1.63 3.14 3.55 3.14h53.27a3.07 3.07 0 003.09-3c.08-1.21-1.8-1.2-1.88 0-.1 1.5-2.07 1.15-3.11 1.15H5.09c-1.07 0-3 .34-3.16-1.15a21.11 21.11 0 010-2.25V26.92a2.78 2.78 0 000-.91c0-.08-.28.61-.07.29a7.62 7.62 0 00.44-.91c1.32-2.8 2.7-5.6 4.07-8.39l2.29-4.84a3.13 3.13 0 00.3-1c.07-.92 0-1.89 0-2.79V.94L8 1.88h45l-.93-.94v9.7a4.19 4.19 0 00.37 1.74l1.9 4.16c1.45 3.18 2.1 6.46 3.66 9.56.3.59-.06 0 0-.11-.05.06 0 .31 0 .38v60.54a.94.94 0 001.91 0z"/><path d="M52.46 11H8.08a.94.94 0 000 1.88h44.38a.94.94 0 000-1.88zM14.44 25h-12a.94.94 0 000 1.88h12a.94.94 0 000-1.88zm44.63 0H27.46a.94.94 0 000 1.88h31.61a.94.94 0 000-1.88zm-.8 16.64C43.51 45 29.34 47.91 14.41 50.43c-4.26.72-8.62 1.42-12.89 2.08-1.19.19-.69 2 .5 1.82 15-2.35 30-5 44.8-8.09 4.23-.89 7.75-1.82 12-2.79 1.18-.27.69-2.08-.5-1.81zm.22 23.81c-15 2.47-29.21 5-44.17 7.47L1.35 75c-1.19.2-.68 2 .5 1.82 15-2.46 30-5 45-7.46 4.26-.68 7.85-1.36 12.15-2.1 1.19-.19.68-2-.5-1.81zm-34.9-38.76a1 1 0 000-1.89.95.95 0 000 1.89zM53.42 84.7a.94.94 0 000-1.88.94.94 0 000 1.88z"/></svg>