<svg data-name="Слой 1" viewBox="0 0 132.44 100.99" xmlns="http://www.w3.org/2000/svg"><path d="M61.92 85.83c.09 4.67.29 9.35.5 14 0 .4.33 1.14.74 1.14h38a.76.76 0 00.74-.74 5.31 5.31 0 011.69-3.82 7.11 7.11 0 015.39-1.28c2.39.42 3.67 3.11 4.27 5.29a.76.76 0 00.71.55h17.52a.5.5 0 00.13 0c.54.07 1.13-.89.76-1.49s-.67-1.08-1-1.61c-3.42-5.47-6.83-10.93-10.31-16.35a.75.75 0 00-1.28 0c-1.18 2-3.86 1.76-5.64.76a12.41 12.41 0 01-4.79-4.85 6 6 0 01.11-6.11 15.37 15.37 0 013-2.66.74.74 0 00.12-.89c-1.79-3.61-3.27-7.36-5.23-10.88a34.17 34.17 0 00-8.18-10.17 20.53 20.53 0 00-9.85-4.5 19.48 19.48 0 00-10.51 1.57c-7 3.07-11.71 9.52-14.18 16.6-2.89 8.15-2.86 16.91-2.71 25.44zm25.52-7.5c1 2.83 1.62 7.2-1.42 9a.72.72 0 00-.27.28 2.32 2.32 0 00-.46 0 12 12 0 01-3.11-.16c-3.37-.84-5.47-3.92-6.38-7.1a7.88 7.88 0 01-.18-5 5 5 0 014.48-3c3.46-.1 6.24 2.97 7.34 5.98zm10.33 3.59a4.78 4.78 0 013.89-.43 3.52 3.52 0 012.72 3.11.45.45 0 010 .27.42.42 0 010 .16 3.41 3.41 0 01-2.77 3.47 4.61 4.61 0 01-4.53-2.06 3.14 3.14 0 01.69-4.52zm-9.28-18.65a5.12 5.12 0 01-.31-5.45 4.73 4.73 0 014.91-2.24A5.31 5.31 0 0197 60.33a.45.45 0 01-.05.27 4.1 4.1 0 01-2.75 4.33 5.23 5.23 0 01-5.71-1.66zm-22.1-3.51A30 30 0 0170 52.92a16.31 16.31 0 00-1 5 17.33 17.33 0 001.55 7.7 43.11 43.11 0 004.5 7.17.83.83 0 00.24.22 5.11 5.11 0 00-.55.68 7.28 7.28 0 00-.74 5.49c.63 3.56 2.58 7.3 5.93 9a8.83 8.83 0 004.74.94 2.57 2.57 0 011.14 0c.51.24.87 1.21 1.15 1.68s.64 1.09 1 1.64c.63 1.1 2.71 5.13 3.34 6.23a.68.68 0 00.42.32l.06.11H63.87c-.23-5.06-.43-10.12-.5-15.19-.11-8.12.08-16.45 3.02-24.15zM.09 90.66a14.29 14.29 0 00.55 5.45 7.71 7.71 0 007.24 4.77h35.45a11.92 11.92 0 004.4-.51 7.64 7.64 0 004.24-4 13 13 0 00.64-5.43V53.91c0-4.64.36-9.49-1-14-1.61-5.1-5.87-8.27-8.61-12.62-2.92-4.57-3.08-11-3.1-16.29H42a1 1 0 001-1V4.32C43 2.1 41.82.2 39.42.12 36.86 0 34.29 0 31.73 0H14.92a13.21 13.21 0 00-2.18.05c-2.45.42-3 2.74-3 4.84V10a1 1 0 001 1h2.11a64.4 64.4 0 01-.48 8.68 19.13 19.13 0 01-2.43 7.22A58.06 58.06 0 015 33.12a20.46 20.46 0 00-3.73 6.33 26.31 26.31 0 00-1.19 7.93c-.19 8 0 16.06 0 24.08V84.9c.02 1.92.01 3.84.01 5.76zm50.52-44.2h-5.69c-10.56 0-42.33 18.9-42.33 0 0-.23-.4.08-.55.19a20.81 20.81 0 011.65-8.08c2.1-4.52 6.41-7.53 8.64-12S14.8 16 14.82 11h11.56a1 1 0 000-2H11.72V4.67C11.72 3.32 12 2 13.61 2c6.5-.11 12.61 0 19.11 0 2.21 0 4.5-.17 6.71 0 1.8.13 1.57 2.06 1.57 3.37V9h-8.1a1 1 0 000 2h4.94a71.39 71.39 0 00.43 8.4 23.79 23.79 0 001.91 7 27.31 27.31 0 004.24 6 28.83 28.83 0 014.47 6.13 19.92 19.92 0 011.67 7.76s.04.12.05.17z"/></svg>