<svg data-name="Слой 1" viewBox="0 0 116.99 83.03" xmlns="http://www.w3.org/2000/svg"><path d="M114.06 36a23.19 23.19 0 00-2.9-4.37 54.32 54.32 0 00-12.42-11 33.18 33.18 0 00-5.43-2.8c-1.7-.72-4.18-1.45-5.61.21a1.78 1.78 0 00-.26.37c-1.61 1.55-2.59 3.82-3.83 5.62A35.85 35.85 0 0181.18 27a74.33 74.33 0 00-8-1.25 25.77 25.77 0 00-8.08.25 13.25 13.25 0 00-1.66.5 20.38 20.38 0 00-11.31-8 24.61 24.61 0 01.29-5c.3-1.8 1-3.72.74-5.57A4.19 4.19 0 0052.34 6a2.39 2.39 0 00-.13-.21 6.1 6.1 0 00-2.89-2 24.84 24.84 0 00-4.7-1.38 54.79 54.79 0 00-16.37-.6 33.66 33.66 0 00-5.87 1.23A9.13 9.13 0 0019 4.66a.82.82 0 00-.38.38 2.79 2.79 0 00-.74 1.89 2.26 2.26 0 00.06.53c-.24 2.42.52 5 .66 7.36.06 1.08.07 2.16 0 3.23a22.17 22.17 0 00-13.4 9.87 21.61 21.61 0 00-2.13 17.41C6.87 58 21.45 63.81 33.64 64.07a41.75 41.75 0 0020.24-4.73c.18.41.36.82.56 1.22 4.16 8.45 12 14.79 20.62 18.3 9.16 3.72 20.12 4 28.23-2.28a19.4 19.4 0 007.5-12.17c.84-5.6-1-11.21-4-15.92a24.4 24.4 0 013.45-3.66c1.35-1.18 3.12-2.15 4-3.75a4.17 4.17 0 00.49-1.8 5.22 5.22 0 00-.67-3.28zM97.79 22.19a56.25 56.25 0 0110.32 8.71 38.23 38.23 0 012.42 3 12.55 12.55 0 012.31 4 .91.91 0 000 .33 3.61 3.61 0 010 .79c-.3.76-1.53.53-2.34.25a28.35 28.35 0 01-3.85-1.74 39.18 39.18 0 01-6.38-4.3 57.93 57.93 0 01-5.57-5.28 33.17 33.17 0 01-4.88-6.15c-.3-.53-1-1.64-.84-2.3a5.23 5.23 0 01.86-.59 3.14 3.14 0 01.61 0 6.6 6.6 0 012.2.67 31.58 31.58 0 015.14 2.61zM27.9 31.44c-.06-2.1 0-4.21-.12-6.31-.05-1.22-2-1.22-1.89 0 .09 2 .06 4 .11 6a27.81 27.81 0 01-3.11-.8c-1.47-.46-3.28-1.11-3.26-3s.52-3.71.71-5.53a46.91 46.91 0 00.25-5.16 39.07 39.07 0 00-.45-5.4c-.08-.52-.17-1.05-.24-1.58a17.46 17.46 0 004.58 1.47A64.55 64.55 0 0034 12.39a47 47 0 007.69-.13 80.93 80.93 0 00-.39 10.56c0 1.21 1.93 1.22 1.9 0a81.13 81.13 0 01.4-10.8h.13a33.92 33.92 0 004.77-1.08 10.49 10.49 0 002.8-1.11c-.17 1.23-.6 2.49-.78 3.66a26.74 26.74 0 00.24 9c.54 2.83 1.34 6-1.94 7.42a24.41 24.41 0 01-5.54 1.3 48 48 0 01-14.7.33zm-5-26.54a30 30 0 015.37-1.15 56.72 56.72 0 0113.28.07 24.29 24.29 0 018 2.21 4.37 4.37 0 01.4.25l.11.11c.16.14.32.29.47.45.32.45.32 1-.41 1.45a12.52 12.52 0 01-3.8 1.27 37.29 37.29 0 01-8.36 1 54.89 54.89 0 01-8-.47 35.55 35.55 0 01-7.86-1.63 5.77 5.77 0 01-1.95-1 .93.93 0 01-.25-.38 4.7 4.7 0 01.27-.88 3 3 0 01.57-.48 7.31 7.31 0 012.14-.82zm-3.83 54.17C13.59 56.71 8.52 53 5.91 47.51a19.94 19.94 0 01-.18-16.59A20.27 20.27 0 0118.58 20c-.14 2-.39 3.95-.68 5.92-.23 1.53-.27 3 .86 4.2A6.36 6.36 0 0021 31.63a26.14 26.14 0 005.21 1.44l.62.1a49.16 49.16 0 0015.69 0 31.76 31.76 0 006.68-1.47 5.9 5.9 0 003.92-6.43c-.15-1.65-.59-3.26-.83-4.9a18.42 18.42 0 019.39 6.84 19.58 19.58 0 00-7 7.39 27.71 27.71 0 00-1.56 22.92 40 40 0 01-34.05 1.55zm90 3.68A16.86 16.86 0 01104 73.46c-6.68 6.65-16.62 7.39-25.27 4.7A38.67 38.67 0 0157.89 62.8 27 27 0 0154.8 39c1.56-4.33 4.76-9.09 9.23-10.79a18.44 18.44 0 018.16-.65 68.21 68.21 0 017.51 1.07c-1 1-1.94 1.95-3 2.88s-2.56 2-3 3.47a5 5 0 00.44 3.63 22.37 22.37 0 002.9 4.3 47.84 47.84 0 0012.9 11 29.17 29.17 0 006.36 3.2c3.18 1 5.69-.6 7.3-3.31.72-1.2 1.35-2.45 2.07-3.64a21.94 21.94 0 013.41 12.59zm-.26-19.15a26.37 26.37 0 00-5.45 6.72c-1.46 2.57-2.78 6.06-6.42 5.06a24.35 24.35 0 01-5.46-2.7A47.66 47.66 0 0179.6 43l-.41-.46c1.6-1.8 3.24-3.57 4.88-5.34.83-.89-.51-2.23-1.34-1.33a335.8 335.8 0 00-4.75 5.19 25.31 25.31 0 01-1.72-2.51 5.48 5.48 0 01-.68-1.48c-.53-1.81.78-2.67 2-3.75a53.24 53.24 0 006.85-7.31 43.49 43.49 0 002.62-4l.51-.81c.06.16.13.33.2.48a18.22 18.22 0 002.67 4.07 64.49 64.49 0 006.34 6.78c.7.65 1.41 1.27 2.15 1.88-1.72 2-3.4 4-5 6.12-.72 1 .93 1.93 1.64 1 1.49-2 3.13-4 4.79-5.9.72.55 1.47 1.09 2.23 1.59a66.62 66.62 0 00-7 8.85c-.67 1 1 2 1.64 1a63.71 63.71 0 017-8.76 36.48 36.48 0 003.83 2 12 12 0 003.45 1.19c-.82.73-1.89 1.4-2.68 2.1z"/><path d="M69.83 66.07a23.18 23.18 0 01-7.12-27.61c.48-1.11-1.15-2.07-1.64-1a25.07 25.07 0 007.42 29.91c.95.77 2.3-.56 1.34-1.3zM34.3 56.19c-5.14.3-10.42-1.81-14.64-4.6-4.55-3-8.67-8-8.6-13.77a1 1 0 00-1.89 0c-.08 6.16 4.12 11.64 9 15 4.59 3.19 10.5 5.6 16.18 5.27 1.16-.09 1.17-1.97-.05-1.9zm2.83.88v.06a1 1 0 001.89 0v-.06a1 1 0 00-1.89 0zm35.01 10.86h-.21a.94.94 0 00-.94.94.93.93 0 00.28.67 1 1 0 00.66.28h.21a1 1 0 00.67-.28.93.93 0 00.28-.67 1 1 0 00-.28-.67 1 1 0 00-.67-.27zM75.3 70h-.21a1 1 0 00-.67.28.94.94 0 00.67 1.61h.21a1 1 0 00.67-.27.94.94 0 000-1.34 1 1 0 00-.67-.28zM23.36 7.57a.92.92 0 00.64-.28 1 1 0 00.28-.66v-.22a.94.94 0 00-1.61-.66 1 1 0 00-.28.66v.22a1 1 0 00.95.94zm3.11.81a1 1 0 00.73-.1 1.32 1.32 0 00.26-.22.87.87 0 00.38-.55 1 1 0 00-.09-.73 1 1 0 00-.57-.44 1 1 0 00-.73.1 1 1 0 00-.25.22.85.85 0 00-.39.55 1 1 0 00.09.73 1 1 0 00.57.44zm2.98-1.86a1 1 0 000-1.89.95.95 0 000 1.89zM26.93 21a1 1 0 00-.67.28A1 1 0 0026 22v.42a1 1 0 00.28.67 1 1 0 00.67.27 1 1 0 00.67-.27 1 1 0 00.28-.67V22a1 1 0 00-.28-.67.93.93 0 00-.69-.33zm15.35 5.92a.93.93 0 00.67-.28 1 1 0 00.28-.67v-.21a1 1 0 00-.28-.67 1 1 0 00-.67-.27 1 1 0 00-.67.27 1 1 0 00-.27.67V26a.94.94 0 00.94 1zm43.01 6.42a1.07 1.07 0 00-.74.3.94.94 0 00-.29.69 1 1 0 00.14.51.92.92 0 00.56.44 1.33 1.33 0 00.28 0 1 1 0 00.38 0 .94.94 0 00.56-.43 1 1 0 00-.07-1.11 1 1 0 00-.82-.4zm.86 1zm0-.24v.08a1.13 1.13 0 00-.08-.24zm-1.66 0v-.07s-.03.09-.03.11zm9 9.54a1 1 0 00-.28-.67.93.93 0 00-.67-.28 1 1 0 00-.67.28 1 1 0 00-.27.67v.21a1 1 0 00.27.67 1 1 0 00.67.27 1 1 0 00.67-.27 1 1 0 00.28-.67zm0 5.68a1 1 0 001.89 0 .95.95 0 00-1.89 0zm5.79-19.71a.94.94 0 00.56.44 1 1 0 001.17-.66 1 1 0 00-.1-.73l-.21-.42a.94.94 0 00-.57-.44 1 1 0 00-.72.1.94.94 0 00-.44.57 1 1 0 00.1.72zm-2.11-3.11a1 1 0 00.67-.28 1 1 0 00.28-.67v-.21a1 1 0 00-.28-.67.94.94 0 00-.67-.27 1 1 0 00-.67.27 1 1 0 00-.28.67v.21a1 1 0 00.28.67.93.93 0 00.67.28z"/></svg>