<svg data-name="Слой 1" viewBox="0 0 67.51 101.53" xmlns="http://www.w3.org/2000/svg"><path d="M10 46.38C8.43 39 9.58 31.3 12.14 24.23c2.39-6.6 6-13.86 11.74-18.12A16 16 0 0135.17 2.8c1.36.15 1.35-2 0-2.14C27.3-.22 20.56 5 16.34 11.14a54 54 0 00-8.75 22.25A38.62 38.62 0 007.94 47c.28 1.34 2.34.77 2.05-.57z"/><path d="M59.52 47c1.69-8 .48-16.28-2.37-23.88C54.5 16 50.66 8.49 44.33 4a17.77 17.77 0 00-12-3.38c-1.35.15-1.36 2.29 0 2.14C39.79 2 46 7.1 49.83 13.05a53.27 53.27 0 017.91 20.49 35.75 35.75 0 01-.28 12.84c-.28 1.34 1.77 1.91 2.06.57zm-32.2-34.86a40.14 40.14 0 00-6.9 11.24c-.52 1.27 1.54 1.83 2.06.57a37 37 0 016.35-10.3c.89-1-.61-2.55-1.51-1.51z"/><path d="M20.13 99c-1.57-.11.38-2.68.71-3a38.1 38.1 0 002.94-3c1.62-1.91 3.14-4.2 3-6.81a4.56 4.56 0 00-1.43-3.35 11.64 11.64 0 00-3.42-1.65 28.78 28.78 0 01-6.78-3.9A32.89 32.89 0 012.59 49.56c0-.44.26-.75-.25-.58a.27.27 0 00.09 0 2.67 2.67 0 01.4 0H64a5.36 5.36 0 011.06 0h.08c-.56-.21-.27.33-.24.75a36.6 36.6 0 010 4.19 32 32 0 01-4.84 14.77 31.71 31.71 0 01-11.12 10.85 27.14 27.14 0 01-3.56 1.72A9.88 9.88 0 0042 83c-1.87 1.78-1.49 4.78-.47 6.88a23 23 0 005.24 6.31c.48.45 2 2.54.59 2.87h-.38c-2.25.06-4.5 0-6.75 0h-20.1a1 1 0 100 1.93h27.18c1.84-.08 3.23-1.54 2.64-3.38a11.24 11.24 0 00-2.44-3.66 25 25 0 01-3.25-3.64 7.11 7.11 0 01-1.43-3.42 3.28 3.28 0 01.4-2.09 4.63 4.63 0 012.24-1.26 32.69 32.69 0 0013.07-9.15A35.34 35.34 0 0066 60.2a32.55 32.55 0 001.07-8c0-2.49.39-4.91-2-5.08-3.32-.24-6.74 0-10.07 0H13c-3.49 0-7.06-.21-10.55 0C.3 47.28.47 48.66.39 51a32.07 32.07 0 00.81 8.17 35.16 35.16 0 007.09 14.4 32.58 32.58 0 0012.77 9.56c1.26.52 3.07.82 3.49 2.32a5.23 5.23 0 01-.76 3.92A18 18 0 0121 92.88c-.94 1-2.08 1.83-3 2.86-1.54 1.84-.15 5.05 2.08 5.21 1.42.1 1.41-1.83.05-1.95z"/><path d="M2.65 57.91h44.01a.92.92 0 100-1.83H2.65a.93.93 0 100 1.84zM21.62 95h25.04a1 1 0 100-1.94H21.62a1 1 0 100 1.94zM19.7 28.66a1.07 1.07 0 000-2.14 1.07 1.07 0 000 2.14zm32.21 29.25a1.07 1.07 0 000-2.14 1.07 1.07 0 000 2.14z"/></svg>