<svg viewBox="0 0 146 155.7" xmlns="http://www.w3.org/2000/svg"><path class="clst0" d="M119.6 95.6c0-17.4-22.2-51.6-35.3-70.2-4.6-6.5-14.2-6.5-18.8 0C52.3 44 30.1 78.2 30.1 95.6c0 24.7 20 44.8 44.8 44.8s44.7-20.1 44.7-44.8z"/><path class="clst1" d="M75 20.4h56M75 140.5h56"/><path class="clst2" d="M119.6 95.6c0-17.4-22.2-51.6-35.3-70.2-4.6-6.5-14.2-6.5-18.8 0C52.3 44 30.1 78.2 30.1 95.6c0 24.7 20 44.8 44.8 44.8s44.7-20.1 44.7-44.8z"/><path class="clst3" d="M119.6 95.6c0-17.4-22.2-51.6-35.3-70.2-4.6-6.5-14.2-6.5-18.8 0C52.3 44 30.1 78.2 30.1 95.6c0 24.7 20 44.8 44.8 44.8s44.7-20.1 44.7-44.8z"/><path class="clst4" d="M39 34.8c0-3-3.8-8.8-6.1-12-.8-1.1-2.4-1.1-3.2 0-2.2 3.2-6.1 9-6.1 12 0 4.2 3.4 7.7 7.7 7.7s7.7-3.4 7.7-7.7z"/><path class="clst5" d="M84.2 25.4c-4.4-6.7-14.2-6.5-18.8 0C52.3 44 30.1 78.2 30.1 95.6c0 24.7 20 44.8 44.8 44.8-61.9-.1 41.1-66.4 9.3-115z"/></svg>