<svg id="Слой_1" data-name="Слой 1" xmlns="http://www.w3.org/2000/svg" xmlns:xlink="http://www.w3.org/1999/xlink" viewBox="0 0 1920 1228.81"><defs><style>.cls-1{opacity:.25}</style><linearGradient id="Безымянный_градиент_1293" x1="658.7" y1="589.28" x2="713.7" y2="589.28" gradientUnits="userSpaceOnUse"><stop offset=".3" stop-color="#3f5cff" stop-opacity="0"/><stop offset="1" stop-color="#0fa"/></linearGradient><linearGradient id="Безымянный_градиент_1293-2" x1="437.7" y1="617.8" x2="482.7" y2="617.8" xlink:href="#Безымянный_градиент_1293"/><linearGradient id="Безымянный_градиент_1293-3" x1="-231.3" y1="242.07" x2="951.7" y2="242.07" xlink:href="#Безымянный_градиент_1293"/><linearGradient id="Безымянный_градиент_1293-4" x1="490.7" y1="243.56" x2="563.7" y2="243.56" xlink:href="#Безымянный_градиент_1293"/><linearGradient id="Безымянный_градиент_1293-5" x1="-231.3" y1="230.98" x2="729.7" y2="230.98" xlink:href="#Безымянный_градиент_1293"/><linearGradient id="Безымянный_градиент_1293-6" x1="-231.3" y1="383.28" x2="1073.7" y2="383.28" xlink:href="#Безымянный_градиент_1293"/><linearGradient id="Безымянный_градиент_1293-7" x1="-231.3" y1="262.5" x2="471.7" y2="262.5" xlink:href="#Безымянный_градиент_1293"/><linearGradient id="Безымянный_градиент_1293-8" x1="-231.3" y1="447.43" x2="928.7" y2="447.43" xlink:href="#Безымянный_градиент_1293"/><linearGradient id="Безымянный_градиент_1293-9" x1="-231.3" y1="418.73" x2="645.7" y2="418.73" xlink:href="#Безымянный_градиент_1293"/><linearGradient id="Безымянный_градиент_1293-10" x1="-231.3" y1="389.75" x2="361.7" y2="389.75" xlink:href="#Безымянный_градиент_1293"/><linearGradient id="Безымянный_градиент_1293-11" x1="-231.3" y1="576.11" x2="823.7" y2="576.11" xlink:href="#Безымянный_градиент_1293"/><linearGradient id="Безымянный_градиент_1293-12" x1="-231.3" y1="539.63" x2="513.7" y2="539.63" xlink:href="#Безымянный_градиент_1293"/><linearGradient id="Безымянный_градиент_1293-13" x1="373.7" y1="819.26" x2="468.7" y2="819.26" xlink:href="#Безымянный_градиент_1293"/><linearGradient id="Безымянный_градиент_1293-14" x1="2194.16" y1="1063.01" x2="1014.24" y2="381.79" xlink:href="#Безымянный_градиент_1293"/><linearGradient id="Безымянный_градиент_1293-15" x1="1449.16" y1="775.09" x2="1379.24" y2="734.72" xlink:href="#Безымянный_градиент_1293"/><linearGradient id="Безымянный_градиент_1293-16" x1="2194.16" y1="1010.01" x2="1236.24" y2="456.96" xlink:href="#Безымянный_градиент_1293"/><linearGradient id="Безымянный_градиент_1293-17" x1="2194.16" y1="957.01" x2="892.24" y2="205.35" xlink:href="#Безымянный_градиент_1293"/><linearGradient id="Безымянный_градиент_1293-18" x1="2194.16" y1="904.01" x2="1494.24" y2="499.91" xlink:href="#Безымянный_градиент_1293"/><linearGradient id="Безымянный_градиент_1293-19" x1="1431.16" y1="465.17" x2="1379.24" y2="435.2" xlink:href="#Безымянный_градиент_1293"/><linearGradient id="Безымянный_градиент_1293-20" x1="2194.16" y1="851.01" x2="1037.24" y2="183.07" xlink:href="#Безымянный_градиент_1293"/><linearGradient id="Безымянный_градиент_1293-21" x1="2194.16" y1="798.01" x2="1320.24" y2="293.46" xlink:href="#Безымянный_градиент_1293"/><linearGradient id="Безымянный_градиент_1293-22" x1="2194.16" y1="745.01" x2="1604.24" y2="404.42" xlink:href="#Безымянный_градиент_1293"/><linearGradient id="Безымянный_градиент_1293-23" x1="2194.16" y1="692.01" x2="1142.24" y2="84.69" xlink:href="#Безымянный_градиент_1293"/><linearGradient id="Безымянный_градиент_1293-24" x1="2194.16" y1="639.01" x2="1452.24" y2="210.67" xlink:href="#Безымянный_градиент_1293"/><linearGradient id="Безымянный_градиент_1372" x1="1817.95" y1="62.1" x2="1825.45" y2="75.09" gradientUnits="userSpaceOnUse"><stop offset="0" stop-color="#0fa"/><stop offset=".92" stop-color="#3f5cff" stop-opacity="0"/></linearGradient><linearGradient id="Безымянный_градиент_1372-2" x1="1857.95" y1="196.1" x2="1865.45" y2="209.09" xlink:href="#Безымянный_градиент_1372"/><linearGradient id="Безымянный_градиент_1372-3" x1="1621.95" y1="178.17" x2="1637.45" y2="205.02" xlink:href="#Безымянный_градиент_1372"/><linearGradient id="Безымянный_градиент_1372-4" x1="1775.95" y1="123.57" x2="1779.45" y2="129.63" xlink:href="#Безымянный_градиент_1372"/><linearGradient id="Безымянный_градиент_1372-5" x1="1608.95" y1="102.57" x2="1612.45" y2="108.63" xlink:href="#Безымянный_градиент_1372"/><linearGradient id="Безымянный_градиент_1372-6" x1="1692.95" y1="274.57" x2="1696.45" y2="280.63" xlink:href="#Безымянный_градиент_1372"/><linearGradient id="Безымянный_градиент_1372-7" x1="1821.95" y1="245.57" x2="1825.45" y2="251.63" xlink:href="#Безымянный_градиент_1372"/><linearGradient id="Безымянный_градиент_1372-8" x1="4001.49" y1="2911.77" x2="4016.19" y2="2914.73" gradientTransform="rotate(38.6 5191.297 -3792.097)" xlink:href="#Безымянный_градиент_1372"/><linearGradient id="Безымянный_градиент_1372-9" x1="4192.09" y1="2915.93" x2="4206.8" y2="2918.89" gradientTransform="rotate(38.6 5191.297 -3792.097)" xlink:href="#Безымянный_градиент_1372"/><linearGradient id="Безымянный_градиент_1372-10" x1="4176.61" y1="2794.76" x2="4207" y2="2800.89" gradientTransform="rotate(38.6 5191.297 -3792.097)" xlink:href="#Безымянный_градиент_1372"/><linearGradient id="Безымянный_градиент_1372-11" x1="4112.01" y1="2840.72" x2="4118.87" y2="2842.1" gradientTransform="rotate(38.6 5191.297 -3792.097)" xlink:href="#Безымянный_градиент_1372"/><linearGradient id="Безымянный_градиент_1372-12" x1="3945.01" y1="2819.72" x2="3951.87" y2="2821.1" gradientTransform="rotate(38.6 5191.297 -3792.097)" xlink:href="#Безымянный_градиент_1372"/><linearGradient id="Безымянный_градиент_1372-13" x1="4029.01" y1="2991.72" x2="4035.87" y2="2993.1" gradientTransform="rotate(38.6 5191.297 -3792.097)" xlink:href="#Безымянный_градиент_1372"/><linearGradient id="Безымянный_градиент_1372-14" x1="4158.01" y1="2962.72" x2="4164.87" y2="2964.1" gradientTransform="rotate(38.6 5191.297 -3792.097)" xlink:href="#Безымянный_градиент_1372"/><linearGradient id="Безымянный_градиент_40" x1="1694.2" y1="917.5" x2="1397.95" y2="746.46" gradientUnits="userSpaceOnUse"><stop offset=".3" stop-color="#3fa9f5" stop-opacity="0"/><stop offset="1" stop-color="#3fa9f5"/></linearGradient><linearGradient id="Безымянный_градиент_40-2" x1="10645.8" y1="-8848.7" x2="10349.55" y2="-9019.74" gradientTransform="rotate(180 5449.875 -4381.12)" xlink:href="#Безымянный_градиент_40"/></defs><path d="M702.19 610a11.5 11.5 0 0 1-5.74-1.54l-32-18.48a11.5 11.5 0 1 1 11.55-19.9l32 18.48a11.5 11.5 0 0 1-5.81 21.44z" fill="url(#Безымянный_градиент_1293)"/><path d="M471.19 635.65a11.4 11.4 0 0 1-5.74-1.54l-22-12.7A11.5 11.5 0 1 1 455 601.49l22 12.7a11.5 11.5 0 0 1-5.76 21.46z" fill="url(#Безымянный_градиент_1293-2)"/><path d="M940.19 588.43a11.5 11.5 0 0 1-5.74-1.54l-1160-669.73a11.51 11.51 0 0 1-4.21-15.71 11.51 11.51 0 0 1 15.76-4.21L946 567a11.5 11.5 0 0 1-5.76 21.46z" fill="url(#Безымянный_градиент_1293-3)"/><path d="M552.19 269.5a11.41 11.41 0 0 1-5.74-1.55l-50-28.86A11.5 11.5 0 0 1 508 219.17L558 248a11.5 11.5 0 0 1-5.76 21.46z" fill="url(#Безымянный_градиент_1293-4)"/><path d="M718.19 513.26a11.5 11.5 0 0 1-5.74-1.54l-938-541.56a11.51 11.51 0 0 1-4.21-15.71A11.51 11.51 0 0 1-214-49.76L724 491.8a11.5 11.5 0 0 1-5.76 21.46z" fill="url(#Безымянный_градиент_1293-5)"/><path d="M1062.19 764.87a11.41 11.41 0 0 1-5.74-1.55l-1282-740.16a11.51 11.51 0 0 1-4.21-15.71A11.51 11.51 0 0 1-214 3.24l1282 740.17a11.5 11.5 0 0 1-5.76 21.46z" fill="url(#Безымянный_градиент_1293-6)"/><path d="M460.19 470.3a11.5 11.5 0 0 1-5.74-1.54l-680-392.6a11.51 11.51 0 0 1-4.21-15.71A11.51 11.51 0 0 1-214 56.24l680 392.6a11.5 11.5 0 0 1-5.76 21.46z" fill="url(#Безымянный_градиент_1293-7)"/><path d="M917.19 787.15a11.5 11.5 0 0 1-5.74-1.54l-1137-656.45a11.51 11.51 0 0 1-4.21-15.71 11.51 11.51 0 0 1 15.76-4.21L923 765.69a11.5 11.5 0 0 1-5.76 21.46z" fill="url(#Безымянный_градиент_1293-8)"/><path d="M634.19 676.76a11.5 11.5 0 0 1-5.74-1.54l-854-493.06a11.51 11.51 0 0 1-4.21-15.71 11.51 11.51 0 0 1 15.76-4.21L640 655.3a11.5 11.5 0 0 1-5.76 21.46z" fill="url(#Безымянный_градиент_1293-9)"/><path d="M350.19 565.79a11.4 11.4 0 0 1-5.74-1.54l-570-329.09a11.51 11.51 0 0 1-4.21-15.71 11.51 11.51 0 0 1 15.76-4.21l570 329.09a11.5 11.5 0 0 1-5.76 21.46z" fill="url(#Безымянный_градиент_1293-10)"/><path d="M812.19 885.53a11.5 11.5 0 0 1-5.74-1.54l-1032-595.83a11.51 11.51 0 0 1-4.21-15.71 11.51 11.51 0 0 1 15.76-4.21L818 864.07a11.5 11.5 0 0 1-5.76 21.46z" fill="url(#Безымянный_градиент_1293-11)"/><path d="M502.19 759.55a11.5 11.5 0 0 1-5.74-1.54l-722-416.85a11.51 11.51 0 0 1-4.21-15.71 11.51 11.51 0 0 1 15.76-4.21l722 416.85a11.5 11.5 0 0 1-5.76 21.46z" fill="url(#Безымянный_градиент_1293-12)"/><path d="M457.19 851.55a11.41 11.41 0 0 1-5.74-1.55l-72-41.57A11.5 11.5 0 1 1 391 788.51l72 41.57a11.51 11.51 0 0 1-5.76 21.47z" fill="url(#Безымянный_градиент_1293-13)"/><path d="M2184.19 1068.76a11.4 11.4 0 0 1-5.74-1.54l-1160-669.72a11.5 11.5 0 0 1 11.5-19.92L2190 1047.3a11.5 11.5 0 0 1-5.76 21.46z" fill="url(#Безымянный_градиент_1293-14)"/><path d="M1439.19 780.84a11.5 11.5 0 0 1-5.74-1.54l-50-28.87a11.5 11.5 0 0 1 11.5-19.92l50 28.87a11.5 11.5 0 0 1-5.76 21.46z" fill="url(#Безымянный_градиент_1293-15)"/><path d="M2184.19 1015.76a11.4 11.4 0 0 1-5.74-1.54l-938-541.55a11.5 11.5 0 0 1 11.5-19.92L2190 994.3a11.5 11.5 0 0 1-5.76 21.46z" fill="url(#Безымянный_градиент_1293-16)"/><path d="M2184.19 962.76a11.4 11.4 0 0 1-5.74-1.54l-1282-740.16A11.5 11.5 0 1 1 908 201.14L2190 941.3a11.5 11.5 0 0 1-5.76 21.46z" fill="url(#Безымянный_градиент_1293-17)"/><path d="M2184.19 909.76a11.4 11.4 0 0 1-5.74-1.54l-680-392.6a11.5 11.5 0 1 1 11.5-19.91L2190 888.3a11.5 11.5 0 0 1-5.76 21.46z" fill="url(#Безымянный_градиент_1293-18)"/><path d="M1421.19 470.92a11.4 11.4 0 0 1-5.74-1.54l-32-18.47A11.5 11.5 0 0 1 1395 431l32 18.47a11.5 11.5 0 0 1-5.76 21.46z" fill="url(#Безымянный_градиент_1293-19)"/><path d="M2184.19 856.76a11.4 11.4 0 0 1-5.74-1.54l-1137-656.45a11.5 11.5 0 1 1 11.5-19.91L2190 835.3a11.5 11.5 0 0 1-5.76 21.46z" fill="url(#Безымянный_градиент_1293-20)"/><path d="M2184.19 803.76a11.4 11.4 0 0 1-5.74-1.54l-854-493a11.5 11.5 0 0 1 11.5-19.92l854.05 493a11.5 11.5 0 0 1-5.76 21.46z" fill="url(#Безымянный_градиент_1293-21)"/><path d="M2184.19 750.76a11.4 11.4 0 0 1-5.74-1.54l-570-329.09a11.5 11.5 0 0 1 11.5-19.92L2190 729.3a11.5 11.5 0 0 1-5.76 21.46z" fill="url(#Безымянный_градиент_1293-22)"/><path d="M2184.19 697.76a11.4 11.4 0 0 1-5.74-1.54l-1032-595.82A11.5 11.5 0 0 1 1158 80.48L2190 676.3a11.5 11.5 0 0 1-5.76 21.46z" fill="url(#Безымянный_градиент_1293-23)"/><path d="M2184.19 644.76a11.4 11.4 0 0 1-5.74-1.54l-722-416.84a11.5 11.5 0 0 1 11.5-19.92L2190 623.3a11.5 11.5 0 0 1-5.76 21.46z" fill="url(#Безымянный_градиент_1293-24)"/><g class="cls-1"><circle cx="1821.7" cy="68.6" r="7.5" fill="url(#Безымянный_градиент_1372)"/><circle cx="1861.7" cy="202.6" r="7.5" fill="url(#Безымянный_градиент_1372-2)"/><circle cx="1629.7" cy="191.6" r="15.5" fill="url(#Безымянный_градиент_1372-3)"/><circle cx="1777.7" cy="126.6" r="3.5" fill="url(#Безымянный_градиент_1372-4)"/><circle cx="1610.7" cy="105.6" r="3.5" fill="url(#Безымянный_градиент_1372-5)"/><circle cx="1694.7" cy="277.6" r="3.5" fill="url(#Безымянный_градиент_1372-6)"/><circle cx="1823.7" cy="248.6" r="3.5" fill="url(#Безымянный_градиент_1372-7)"/></g><g class="cls-1"><circle cx="83.7" cy="710.6" r="7.5" fill="url(#Безымянный_градиент_1372-8)"/><circle cx="230.06" cy="832.77" r="7.5" fill="url(#Безымянный_градиент_1372-9)"/><circle cx="298.71" cy="734.55" r="15.5" fill="url(#Безымянный_градиент_1372-10)"/><circle cx="211.83" cy="720.97" r="3.5" fill="url(#Безымянный_градиент_1372-11)"/><circle cx="94.43" cy="600.36" r="3.5" fill="url(#Безымянный_градиент_1372-12)"/><circle cx="52.76" cy="787.19" r="3.5" fill="url(#Безымянный_градиент_1372-13)"/><circle cx="171.67" cy="845.01" r="3.5" fill="url(#Безымянный_градиент_1372-14)"/></g><path fill="url(#Безымянный_градиент_40)" d="M1397.95 746.46L1694.2 917.5"/><path fill="url(#Безымянный_градиент_40-2)" d="M550.2 257.5L253.95 86.46"/></svg>