<svg id="Слой_1" data-name="Слой 1" xmlns="http://www.w3.org/2000/svg" xmlns:xlink="http://www.w3.org/1999/xlink" viewBox="0 0 1920 969.06"><defs><style>.cls-1{opacity:.25}</style><linearGradient id="Безымянный_градиент_1342" x1="658.7" y1="589.38" x2="713.7" y2="589.38" gradientUnits="userSpaceOnUse"><stop offset=".24" stop-color="#f7931e" stop-opacity="0"/><stop offset="1" stop-color="#ff56ff"/></linearGradient><linearGradient id="Безымянный_градиент_1342-2" x1="437.7" y1="617.9" x2="482.7" y2="617.9" xlink:href="#Безымянный_градиент_1342"/><linearGradient id="Безымянный_градиент_1342-3" x1="-231.3" y1="242.17" x2="951.7" y2="242.17" xlink:href="#Безымянный_градиент_1342"/><linearGradient id="Безымянный_градиент_1342-4" x1="490.7" y1="243.66" x2="563.7" y2="243.66" xlink:href="#Безымянный_градиент_1342"/><linearGradient id="Безымянный_градиент_1342-5" x1="-231.3" y1="231.08" x2="729.7" y2="231.08" xlink:href="#Безымянный_градиент_1342"/><linearGradient id="Безымянный_градиент_1342-6" x1="-231.3" y1="383.38" x2="1073.7" y2="383.38" xlink:href="#Безымянный_градиент_1342"/><linearGradient id="Безымянный_градиент_1342-7" x1="-231.3" y1="262.6" x2="471.7" y2="262.6" xlink:href="#Безымянный_градиент_1342"/><linearGradient id="Безымянный_градиент_1342-8" x1="-231.3" y1="447.53" x2="928.7" y2="447.53" xlink:href="#Безымянный_градиент_1342"/><linearGradient id="Безымянный_градиент_1342-9" x1="-231.3" y1="418.83" x2="645.7" y2="418.83" xlink:href="#Безымянный_градиент_1342"/><linearGradient id="Безымянный_градиент_1342-10" x1="-231.3" y1="389.85" x2="361.7" y2="389.85" xlink:href="#Безымянный_градиент_1342"/><linearGradient id="Безымянный_градиент_1342-11" x1="-231.3" y1="576.21" x2="823.7" y2="576.21" xlink:href="#Безымянный_градиент_1342"/><linearGradient id="Безымянный_градиент_1342-12" x1="-231.3" y1="539.73" x2="513.7" y2="539.73" xlink:href="#Безымянный_градиент_1342"/><linearGradient id="Безымянный_градиент_1342-13" x1="373.7" y1="819.36" x2="468.7" y2="819.36" xlink:href="#Безымянный_градиент_1342"/><linearGradient id="Безымянный_градиент_1293" x1="2194.16" y1="1063.11" x2="1014.24" y2="381.89" gradientUnits="userSpaceOnUse"><stop offset=".3" stop-color="#3f5cff" stop-opacity="0"/><stop offset="1" stop-color="#0fa"/></linearGradient><linearGradient id="Безымянный_градиент_1293-2" x1="1449.16" y1="775.19" x2="1379.24" y2="734.82" xlink:href="#Безымянный_градиент_1293"/><linearGradient id="Безымянный_градиент_1293-3" x1="2194.16" y1="1010.11" x2="1236.24" y2="457.06" xlink:href="#Безымянный_градиент_1293"/><linearGradient id="Безымянный_градиент_1293-4" x1="2194.16" y1="957.11" x2="892.24" y2="205.45" xlink:href="#Безымянный_градиент_1293"/><linearGradient id="Безымянный_градиент_1293-5" x1="2194.16" y1="904.11" x2="1494.24" y2="500.01" xlink:href="#Безымянный_градиент_1293"/><linearGradient id="Безымянный_градиент_1293-6" x1="1431.16" y1="465.27" x2="1379.24" y2="435.3" xlink:href="#Безымянный_градиент_1293"/><linearGradient id="Безымянный_градиент_1293-7" x1="2194.16" y1="851.11" x2="1037.24" y2="183.17" xlink:href="#Безымянный_градиент_1293"/><linearGradient id="Безымянный_градиент_1293-8" x1="2194.16" y1="798.11" x2="1320.24" y2="293.56" xlink:href="#Безымянный_градиент_1293"/><linearGradient id="Безымянный_градиент_1293-9" x1="2194.16" y1="745.11" x2="1604.24" y2="404.52" xlink:href="#Безымянный_градиент_1293"/><linearGradient id="Безымянный_градиент_1293-10" x1="2194.16" y1="692.11" x2="1142.24" y2="84.79" xlink:href="#Безымянный_градиент_1293"/><linearGradient id="Безымянный_градиент_1293-11" x1="2194.16" y1="639.11" x2="1452.24" y2="210.77" xlink:href="#Безымянный_градиент_1293"/><linearGradient id="Безымянный_градиент_1372" x1="1817.95" y1="62.2" x2="1825.45" y2="75.19" gradientUnits="userSpaceOnUse"><stop offset="0" stop-color="#0fa"/><stop offset=".92" stop-color="#3f5cff" stop-opacity="0"/></linearGradient><linearGradient id="Безымянный_градиент_1372-2" x1="1857.95" y1="196.2" x2="1865.45" y2="209.19" xlink:href="#Безымянный_градиент_1372"/><linearGradient id="Безымянный_градиент_1372-3" x1="1621.95" y1="178.27" x2="1637.45" y2="205.12" xlink:href="#Безымянный_градиент_1372"/><linearGradient id="Безымянный_градиент_1372-4" x1="1775.95" y1="123.67" x2="1779.45" y2="129.73" xlink:href="#Безымянный_градиент_1372"/><linearGradient id="Безымянный_градиент_1372-5" x1="1608.95" y1="102.67" x2="1612.45" y2="108.73" xlink:href="#Безымянный_градиент_1372"/><linearGradient id="Безымянный_градиент_1372-6" x1="1692.95" y1="274.67" x2="1696.45" y2="280.73" xlink:href="#Безымянный_градиент_1372"/><linearGradient id="Безымянный_градиент_1372-7" x1="1821.95" y1="245.67" x2="1825.45" y2="251.73" xlink:href="#Безымянный_градиент_1372"/><linearGradient id="Безымянный_градиент_1374" x1="895.95" y1="2104.11" x2="910.66" y2="2107.08" gradientTransform="rotate(38.6 2485.11 238.05)" gradientUnits="userSpaceOnUse"><stop offset="0" stop-color="#ff56ff"/><stop offset="1" stop-color="#f7931e" stop-opacity="0"/></linearGradient><linearGradient id="Безымянный_градиент_1374-2" x1="1086.55" y1="2108.27" x2="1101.26" y2="2111.24" xlink:href="#Безымянный_градиент_1374"/><linearGradient id="Безымянный_градиент_1374-3" x1="1071.07" y1="1987.1" x2="1101.47" y2="1993.23" xlink:href="#Безымянный_градиент_1374"/><linearGradient id="Безымянный_градиент_1374-4" x1="1006.48" y1="2033.06" x2="1013.34" y2="2034.45" xlink:href="#Безымянный_градиент_1374"/><linearGradient id="Безымянный_градиент_1374-5" x1="839.48" y1="2012.06" x2="846.34" y2="2013.45" xlink:href="#Безымянный_градиент_1374"/><linearGradient id="Безымянный_градиент_1374-6" x1="923.48" y1="2184.06" x2="930.34" y2="2185.45" xlink:href="#Безымянный_градиент_1374"/><linearGradient id="Безымянный_градиент_1374-7" x1="1052.48" y1="2155.06" x2="1059.34" y2="2156.45" xlink:href="#Безымянный_градиент_1374"/><linearGradient id="Безымянный_градиент_40" x1="1694.2" y1="917.6" x2="1397.95" y2="746.56" gradientUnits="userSpaceOnUse"><stop offset=".3" stop-color="#3fa9f5" stop-opacity="0"/><stop offset="1" stop-color="#3fa9f5"/></linearGradient><linearGradient id="Безымянный_градиент_1376" x1="5233.8" y1="-788.8" x2="4937.55" y2="-959.84" gradientTransform="rotate(180 2743.875 -351.12)" gradientUnits="userSpaceOnUse"><stop offset=".3" stop-color="#f0a" stop-opacity="0"/><stop offset=".96" stop-color="#f0a" stop-opacity=".96"/><stop offset="1" stop-color="#f0a"/></linearGradient></defs><path d="M702.19 610.12a11.5 11.5 0 0 1-5.74-1.54l-32-18.48A11.5 11.5 0 1 1 676 570.18l32 18.48a11.5 11.5 0 0 1-5.76 21.46z" fill="url(#Безымянный_градиент_1342)"/><path d="M471.19 635.75a11.4 11.4 0 0 1-5.74-1.54l-22-12.7A11.5 11.5 0 1 1 455 601.59l22 12.7a11.5 11.5 0 0 1-5.76 21.46z" fill="url(#Безымянный_градиент_1342-2)"/><path d="M940.19 588.53a11.5 11.5 0 0 1-5.74-1.54l-1160-669.73a11.51 11.51 0 0 1-4.21-15.71 11.51 11.51 0 0 1 15.76-4.21L946 567.07a11.5 11.5 0 0 1-5.76 21.46z" fill="url(#Безымянный_градиент_1342-3)"/><path d="M552.19 269.6a11.41 11.41 0 0 1-5.74-1.55l-50-28.86A11.5 11.5 0 0 1 508 219.27l50 28.87a11.5 11.5 0 0 1-5.76 21.46z" fill="url(#Безымянный_градиент_1342-4)"/><path d="M718.19 513.36a11.5 11.5 0 0 1-5.74-1.54l-938-541.56a11.51 11.51 0 0 1-4.21-15.71A11.51 11.51 0 0 1-214-49.66L724 491.9a11.5 11.5 0 0 1-5.76 21.46z" fill="url(#Безымянный_градиент_1342-5)"/><path d="M1062.19 765a11.41 11.41 0 0 1-5.74-1.55l-1282-740.16a11.51 11.51 0 0 1-4.21-15.71A11.51 11.51 0 0 1-214 3.34l1282 740.17a11.5 11.5 0 0 1-5.76 21.46z" fill="url(#Безымянный_градиент_1342-6)"/><path d="M460.19 470.4a11.5 11.5 0 0 1-5.74-1.54l-680-392.6a11.51 11.51 0 0 1-4.21-15.71A11.51 11.51 0 0 1-214 56.34l680 392.6a11.5 11.5 0 0 1-5.76 21.46z" fill="url(#Безымянный_градиент_1342-7)"/><path d="M917.19 787.25a11.5 11.5 0 0 1-5.74-1.54l-1137-656.45a11.51 11.51 0 0 1-4.21-15.71 11.51 11.51 0 0 1 15.76-4.21L923 765.79a11.5 11.5 0 0 1-5.76 21.46z" fill="url(#Безымянный_градиент_1342-8)"/><path d="M634.19 676.86a11.5 11.5 0 0 1-5.74-1.54l-854-493.06a11.51 11.51 0 0 1-4.21-15.71 11.51 11.51 0 0 1 15.76-4.21L640 655.4a11.5 11.5 0 0 1-5.76 21.46z" fill="url(#Безымянный_градиент_1342-9)"/><path d="M350.19 565.89a11.4 11.4 0 0 1-5.74-1.54l-570-329.09a11.51 11.51 0 0 1-4.21-15.71 11.51 11.51 0 0 1 15.76-4.21l570 329.09a11.5 11.5 0 0 1-5.76 21.46z" fill="url(#Безымянный_градиент_1342-10)"/><path d="M812.19 885.63a11.5 11.5 0 0 1-5.74-1.54l-1032-595.83a11.51 11.51 0 0 1-4.21-15.71 11.51 11.51 0 0 1 15.76-4.21L818 864.17a11.5 11.5 0 0 1-5.76 21.46z" fill="url(#Безымянный_градиент_1342-11)"/><path d="M502.19 759.65a11.5 11.5 0 0 1-5.74-1.54l-722-416.85a11.51 11.51 0 0 1-4.21-15.71 11.51 11.51 0 0 1 15.76-4.21l722 416.85a11.5 11.5 0 0 1-5.76 21.46z" fill="url(#Безымянный_градиент_1342-12)"/><path d="M457.19 851.65a11.41 11.41 0 0 1-5.74-1.55l-72-41.57A11.5 11.5 0 1 1 391 788.61l72 41.57a11.51 11.51 0 0 1-5.76 21.47z" fill="url(#Безымянный_градиент_1342-13)"/><path d="M2184.19 1068.86a11.4 11.4 0 0 1-5.74-1.54l-1160-669.72a11.5 11.5 0 1 1 11.5-19.92L2190 1047.4a11.5 11.5 0 0 1-5.76 21.46z" fill="url(#Безымянный_градиент_1293)"/><path d="M1439.19 780.94a11.5 11.5 0 0 1-5.74-1.54l-50-28.87a11.5 11.5 0 0 1 11.5-19.92l50 28.87a11.5 11.5 0 0 1-5.76 21.46z" fill="url(#Безымянный_градиент_1293-2)"/><path d="M2184.19 1015.86a11.4 11.4 0 0 1-5.74-1.54l-938-541.55a11.5 11.5 0 0 1 11.5-19.92L2190 994.4a11.5 11.5 0 0 1-5.76 21.46z" fill="url(#Безымянный_градиент_1293-3)"/><path d="M2184.19 962.86a11.4 11.4 0 0 1-5.74-1.54l-1282-740.16A11.5 11.5 0 1 1 908 201.24L2190 941.4a11.5 11.5 0 0 1-5.76 21.46z" fill="url(#Безымянный_градиент_1293-4)"/><path d="M2184.19 909.86a11.4 11.4 0 0 1-5.74-1.54l-680-392.6a11.5 11.5 0 1 1 11.5-19.91L2190 888.4a11.5 11.5 0 0 1-5.76 21.46z" fill="url(#Безымянный_градиент_1293-5)"/><path d="M1421.19 471a11.4 11.4 0 0 1-5.74-1.54l-32-18.47a11.5 11.5 0 0 1 11.5-19.92l32 18.47a11.5 11.5 0 0 1-5.76 21.46z" fill="url(#Безымянный_градиент_1293-6)"/><path d="M2184.19 856.86a11.4 11.4 0 0 1-5.74-1.54l-1137-656.45A11.5 11.5 0 1 1 1053 179l1137 656.4a11.5 11.5 0 0 1-5.76 21.46z" fill="url(#Безымянный_градиент_1293-7)"/><path d="M2184.19 803.86a11.4 11.4 0 0 1-5.74-1.54l-854-493.05a11.5 11.5 0 0 1 11.5-19.92L2190 782.4a11.5 11.5 0 0 1-5.76 21.46z" fill="url(#Безымянный_градиент_1293-8)"/><path d="M2184.19 750.86a11.4 11.4 0 0 1-5.74-1.54l-570-329.09a11.5 11.5 0 0 1 11.5-19.92L2190 729.4a11.5 11.5 0 0 1-5.76 21.46z" fill="url(#Безымянный_градиент_1293-9)"/><path d="M2184.19 697.86a11.4 11.4 0 0 1-5.74-1.54l-1032-595.82A11.5 11.5 0 0 1 1158 80.58L2190 676.4a11.5 11.5 0 0 1-5.76 21.46z" fill="url(#Безымянный_градиент_1293-10)"/><path d="M2184.19 644.86a11.4 11.4 0 0 1-5.74-1.54l-722-416.84a11.5 11.5 0 0 1 11.5-19.92L2190 623.4a11.5 11.5 0 0 1-5.76 21.46z" fill="url(#Безымянный_градиент_1293-11)"/><g class="cls-1"><circle cx="1821.7" cy="68.7" r="7.5" fill="url(#Безымянный_градиент_1372)"/><circle cx="1861.7" cy="202.7" r="7.5" fill="url(#Безымянный_градиент_1372-2)"/><circle cx="1629.7" cy="191.7" r="15.5" fill="url(#Безымянный_градиент_1372-3)"/><circle cx="1777.7" cy="126.7" r="3.5" fill="url(#Безымянный_градиент_1372-4)"/><circle cx="1610.7" cy="105.7" r="3.5" fill="url(#Безымянный_градиент_1372-5)"/><circle cx="1694.7" cy="277.7" r="3.5" fill="url(#Безымянный_градиент_1372-6)"/><circle cx="1823.7" cy="248.7" r="3.5" fill="url(#Безымянный_градиент_1372-7)"/></g><g class="cls-1"><circle cx="83.7" cy="710.7" r="7.5" fill="url(#Безымянный_градиент_1374)"/><circle cx="230.06" cy="832.87" r="7.5" fill="url(#Безымянный_градиент_1374-2)"/><circle cx="298.71" cy="734.65" r="15.5" fill="url(#Безымянный_градиент_1374-3)"/><circle cx="211.83" cy="721.07" r="3.5" fill="url(#Безымянный_градиент_1374-4)"/><circle cx="94.43" cy="600.46" r="3.5" fill="url(#Безымянный_градиент_1374-5)"/><circle cx="52.76" cy="787.29" r="3.5" fill="url(#Безымянный_градиент_1374-6)"/><circle cx="171.67" cy="845.11" r="3.5" fill="url(#Безымянный_градиент_1374-7)"/></g><path fill="url(#Безымянный_градиент_40)" d="M1397.95 746.56L1694.2 917.6"/><path fill="url(#Безымянный_градиент_1376)" d="M550.2 257.6L253.95 86.56"/></svg>